<svg width="1829" height="464" viewBox="0 0 1829 464" fill="none" xmlns="http://www.w3.org/2000/svg">
<path d="M964.33 186.66C988.813 186.66 1008.66 166.813 1008.66 142.33C1008.66 117.847 988.813 98 964.33 98C939.847 98 920 117.847 920 142.33C920 166.813 939.847 186.66 964.33 186.66Z" fill="url(#paint0_radial_104_10)"/>
<path d="M327 452C345.225 452 360 437.225 360 419C360 400.775 345.225 386 327 386C308.775 386 294 400.775 294 419C294 437.225 308.775 452 327 452Z" fill="url(#paint1_radial_104_10)" fill-opacity="0.5"/>
<g opacity="0.5">
<path opacity="0.5" d="M699.857 290.608C719.669 280.336 735.647 268.639 752.15 257.242C844.389 193.607 966.186 133.241 1098 101.963C1152.73 88.9765 1210.96 81.3699 1250.93 89.6756C1278.86 95.4941 1295.32 108.639 1302.83 124.179C1324.64 169.279 1280.9 236.042 1358.91 262.139C1412.93 280.203 1509.44 265.96 1587.49 236.658C1621.43 223.907 1652.14 207.781 1674.7 189.977" stroke="url(#paint2_linear_104_10)" stroke-width="1.51129" stroke-miterlimit="10"/>
<path opacity="0.92" d="M715.81 302.125C733.7 291.591 748.119 279.601 763.39 267.977C841.579 208.427 947.077 150.964 1066.82 115.893C1076.15 113.159 1085.6 110.594 1095.1 108.173C1148.15 94.7418 1204.88 86.3328 1244.95 93.2401C1272.74 98.1156 1289.56 110.561 1297.39 125.575C1300.85 132.224 1301.42 139.723 1301.05 147.232C1300.53 158.308 1298.22 169.806 1295.93 181.378C1292.46 198.93 1289.49 216.541 1295.07 232.05C1301.41 249.626 1317.65 263.483 1348.15 271.843C1361.84 275.602 1377.65 277.679 1394.75 278.255C1417.96 279.026 1443.67 277.08 1470.19 273.054C1513.8 266.36 1560 253.737 1599.58 237.007C1609.99 232.569 1619.9 227.86 1629.07 222.892C1629.84 222.476 1630.61 222.045 1631.38 221.614C1653.89 208.857 1670.23 195.165 1681.3 181.828" stroke="url(#paint3_linear_104_10)" stroke-width="1.51129" stroke-miterlimit="10"/>
<path opacity="0.85" d="M731.777 313.64C747.746 302.843 760.608 290.591 774.643 278.696C845.594 218.632 945.774 159.808 1064.64 122.425C1073.71 119.571 1082.93 116.898 1092.23 114.35C1143.53 100.359 1198.86 91.1665 1238.99 96.771C1266.69 100.638 1283.9 112.44 1291.97 126.937C1295.89 133.971 1295.27 142.288 1293.52 150.38C1291 162.056 1286.5 174.071 1282.23 186.15C1275.51 205.097 1270.08 224.143 1276.18 240.79C1283.21 259.864 1303.26 273.778 1337.42 281.53C1352.73 285.009 1370.22 286.739 1388.8 286.886C1414.48 287.077 1442.56 284.363 1471.34 279.551C1519.31 271.397 1570.1 256.802 1611.71 237.35C1622.81 232.157 1633.13 226.634 1642.37 220.88C1643.16 220.386 1643.95 219.891 1644.71 219.385C1668.07 203.934 1681.35 188.081 1687.94 173.658" stroke="url(#paint4_linear_104_10)" stroke-width="1.51129" stroke-miterlimit="10"/>
<path opacity="0.77" d="M747.728 325.143C761.775 314.083 773.067 301.57 785.881 289.416C849.633 228.896 944.463 168.699 1062.42 128.961C1071.25 125.986 1080.24 123.203 1089.34 120.544C1138.93 106.067 1192.77 96.0693 1233.02 100.304C1260.58 103.213 1278.27 114.316 1286.53 128.286C1290.93 135.717 1289.11 144.838 1285.96 153.517C1281.5 165.787 1274.7 178.302 1268.49 190.911C1258.46 211.262 1250.62 231.721 1257.27 249.517C1264.99 270.089 1288.88 284.057 1326.67 291.187C1343.61 294.388 1362.76 295.774 1382.83 295.491C1410.95 295.086 1441.41 291.634 1472.45 286.022C1524.81 276.392 1580.09 259.787 1623.81 237.651C1635.59 231.688 1646.31 225.368 1655.64 218.843C1656.45 218.269 1657.25 217.697 1658.03 217.128C1682.17 198.959 1692.43 180.956 1694.56 165.474" stroke="url(#paint5_linear_104_10)" stroke-width="1.51129" stroke-miterlimit="10"/>
<path opacity="0.69" d="M763.681 336.66C775.807 325.338 785.56 312.575 797.105 300.138C853.726 239.229 943.158 177.634 1060.21 135.497C1068.78 132.417 1077.56 129.509 1086.44 126.724C1134.33 111.759 1186.68 100.972 1227.03 103.838C1254.48 105.788 1272.68 116.186 1281.08 129.652C1285.96 137.466 1282.99 147.4 1278.39 156.671C1272 169.546 1262.85 182.554 1254.74 195.69C1241.34 217.421 1231.16 239.314 1238.35 258.276C1246.76 280.346 1274.46 294.371 1315.89 300.879C1334.47 303.799 1355.27 304.827 1376.83 304.13C1407.4 303.13 1440.26 298.982 1473.52 292.529C1530.29 281.51 1590.05 262.793 1635.87 238.003C1648.31 231.272 1659.46 224.154 1668.87 216.841C1669.7 216.203 1670.51 215.555 1671.29 214.893C1696.2 193.979 1703.47 173.866 1701.13 157.299" stroke="url(#paint6_linear_104_10)" stroke-width="1.51129" stroke-miterlimit="10"/>
<path opacity="0.62" d="M779.633 348.177C789.823 336.594 798.054 323.595 808.345 310.872C857.891 249.659 941.906 186.639 1058.01 142.062C1066.33 138.876 1074.87 135.844 1083.56 132.947C1129.75 117.524 1180.61 105.933 1221.07 107.416C1248.38 108.422 1267.15 118.095 1275.65 131.061C1281.03 139.253 1276.89 150.005 1270.84 159.868C1262.55 173.361 1250.97 186.84 1241.02 200.509C1224.22 223.61 1211.72 246.95 1219.45 267.063C1228.55 290.631 1260.08 304.711 1305.15 310.597C1325.36 313.237 1347.83 313.904 1370.87 312.793C1403.89 311.199 1439.12 306.251 1474.65 299.043C1535.77 286.476 1600.07 265.792 1648.01 238.346C1661.13 230.844 1672.68 222.929 1682.19 214.827C1683.03 214.113 1683.87 213.384 1684.66 212.66C1710.32 188.987 1714.62 166.778 1707.8 149.14" stroke="url(#paint7_linear_104_10)" stroke-width="1.51129" stroke-miterlimit="10"/>
<path opacity="0.54" d="M795.601 359.693C803.869 347.847 810.579 334.627 819.598 321.591C862.152 260.123 940.688 195.671 1055.81 148.596C1063.89 145.304 1072.2 142.148 1080.68 139.126C1125.17 123.243 1174.53 110.851 1215.1 110.934C1242.27 110.997 1261.64 119.926 1270.21 132.395C1276.11 140.964 1270.8 152.548 1263.28 162.99C1253.12 177.098 1239.08 191.035 1227.29 205.271C1207.02 229.717 1192.27 254.542 1200.54 275.79C1210.33 300.856 1245.68 314.993 1294.4 320.27C1316.25 322.629 1340.37 322.938 1364.89 321.414C1400.36 319.208 1437.97 313.522 1475.77 305.529C1541.26 291.488 1610.05 268.765 1660.11 238.678C1673.9 230.392 1685.85 221.681 1695.46 212.819C1696.32 212.027 1697.17 211.236 1697.97 210.42C1724.35 183.976 1725.68 159.685 1714.39 140.96" stroke="url(#paint8_linear_104_10)" stroke-width="1.51129" stroke-miterlimit="10"/>
<path opacity="0.46" d="M811.552 371.195C817.899 359.087 823.106 345.658 830.836 332.311C866.53 270.664 939.491 204.745 1053.61 155.13C1061.45 151.731 1069.54 148.467 1077.79 145.319C1120.61 128.992 1168.46 115.797 1209.14 114.479C1236.19 113.6 1256.19 121.779 1264.8 133.772C1271.23 142.716 1264.74 155.147 1255.74 166.155C1243.71 180.893 1227.2 195.276 1213.57 210.06C1189.81 235.841 1172.83 262.148 1181.64 284.548C1192.12 311.111 1231.29 325.303 1283.66 329.958C1307.13 332.053 1332.91 331.987 1358.92 330.049C1396.84 327.233 1436.83 320.808 1476.87 312.032C1546.74 296.529 1620.01 271.739 1672.2 239.011C1686.65 229.942 1699 220.434 1708.72 210.799C1709.6 209.927 1710.45 209.059 1711.26 208.182C1738.33 178.971 1736.75 152.576 1720.99 132.796" stroke="url(#paint9_linear_104_10)" stroke-width="1.51129" stroke-miterlimit="10"/>
<path opacity="0.38" d="M827.504 382.713C831.93 370.341 835.666 356.716 842.075 343.031C871.016 281.222 938.347 213.874 1051.4 161.681C1058.98 158.177 1066.84 154.804 1074.9 151.513C1116.03 134.757 1162.36 120.762 1203.16 118.029C1230.07 116.222 1250.7 123.621 1259.35 135.153C1266.33 144.47 1258.64 157.752 1248.17 169.324C1234.27 184.691 1215.26 199.492 1199.82 214.853C1172.57 241.938 1153.37 269.756 1162.72 293.322C1173.91 321.396 1216.88 335.631 1272.9 339.663C1298.01 341.477 1325.43 341.038 1352.95 338.699C1393.32 335.257 1435.69 328.124 1477.99 318.533C1552.25 301.554 1629.98 274.728 1684.31 239.358C1699.42 229.52 1712.18 219.201 1722 208.806C1722.88 207.857 1723.75 206.911 1724.58 205.97C1752.34 173.978 1747.84 145.51 1727.62 124.642" stroke="url(#paint10_linear_104_10)" stroke-width="1.51129" stroke-miterlimit="10"/>
<path opacity="0.31" d="M843.457 394.23C845.961 381.596 848.256 367.77 853.3 353.768C875.632 291.84 937.24 223.059 1049.19 168.233C1056.52 164.636 1064.16 161.139 1072 157.723C1111.47 140.55 1156.28 125.74 1197.17 121.578C1223.96 118.858 1245.25 125.459 1253.91 136.517C1261.47 146.188 1252.56 160.338 1240.61 172.461C1224.85 188.456 1203.35 203.691 1186.1 219.613C1155.34 248.004 1133.92 277.347 1143.82 302.049C1155.69 331.621 1202.49 345.911 1262.15 349.321C1288.89 350.856 1317.97 350.043 1346.97 347.304C1389.78 343.253 1434.54 335.381 1479.08 325.005C1557.71 306.552 1639.84 277.594 1696.41 239.659C1712.15 229.012 1725.34 217.922 1735.26 206.753C1736.17 205.726 1737.05 204.718 1737.88 203.685C1766.3 168.899 1758.92 138.37 1734.22 116.431" stroke="url(#paint11_linear_104_10)" stroke-width="1.51129" stroke-miterlimit="10"/>
<path opacity="0.23" d="M859.409 405.747C859.992 392.851 860.877 378.835 864.538 364.488C880.397 302.439 936.198 232.281 1046.97 174.769C1054.08 171.079 1061.48 167.46 1069.1 163.903C1106.92 146.327 1150.2 130.718 1191.19 125.113C1217.84 121.465 1239.82 127.281 1248.46 137.882C1256.63 147.905 1246.49 162.924 1233.04 175.615C1215.41 192.254 1191.41 207.877 1172.35 224.391C1138.07 254.075 1114.46 284.94 1124.9 310.793C1137.46 341.863 1188.08 356.21 1251.39 358.996C1279.75 360.252 1310.48 359.034 1340.98 355.926C1386.22 351.207 1433.37 342.669 1480.18 331.493C1563.2 311.578 1649.81 280.583 1708.5 239.992C1724.91 228.577 1738.48 216.662 1748.52 204.747C1749.45 203.657 1750.34 202.556 1751.19 201.46C1780.26 163.896 1769.99 131.291 1740.83 108.265" stroke="url(#paint12_linear_104_10)" stroke-width="1.51129" stroke-miterlimit="10"/>
<path opacity="0.15" d="M875.375 417.248C874.037 404.088 873.542 389.879 875.791 375.206C885.296 313.007 935.239 241.555 1044.79 181.316C1051.66 177.534 1058.84 173.79 1066.24 170.109C1102.42 152.128 1144.16 135.722 1185.25 128.672C1211.79 124.124 1234.44 129.11 1243.06 139.273C1251.85 149.629 1240.45 165.551 1225.52 178.793C1206.04 196.09 1179.53 212.103 1158.65 229.194C1120.84 260.156 1095.04 292.559 1106.02 319.561C1119.27 352.129 1173.72 366.531 1240.66 368.712C1270.66 369.687 1303.04 368.111 1335.04 364.587C1382.73 359.257 1432.28 349.979 1481.33 338.021C1568.72 316.631 1659.83 283.597 1720.63 240.35C1737.72 228.164 1751.64 215.431 1761.83 202.751C1762.76 201.583 1763.67 200.404 1764.53 199.231C1794.23 158.878 1781.11 124.207 1747.46 100.111" stroke="url(#paint13_linear_104_10)" stroke-width="1.51129" stroke-miterlimit="10"/>
<path opacity="0.08" d="M891.327 428.765C888.067 415.343 886.236 400.92 887.029 385.926C890.314 323.559 934.345 250.865 1042.59 187.851C1049.24 183.99 1056.17 180.109 1063.35 176.288C1097.9 157.916 1138.13 140.755 1179.28 132.19C1205.73 126.77 1229.04 130.895 1237.63 140.607C1247.06 151.293 1234.41 168.134 1217.96 181.915C1196.67 199.879 1167.6 216.257 1144.91 233.955C1103.58 266.18 1075.59 300.15 1087.1 328.29C1101.04 362.356 1159.3 376.814 1229.89 378.372C1261.52 379.068 1295.58 377.13 1329.05 373.195C1379.19 367.253 1431.11 357.237 1482.41 344.48C1574.18 321.614 1669.78 286.543 1732.7 240.641C1750.46 227.671 1764.79 214.139 1775.07 200.702C1776.02 199.456 1776.93 198.2 1777.81 196.963C1808.08 153.813 1792.18 117.099 1754.07 91.93" stroke="url(#paint14_linear_104_10)" stroke-width="1.51129" stroke-miterlimit="10"/>
</g>
<path d="M1252.33 306.66C1276.81 306.66 1296.66 286.813 1296.66 262.33C1296.66 237.847 1276.81 218 1252.33 218C1227.85 218 1208 237.847 1208 262.33C1208 286.813 1227.85 306.66 1252.33 306.66Z" fill="url(#paint15_radial_104_10)"/>
<path d="M1429.83 91.66C1447.41 91.66 1461.66 77.4092 1461.66 59.83C1461.66 42.2508 1447.41 28 1429.83 28C1412.25 28 1398 42.2508 1398 59.83C1398 77.4092 1412.25 91.66 1429.83 91.66Z" fill="url(#paint16_radial_104_10)"/>
<path opacity="0.5" d="M1204.5 113C1235.7 113 1261 87.7041 1261 56.5C1261 25.2959 1235.7 0 1204.5 0C1173.3 0 1148 25.2959 1148 56.5C1148 87.7041 1173.3 113 1204.5 113Z" fill="url(#paint17_radial_104_10)"/>
<path opacity="0.5" d="M976 386C994.225 386 1009 371.225 1009 353C1009 334.775 994.225 320 976 320C957.775 320 943 334.775 943 353C943 371.225 957.775 386 976 386Z" fill="url(#paint18_radial_104_10)" fill-opacity="0.4"/>
<path opacity="0.5" d="M610 253C628.225 253 643 238.225 643 220C643 201.775 628.225 187 610 187C591.775 187 577 201.775 577 220C577 238.225 591.775 253 610 253Z" fill="url(#paint19_radial_104_10)" fill-opacity="0.2"/>
<path opacity="0.5" d="M1506.5 295C1537.7 295 1563 269.704 1563 238.5C1563 207.296 1537.7 182 1506.5 182C1475.3 182 1450 207.296 1450 238.5C1450 269.704 1475.3 295 1506.5 295Z" fill="url(#paint20_radial_104_10)"/>
<path opacity="0.5" d="M30 113C46.5685 113 60 99.5685 60 83C60 66.4315 46.5685 53 30 53C13.4315 53 0 66.4315 0 83C0 99.5685 13.4315 113 30 113Z" fill="url(#paint21_radial_104_10)"/>
<defs>
<radialGradient id="paint0_radial_104_10" cx="0" cy="0" r="1" gradientUnits="userSpaceOnUse" gradientTransform="translate(964.33 142.33) scale(44.33)">
<stop stop-color="#E6E7E8" stop-opacity="0"/>
<stop offset="0.09" stop-color="#E5E7E3" stop-opacity="0.03"/>
<stop offset="0.22" stop-color="#3D7448" stop-opacity="0.11"/>
<stop offset="0.37" stop-color="#4F9F60" stop-opacity="0.23"/>
<stop offset="0.55" stop-color="#54CD6D" stop-opacity="0.41"/>
<stop offset="0.74" stop-color="#54EC74" stop-opacity="0.64"/>
<stop offset="0.94" stop-color="#55FF79" stop-opacity="0.92"/>
<stop offset="1" stop-color="#55FF79"/>
</radialGradient>
<radialGradient id="paint1_radial_104_10" cx="0" cy="0" r="1" gradientUnits="userSpaceOnUse" gradientTransform="translate(327 419) scale(33)">
<stop stop-color="#E6E7E8" stop-opacity="0"/>
<stop offset="0.09" stop-color="#E5E7E3" stop-opacity="0.03"/>
<stop offset="0.22" stop-color="#3D7448" stop-opacity="0.11"/>
<stop offset="0.37" stop-color="#4F9F60" stop-opacity="0.23"/>
<stop offset="0.55" stop-color="#54CD6D" stop-opacity="0.41"/>
<stop offset="0.74" stop-color="#54EC74" stop-opacity="0.64"/>
<stop offset="0.94" stop-color="#55FF79" stop-opacity="0.92"/>
<stop offset="1" stop-color="#55FF79"/>
</radialGradient>
<linearGradient id="paint2_linear_104_10" x1="1671.95" y1="237.46" x2="707.722" y2="171.006" gradientUnits="userSpaceOnUse">
<stop stop-color="white"/>
<stop offset="1" stop-color="white" stop-opacity="0"/>
</linearGradient>
<linearGradient id="paint3_linear_104_10" x1="1677.56" y1="245.315" x2="723.855" y2="179.586" gradientUnits="userSpaceOnUse">
<stop stop-color="white"/>
<stop offset="1" stop-color="white" stop-opacity="0"/>
</linearGradient>
<linearGradient id="paint4_linear_104_10" x1="1683.17" y1="253.08" x2="739.978" y2="188.075" gradientUnits="userSpaceOnUse">
<stop stop-color="white"/>
<stop offset="1" stop-color="white" stop-opacity="0"/>
</linearGradient>
<linearGradient id="paint5_linear_104_10" x1="1688.75" y1="260.766" x2="756.108" y2="196.488" gradientUnits="userSpaceOnUse">
<stop stop-color="white"/>
<stop offset="1" stop-color="white" stop-opacity="0"/>
</linearGradient>
<linearGradient id="paint6_linear_104_10" x1="1695.19" y1="268.435" x2="772.228" y2="204.825" gradientUnits="userSpaceOnUse">
<stop stop-color="white"/>
<stop offset="1" stop-color="white" stop-opacity="0"/>
</linearGradient>
<linearGradient id="paint7_linear_104_10" x1="1703.84" y1="276.151" x2="788.369" y2="213.058" gradientUnits="userSpaceOnUse">
<stop stop-color="white"/>
<stop offset="1" stop-color="white" stop-opacity="0"/>
</linearGradient>
<linearGradient id="paint8_linear_104_10" x1="1713.87" y1="281.963" x2="804.648" y2="219.3" gradientUnits="userSpaceOnUse">
<stop stop-color="white"/>
<stop offset="1" stop-color="white" stop-opacity="0"/>
</linearGradient>
<linearGradient id="paint9_linear_104_10" x1="1724.93" y1="283.544" x2="821.207" y2="221.259" gradientUnits="userSpaceOnUse">
<stop stop-color="white"/>
<stop offset="1" stop-color="white" stop-opacity="0"/>
</linearGradient>
<linearGradient id="paint10_linear_104_10" x1="1736.47" y1="285.157" x2="837.796" y2="223.22" gradientUnits="userSpaceOnUse">
<stop stop-color="white"/>
<stop offset="1" stop-color="white" stop-opacity="0"/>
</linearGradient>
<linearGradient id="paint11_linear_104_10" x1="1748.34" y1="286.793" x2="854.385" y2="225.182" gradientUnits="userSpaceOnUse">
<stop stop-color="white"/>
<stop offset="1" stop-color="white" stop-opacity="0"/>
</linearGradient>
<linearGradient id="paint12_linear_104_10" x1="1760.42" y1="288.459" x2="870.837" y2="227.149" gradientUnits="userSpaceOnUse">
<stop stop-color="white"/>
<stop offset="1" stop-color="white" stop-opacity="0"/>
</linearGradient>
<linearGradient id="paint13_linear_104_10" x1="1772.67" y1="290.242" x2="884.674" y2="229.042" gradientUnits="userSpaceOnUse">
<stop stop-color="white"/>
<stop offset="1" stop-color="white" stop-opacity="0"/>
</linearGradient>
<linearGradient id="paint14_linear_104_10" x1="1785" y1="292.031" x2="896.957" y2="230.828" gradientUnits="userSpaceOnUse">
<stop stop-color="white"/>
<stop offset="1" stop-color="white" stop-opacity="0"/>
</linearGradient>
<radialGradient id="paint15_radial_104_10" cx="0" cy="0" r="1" gradientUnits="userSpaceOnUse" gradientTransform="translate(1252.33 262.33) scale(44.33)">
<stop stop-color="#E6E7E8" stop-opacity="0"/>
<stop offset="0.09" stop-color="#E5E7E3" stop-opacity="0.03"/>
<stop offset="0.22" stop-color="#3D7448" stop-opacity="0.11"/>
<stop offset="0.37" stop-color="#4F9F60" stop-opacity="0.23"/>
<stop offset="0.55" stop-color="#54CD6D" stop-opacity="0.41"/>
<stop offset="0.74" stop-color="#54EC74" stop-opacity="0.64"/>
<stop offset="0.94" stop-color="#55FF79" stop-opacity="0.92"/>
<stop offset="1" stop-color="#55FF79"/>
</radialGradient>
<radialGradient id="paint16_radial_104_10" cx="0" cy="0" r="1" gradientUnits="userSpaceOnUse" gradientTransform="translate(1429.83 59.83) scale(31.83)">
<stop stop-color="#E6E7E8" stop-opacity="0"/>
<stop offset="0.09" stop-color="#E5E7E3" stop-opacity="0.03"/>
<stop offset="0.22" stop-color="#3D7448" stop-opacity="0.11"/>
<stop offset="0.37" stop-color="#4F9F60" stop-opacity="0.23"/>
<stop offset="0.55" stop-color="#54CD6D" stop-opacity="0.41"/>
<stop offset="0.74" stop-color="#54EC74" stop-opacity="0.64"/>
<stop offset="0.94" stop-color="#55FF79" stop-opacity="0.92"/>
<stop offset="1" stop-color="#55FF79"/>
</radialGradient>
<radialGradient id="paint17_radial_104_10" cx="0" cy="0" r="1" gradientUnits="userSpaceOnUse" gradientTransform="translate(1204.5 56.5) scale(56.5)">
<stop stop-color="#E6E7E8" stop-opacity="0"/>
<stop offset="0.11" stop-color="#E6E7E8" stop-opacity="0.02"/>
<stop offset="0.23" stop-color="#E7E8E9" stop-opacity="0.07"/>
<stop offset="0.37" stop-color="#E9EAEB" stop-opacity="0.16"/>
<stop offset="0.5" stop-color="#EDEDEE" stop-opacity="0.28"/>
<stop offset="0.64" stop-color="#F0F1F2" stop-opacity="0.44"/>
<stop offset="0.78" stop-color="#F5F6F6" stop-opacity="0.63"/>
<stop offset="0.92" stop-color="#FBFBFB" stop-opacity="0.86"/>
<stop offset="1" stop-color="white"/>
</radialGradient>
<radialGradient id="paint18_radial_104_10" cx="0" cy="0" r="1" gradientUnits="userSpaceOnUse" gradientTransform="translate(976 353) scale(33)">
<stop stop-color="#E6E7E8" stop-opacity="0"/>
<stop offset="0.11" stop-color="#E6E7E8" stop-opacity="0.02"/>
<stop offset="0.23" stop-color="#E7E8E9" stop-opacity="0.07"/>
<stop offset="0.37" stop-color="#E9EAEB" stop-opacity="0.16"/>
<stop offset="0.5" stop-color="#EDEDEE" stop-opacity="0.28"/>
<stop offset="0.64" stop-color="#F0F1F2" stop-opacity="0.44"/>
<stop offset="0.78" stop-color="#F5F6F6" stop-opacity="0.63"/>
<stop offset="0.92" stop-color="#FBFBFB" stop-opacity="0.86"/>
<stop offset="1" stop-color="white"/>
</radialGradient>
<radialGradient id="paint19_radial_104_10" cx="0" cy="0" r="1" gradientUnits="userSpaceOnUse" gradientTransform="translate(610 220) scale(33)">
<stop stop-color="#E6E7E8" stop-opacity="0"/>
<stop offset="0.11" stop-color="#E6E7E8" stop-opacity="0.02"/>
<stop offset="0.23" stop-color="#E7E8E9" stop-opacity="0.07"/>
<stop offset="0.37" stop-color="#E9EAEB" stop-opacity="0.16"/>
<stop offset="0.5" stop-color="#EDEDEE" stop-opacity="0.28"/>
<stop offset="0.64" stop-color="#F0F1F2" stop-opacity="0.44"/>
<stop offset="0.78" stop-color="#F5F6F6" stop-opacity="0.63"/>
<stop offset="0.92" stop-color="#FBFBFB" stop-opacity="0.86"/>
<stop offset="1" stop-color="white"/>
</radialGradient>
<radialGradient id="paint20_radial_104_10" cx="0" cy="0" r="1" gradientUnits="userSpaceOnUse" gradientTransform="translate(1506.5 238.5) scale(56.5)">
<stop stop-color="#E6E7E8" stop-opacity="0"/>
<stop offset="0.11" stop-color="#E6E7E8" stop-opacity="0.02"/>
<stop offset="0.23" stop-color="#E7E8E9" stop-opacity="0.07"/>
<stop offset="0.37" stop-color="#E9EAEB" stop-opacity="0.16"/>
<stop offset="0.5" stop-color="#EDEDEE" stop-opacity="0.28"/>
<stop offset="0.64" stop-color="#F0F1F2" stop-opacity="0.44"/>
<stop offset="0.78" stop-color="#F5F6F6" stop-opacity="0.63"/>
<stop offset="0.92" stop-color="#FBFBFB" stop-opacity="0.86"/>
<stop offset="1" stop-color="white"/>
</radialGradient>
<radialGradient id="paint21_radial_104_10" cx="0" cy="0" r="1" gradientUnits="userSpaceOnUse" gradientTransform="translate(30 83) scale(30)">
<stop stop-color="#E6E7E8" stop-opacity="0"/>
<stop offset="0.11" stop-color="#E6E7E8" stop-opacity="0.02"/>
<stop offset="0.23" stop-color="#E7E8E9" stop-opacity="0.07"/>
<stop offset="0.37" stop-color="#E9EAEB" stop-opacity="0.16"/>
<stop offset="0.5" stop-color="#EDEDEE" stop-opacity="0.28"/>
<stop offset="0.64" stop-color="#F0F1F2" stop-opacity="0.44"/>
<stop offset="0.78" stop-color="#F5F6F6" stop-opacity="0.63"/>
<stop offset="0.92" stop-color="#FBFBFB" stop-opacity="0.86"/>
<stop offset="1" stop-color="white"/>
</radialGradient>
</defs>
</svg>
