<svg width="299" height="189" viewBox="0 0 299 189" fill="none" xmlns="http://www.w3.org/2000/svg">
<path fill-rule="evenodd" clip-rule="evenodd" d="M280.522 111.918C290.337 69.7364 264.099 27.5854 221.917 17.7709C179.736 7.95629 137.585 34.1946 127.771 76.3758C117.956 118.557 144.194 160.708 186.376 170.523C228.557 180.337 270.708 154.099 280.522 111.918ZM194.599 91.9253C186.801 125.443 182.874 154.546 184.236 165.702C183.698 164.802 183.167 163.611 182.677 162.055C181.394 157.981 180.647 152.177 180.529 144.971C180.294 130.598 182.564 111.214 187.439 90.2593C192.315 69.3051 198.836 50.9093 205.392 38.117C208.678 31.7035 211.91 26.825 214.861 23.7361C215.987 22.5564 216.989 21.7214 217.869 21.1512C211.723 30.5606 202.398 58.4076 194.599 91.9253ZM193.432 164.557C192.305 165.737 191.304 166.572 190.424 167.142C196.57 157.733 205.895 129.886 213.693 96.368C221.492 62.8503 225.419 33.7474 224.057 22.5911C224.595 23.4911 225.126 24.6826 225.616 26.2385C226.899 30.3126 227.646 36.1168 227.764 43.3224C227.999 57.6949 225.729 77.0798 220.854 98.0341C215.978 118.988 209.457 137.384 202.901 150.176C199.614 156.59 196.382 161.468 193.432 164.557ZM180.625 163.648C179.983 162.805 179.366 161.843 178.778 160.759C176.445 156.454 174.719 150.466 173.758 143.122C171.838 128.455 173.034 108.918 177.892 88.0379C182.751 67.1578 190.302 49.1001 198.5 36.7866C202.604 30.6219 206.796 26.0102 210.79 23.1778C211.796 22.4641 212.774 21.8737 213.723 21.401C204.034 30.89 192.577 57.3653 185.052 89.704C177.528 122.043 176.12 150.856 180.625 163.648ZM194.57 166.892C195.519 166.42 196.497 165.829 197.503 165.116C201.497 162.283 205.689 157.671 209.793 151.507C217.991 139.193 225.542 121.136 230.401 100.255C235.259 79.3752 236.455 59.8387 234.535 45.1711C233.574 37.8277 231.848 31.8394 229.515 27.5347C228.927 26.45 228.31 25.4885 227.668 24.6457C232.172 37.4372 230.765 66.2507 223.24 98.5894C215.716 130.928 204.259 157.403 194.57 166.892ZM166.961 141.299C169.033 149.954 172.269 156.785 176.37 161.448C169.023 147.291 168.227 118.762 175.506 87.4826C182.784 56.203 196.091 30.9559 208.934 21.496C203.196 23.8697 197.276 28.5708 191.596 35.422C181.76 47.285 173.185 65.0162 168.345 85.8166C163.506 106.617 163.372 126.312 166.961 141.299ZM216.697 152.871C211.017 159.723 205.097 164.424 199.359 166.797C212.202 157.337 225.509 132.09 232.787 100.811C240.065 69.5312 239.27 41.0027 231.923 26.845C236.024 31.508 239.26 38.3393 241.332 46.9945C244.921 61.9811 244.787 81.6764 239.948 102.477C235.108 123.277 226.533 141.008 216.697 152.871ZM171.588 159.163C166.782 154.208 162.892 147.526 160.145 139.505C154.894 124.173 153.978 104.31 158.798 83.5952C163.618 62.8804 173.208 45.462 184.688 34.023C190.694 28.0387 197.134 23.7601 203.634 21.4354C187.955 30.7814 173.016 54.9276 165.959 85.2613C158.901 115.595 161.645 143.856 171.588 159.163ZM204.659 166.858C211.159 164.533 217.599 160.255 223.605 154.27C235.085 142.831 244.675 125.413 249.495 104.698C254.314 83.9833 253.399 64.1207 248.148 48.7886C245.4 40.7676 241.511 34.0855 236.705 29.1304C246.647 44.4377 249.392 72.6984 242.334 103.032C235.276 133.366 220.338 157.512 204.659 166.858ZM153.319 137.74C156.615 145.223 161.019 151.69 166.34 156.785C154.034 140.492 149.557 112.501 156.412 83.0399C163.267 53.5786 179.641 30.4392 197.875 21.2527C190.852 23.4753 184.045 27.3333 177.784 32.5927C164.646 43.6295 154.05 60.7498 149.251 81.3739C144.453 101.998 146.402 122.037 153.319 137.74ZM230.509 155.701C224.248 160.96 217.441 164.818 210.418 167.041C228.652 157.854 245.026 134.715 251.881 105.253C258.736 75.7922 254.259 47.8011 241.953 31.5086C247.273 36.6033 251.678 43.0699 254.974 50.553C261.891 66.2561 263.84 86.2954 259.042 106.919C254.243 127.544 243.647 144.664 230.509 155.701ZM160.626 154.26C141.934 137.342 132.841 108.652 139.704 79.1525C146.568 49.6535 167.393 27.9244 191.634 20.9952C171.124 30.0147 153.522 52.2065 146.865 80.8185C140.207 109.431 146.205 137.114 160.626 154.26ZM216.659 167.298C240.9 160.369 261.725 138.64 268.589 109.141C275.452 79.6418 266.359 50.9514 247.667 34.0329C262.088 51.1798 268.086 78.8628 261.428 107.475C254.771 136.087 237.169 158.279 216.659 167.298ZM130.157 76.9312C123.522 105.449 133.897 133.952 154.661 151.803C138.231 133.927 130.828 106.486 137.318 78.5972C143.807 50.7081 162.563 29.3537 185.196 20.5667C158.685 27.4183 136.793 48.4137 130.157 76.9312ZM278.136 111.362C271.5 139.88 249.608 160.875 223.097 167.727C245.73 158.94 264.486 137.585 270.975 109.696C277.464 81.8071 270.062 54.366 253.632 36.4901C274.396 54.3416 284.771 82.8448 278.136 111.362ZM196.032 148.876C200.93 135.579 206.415 116.836 211.307 95.8127C216.198 74.789 219.551 55.5506 221.026 41.4566C221.765 34.3923 222.022 28.7146 221.791 24.7814C221.774 24.4979 221.755 24.2264 221.734 23.9669L188.946 164.882C189.08 164.658 189.217 164.423 189.357 164.176C191.301 160.749 193.577 155.541 196.032 148.876ZM219.347 23.4116L186.559 164.326C186.538 164.067 186.519 163.796 186.502 163.512C186.271 159.579 186.528 153.901 187.267 146.837C188.742 132.743 192.094 113.504 196.986 92.4807C201.878 71.457 207.362 52.7146 212.261 39.4172C214.716 32.7522 216.992 27.5443 218.936 24.1172C219.076 23.8702 219.213 23.635 219.347 23.4116Z" fill="url(#paint0_linear_102_7)"/>
<path fill-rule="evenodd" clip-rule="evenodd" d="M12.3994 124.09C5.5513 94.6584 23.8591 65.2477 53.2909 58.3996C82.7228 51.5515 112.134 69.8592 118.982 99.2911C125.83 128.723 107.522 158.134 78.0901 164.982C48.6582 171.83 19.2475 153.522 12.3994 124.09ZM72.3519 110.141C77.7935 133.528 80.5333 153.834 79.5833 161.619C79.9586 160.991 80.3287 160.159 80.6707 159.074C81.5663 156.231 82.0871 152.181 82.1694 147.153C82.3336 137.125 80.7499 123.599 77.3479 108.978C73.946 94.3575 69.396 81.5219 64.8217 72.5961C62.5283 68.1211 60.2732 64.7171 58.2147 62.5618C57.4285 61.7387 56.7294 61.1561 56.1155 60.7582C60.4043 67.3236 66.9103 86.7538 72.3519 110.141ZM73.1663 160.82C73.9525 161.643 74.6516 162.225 75.2656 162.623C70.9768 156.058 64.4707 136.628 59.0291 113.241C53.5875 89.8537 50.8478 69.5472 51.7977 61.7629C51.4225 62.3909 51.0524 63.2222 50.7103 64.3079C49.8147 67.1506 49.294 71.2004 49.2117 76.2281C49.0475 86.2565 50.6312 99.7823 54.0331 114.403C57.435 129.024 61.985 141.86 66.5594 150.785C68.8527 155.26 71.1078 158.664 73.1663 160.82ZM82.1024 160.185C82.5506 159.597 82.981 158.926 83.3913 158.169C85.0195 155.166 86.2232 150.987 86.8939 145.863C88.2336 135.629 87.3992 121.997 84.0093 107.428C80.6194 92.8592 75.3504 80.2595 69.6304 71.6678C66.7666 67.3664 63.842 64.1486 61.055 62.1723C60.3528 61.6743 59.6704 61.2623 59.0087 60.9325C65.7691 67.5535 73.7631 86.0266 79.0133 108.591C84.2635 131.155 85.2456 151.26 82.1024 160.185ZM72.3723 162.449C71.7106 162.119 71.0282 161.707 70.326 161.209C67.539 159.233 64.6144 156.015 61.7507 151.714C56.0306 143.122 50.7616 130.522 47.3717 115.953C43.9818 101.384 43.1474 87.7524 44.4871 77.5181C45.1578 72.3942 46.3615 68.2159 47.9898 65.2123C48.4001 64.4554 48.8305 63.7845 49.2786 63.1965C46.1354 72.1218 47.1176 92.2264 52.3677 114.791C57.6179 137.355 65.6119 155.828 72.3723 162.449ZM91.6368 144.591C90.1906 150.63 87.9329 155.397 85.0714 158.65C90.198 148.772 90.7529 128.866 85.6747 107.041C80.5964 85.2156 71.3111 67.5995 62.3502 60.9988C66.354 62.655 70.4841 65.9352 74.4477 70.7156C81.3108 78.993 87.2938 91.3649 90.6707 105.878C94.0477 120.392 94.1408 134.134 91.6368 144.591ZM56.9333 152.666C60.8969 157.446 65.027 160.726 69.0309 162.383C60.0699 155.782 50.7846 138.166 45.7064 116.341C40.6281 94.5153 41.183 74.6096 46.3096 64.7311C43.4482 67.9847 41.1904 72.7512 39.7442 78.7903C37.2402 89.2472 37.3334 102.99 40.7103 117.503C44.0872 132.016 50.0703 144.388 56.9333 152.666ZM88.4084 157.056C91.7615 153.598 94.4754 148.936 96.3923 143.339C100.057 132.641 100.695 118.782 97.3321 104.328C93.9691 89.8747 87.2779 77.7211 79.2674 69.7395C75.0767 65.564 70.5833 62.5786 66.0483 60.9565C76.9879 67.4777 87.4114 84.3256 92.3361 105.491C97.2607 126.656 95.3455 146.375 88.4084 157.056ZM65.3327 162.425C60.7977 160.803 56.3043 157.817 52.1136 153.642C44.1031 145.66 37.412 133.507 34.0489 119.053C30.6859 104.599 31.3245 90.7401 34.9887 80.0421C36.9056 74.4455 39.6196 69.7831 42.9727 66.3257C36.0355 77.0063 34.1203 96.7252 39.045 117.891C43.9696 139.056 54.3931 155.904 65.3327 162.425ZM101.155 142.108C98.8557 147.329 95.7824 151.842 92.07 155.396C100.657 144.028 103.78 124.498 98.9975 103.941C94.2144 83.3844 82.7894 67.2389 70.0664 60.829C74.9667 62.3799 79.7162 65.0718 84.0848 68.7415C93.252 76.4424 100.645 88.3881 103.994 102.778C107.342 117.169 105.981 131.151 101.155 142.108ZM47.2963 154.64C51.6648 158.31 56.4143 161.002 61.3147 162.552C48.5916 156.143 37.1666 139.997 32.3836 119.44C27.6005 98.8839 30.7245 79.3532 39.3111 67.9851C35.5987 71.5399 32.5253 76.052 30.2256 81.2733C25.3995 92.2301 24.0392 106.212 27.3875 120.603C30.7359 134.993 38.129 146.939 47.2963 154.64ZM96.0569 153.635C109.099 141.83 115.444 121.811 110.655 101.229C105.866 80.6456 91.3351 65.4842 74.4213 60.6494C88.7317 66.9427 101.014 82.427 105.659 102.391C110.304 122.355 106.119 141.671 96.0569 153.635ZM56.9597 162.732C40.0459 157.897 25.5153 142.736 20.7261 122.153C15.937 101.57 22.282 81.5512 35.3241 69.7464C25.2619 81.7107 21.077 101.026 25.7222 120.99C30.3673 140.954 42.6493 156.439 56.9597 162.732ZM117.316 99.6786C121.946 119.577 114.707 139.465 100.219 151.92C111.683 139.448 116.848 120.301 112.32 100.841C107.792 81.3815 94.7052 66.4815 78.9129 60.3504C97.4113 65.1311 112.686 79.7806 117.316 99.6786ZM14.0648 123.703C18.6946 143.601 33.9698 158.25 52.4681 163.031C36.6759 156.9 23.5886 142 19.0608 122.54C14.533 103.081 19.6984 83.9338 31.1619 71.4609C16.6741 83.9168 9.43495 103.805 14.0648 123.703ZM71.3525 149.878C67.9344 140.6 64.1077 127.522 60.6945 112.853C57.2813 98.1839 54.9419 84.7604 53.9129 74.9262C53.3972 69.9972 53.2179 66.0355 53.3793 63.2912C53.3909 63.0933 53.4043 62.9039 53.4191 62.7229L76.2966 161.046C76.2033 160.89 76.1078 160.726 76.01 160.554C74.6537 158.162 73.0657 154.529 71.3525 149.878ZM55.0844 62.3354L77.9619 160.659C77.9768 160.477 77.9901 160.288 78.0017 160.09C78.1631 157.346 77.9839 153.384 77.4681 148.455C76.4391 138.621 74.0998 125.198 70.6866 110.528C67.2734 95.859 63.4466 82.7815 60.0286 73.5033C58.3154 68.8528 56.7273 65.219 55.371 62.8277C55.2732 62.6554 55.1777 62.4913 55.0844 62.3354Z" fill="url(#paint1_linear_102_7)"/>
<defs>
<linearGradient id="paint0_linear_102_7" x1="188.03" y1="17.434" x2="210.326" y2="181.127" gradientUnits="userSpaceOnUse">
<stop stop-color="#55FF79"/>
<stop offset="1" stop-color="#002B09"/>
</linearGradient>
<linearGradient id="paint1_linear_102_7" x1="76.9356" y1="58.1646" x2="61.3789" y2="172.381" gradientUnits="userSpaceOnUse">
<stop stop-color="white"/>
<stop offset="1" stop-color="white" stop-opacity="0"/>
</linearGradient>
</defs>
</svg>
