<svg width="145" height="160" viewBox="0 0 145 160" fill="none" xmlns="http://www.w3.org/2000/svg">
<path d="M12.0639 93.9129C8.98209 98.8587 10.146 105.946 14.7853 113.515C19.4085 121.057 27.4121 128.943 37.7111 135.361C48.0102 141.778 58.6161 145.488 67.4239 146.315C76.2624 147.145 83.1374 145.067 86.2193 140.121C89.3011 135.175 88.1372 128.088 83.4979 120.519C78.8747 112.977 70.8711 105.091 60.5721 98.6733C50.273 92.2557 39.6671 88.5458 30.8593 87.7189C22.0208 86.8892 15.1458 88.9671 12.0639 93.9129Z" stroke="url(#paint0_linear_35_726)" stroke-width="0.919726"/>
<path d="M15.9555 87.6685C12.8737 92.6143 14.0376 99.7016 18.6769 107.27C23.3001 114.813 31.3037 122.699 41.6027 129.116C51.9018 135.534 62.5077 139.244 71.3155 140.071C80.154 140.901 87.029 138.823 90.1109 133.877C93.1927 128.931 92.0288 121.844 87.3895 114.275C82.7663 106.733 74.7627 98.8466 64.4637 92.429C54.1646 86.0113 43.5588 82.3014 34.7509 81.4745C25.9124 80.6448 19.0374 82.7228 15.9555 87.6685Z" fill="url(#paint1_linear_35_726)" stroke="url(#paint2_linear_35_726)" stroke-width="0.919726"/>
<path d="M19.8471 81.4234C16.7653 86.3692 17.9292 93.4565 22.5685 101.025C27.1917 108.567 35.1953 116.454 45.4943 122.871C55.7934 129.289 66.3993 132.999 75.2071 133.826C84.0456 134.655 90.9206 132.577 94.0025 127.632C97.0843 122.686 95.9204 115.599 91.2811 108.03C86.6579 100.488 78.6543 92.6015 68.3553 86.1838C58.0562 79.7662 47.4504 76.0563 38.6425 75.2294C29.804 74.3997 22.929 76.4776 19.8471 81.4234Z" fill="url(#paint3_linear_35_726)" stroke="url(#paint4_linear_35_726)" stroke-width="0.919726"/>
<path d="M23.7378 75.1795C20.6559 80.1253 21.8198 87.2126 26.4591 94.7812C31.0824 102.324 39.0859 110.21 49.385 116.627C59.684 123.045 70.2899 126.755 79.0977 127.582C87.9362 128.411 94.8112 126.334 97.8931 121.388C100.975 116.442 99.811 109.355 95.1717 101.786C90.5485 94.2437 82.5449 86.3576 72.2459 79.9399C61.9468 73.5223 51.341 69.8124 42.5331 68.9855C33.6947 68.1558 26.8196 70.2337 23.7378 75.1795Z" fill="url(#paint5_linear_35_726)" stroke="url(#paint6_linear_35_726)" stroke-width="0.919726"/>
<path d="M27.6294 68.9344C24.5475 73.8802 25.7114 80.9674 30.3507 88.5361C34.974 96.0785 42.9775 103.965 53.2766 110.382C63.5756 116.8 74.1815 120.51 82.9893 121.337C91.8278 122.166 98.7028 120.088 101.785 115.143C104.867 110.197 103.703 103.11 99.0633 95.541C94.4401 87.9986 86.4365 80.1124 76.1375 73.6948C65.8385 67.2772 55.2326 63.5673 46.4247 62.7404C37.5863 61.9107 30.7112 63.9886 27.6294 68.9344Z" fill="url(#paint7_linear_35_726)" stroke="url(#paint8_linear_35_726)" stroke-width="0.919726"/>
<path d="M31.5205 62.6894C28.4386 67.6352 29.6026 74.7225 34.2419 82.2911C38.8651 89.8335 46.8687 97.7196 57.1677 104.137C67.4667 110.555 78.0726 114.265 86.8804 115.092C95.7189 115.921 102.594 113.843 105.676 108.898C108.758 103.952 107.594 96.8646 102.954 89.296C98.3312 81.7536 90.3276 73.8674 80.0286 67.4498C69.7296 61.0322 59.1237 57.3223 50.3158 56.4954C41.4774 55.6657 34.6023 57.7436 31.5205 62.6894Z" fill="url(#paint9_linear_35_726)" stroke="url(#paint10_linear_35_726)" stroke-width="0.919726"/>
<path d="M35.4116 56.4454C32.3298 61.3912 33.4937 68.4784 38.133 76.047C42.7562 83.5895 50.7598 91.4756 61.0588 97.8932C71.3578 104.311 81.9637 108.021 90.7716 108.848C99.61 109.677 106.485 107.599 109.567 102.654C112.649 97.7078 111.485 90.6206 106.846 83.0519C102.222 75.5096 94.2187 67.6234 83.9197 61.2058C73.6207 54.7882 63.0148 51.0783 54.207 50.2514C45.3685 49.4216 38.4934 51.4996 35.4116 56.4454Z" fill="url(#paint11_linear_35_726)" stroke="url(#paint12_linear_35_726)" stroke-width="0.919726"/>
<path d="M39.3032 50.2003C36.2214 55.146 37.3853 62.2333 42.0246 69.8019C46.6478 77.3443 54.6514 85.2305 64.9504 91.6481C75.2494 98.0657 85.8553 101.776 94.6632 102.602C103.502 103.432 110.377 101.354 113.459 96.4085C116.54 91.4627 115.376 84.3754 110.737 76.8068C106.114 69.2644 98.1103 61.3783 87.8113 54.9607C77.5123 48.5431 66.9064 44.8331 58.0986 44.0063C49.2601 43.1765 42.385 45.2545 39.3032 50.2003Z" fill="url(#paint13_linear_35_726)" stroke="url(#paint14_linear_35_726)" stroke-width="0.919726"/>
<path d="M43.1943 43.9552C40.1125 48.9009 41.2764 55.9882 45.9157 63.5568C50.5389 71.0992 58.5425 78.9853 68.8415 85.4029C79.1405 91.8206 89.7464 95.5305 98.5543 96.3574C107.393 97.1871 114.268 95.1092 117.35 90.1634C120.431 85.2176 119.268 78.1303 114.628 70.5617C110.005 63.0193 102.001 55.1332 91.7024 48.7156C81.4034 42.298 70.7975 38.588 61.9897 37.7612C53.1512 36.9314 46.2762 39.0094 43.1943 43.9552Z" fill="url(#paint15_linear_35_726)" stroke="url(#paint16_linear_35_726)" stroke-width="0.919726"/>
<path d="M47.0849 37.7113C44.0031 42.657 45.167 49.7443 49.8063 57.3129C54.4295 64.8553 62.4331 72.7414 72.7321 79.1591C83.0312 85.5767 93.637 89.2866 102.445 90.1135C111.283 90.9432 118.158 88.8653 121.24 83.9195C124.322 78.9737 123.158 71.8864 118.519 64.3178C113.896 56.7754 105.892 48.8893 95.5931 42.4717C85.294 36.0541 74.6881 32.3441 65.8803 31.5173C57.0418 30.6875 50.1668 32.7655 47.0849 37.7113Z" fill="url(#paint17_linear_35_726)" stroke="url(#paint18_linear_35_726)" stroke-width="0.919726"/>
<path d="M50.9765 31.4663C47.8947 36.412 49.0586 43.4993 53.6979 51.0679C58.3211 58.6103 66.3247 66.4964 76.6237 72.9141C86.9228 79.3317 97.5286 83.0416 106.336 83.8685C115.175 84.6982 122.05 82.6203 125.132 77.6745C128.214 72.7287 127.05 65.6414 122.41 58.0728C117.787 50.5304 109.784 42.6443 99.4847 36.2267C89.1856 29.8091 78.5797 26.0991 69.7719 25.2723C60.9334 24.4425 54.0584 26.5205 50.9765 31.4663Z" fill="url(#paint19_linear_35_726)" stroke="url(#paint20_linear_35_726)" stroke-width="0.919726"/>
<path d="M54.8677 25.2221C51.7858 30.1679 52.9497 37.2552 57.589 44.8238C62.2122 52.3662 70.2158 60.2523 80.5149 66.6699C90.8139 73.0875 101.42 76.7975 110.228 77.6243C119.066 78.4541 125.941 76.3761 129.023 71.4303C132.105 66.4846 130.941 59.3973 126.302 51.8287C121.678 44.2863 113.675 36.4002 103.376 29.9826C93.0767 23.5649 82.4709 19.855 73.663 19.0281C64.8245 18.1984 57.9495 20.2763 54.8677 25.2221Z" fill="url(#paint21_linear_35_726)" stroke="url(#paint22_linear_35_726)" stroke-width="0.919726"/>
<path d="M58.7588 18.9774C55.6769 23.9231 56.8408 31.0104 61.4801 38.579C66.1033 46.1214 74.1069 54.0076 84.406 60.4252C94.705 66.8428 105.311 70.5527 114.119 71.3796C122.957 72.2093 129.832 70.1314 132.914 65.1856C135.996 60.2398 134.832 53.1525 130.193 45.5839C125.57 38.0415 117.566 30.1554 107.267 23.7378C96.9678 17.3202 86.362 13.6102 77.5541 12.7834C68.7157 11.9536 61.8406 14.0316 58.7588 18.9774Z" stroke="url(#paint23_linear_35_726)" stroke-width="0.919726"/>
<defs>
<linearGradient id="paint0_linear_35_726" x1="45.9027" y1="148.039" x2="16.3832" y2="85.9669" gradientUnits="userSpaceOnUse">
<stop stop-color="white"/>
<stop offset="1" stop-color="white" stop-opacity="0"/>
</linearGradient>
<linearGradient id="paint1_linear_35_726" x1="1.84002" y1="92.091" x2="35.2409" y2="58.0478" gradientUnits="userSpaceOnUse">
<stop stop-color="#0D2B13" stop-opacity="0.7"/>
<stop offset="0.927083" stop-color="#55FF79"/>
</linearGradient>
<linearGradient id="paint2_linear_35_726" x1="64.7069" y1="92.0387" x2="41.3595" y2="129.507" gradientUnits="userSpaceOnUse">
<stop stop-color="white"/>
<stop offset="1" stop-color="white" stop-opacity="0"/>
</linearGradient>
<linearGradient id="paint3_linear_35_726" x1="5.73163" y1="85.8459" x2="39.1325" y2="51.8027" gradientUnits="userSpaceOnUse">
<stop stop-color="#0D2B13" stop-opacity="0.7"/>
<stop offset="0.927083" stop-color="#55FF79"/>
</linearGradient>
<linearGradient id="paint4_linear_35_726" x1="68.5985" y1="85.7936" x2="45.2511" y2="123.262" gradientUnits="userSpaceOnUse">
<stop stop-color="white"/>
<stop offset="1" stop-color="white" stop-opacity="0"/>
</linearGradient>
<linearGradient id="paint5_linear_35_726" x1="9.62225" y1="79.602" x2="43.0231" y2="45.5588" gradientUnits="userSpaceOnUse">
<stop stop-color="#0D2B13" stop-opacity="0.7"/>
<stop offset="0.927083" stop-color="#55FF79"/>
</linearGradient>
<linearGradient id="paint6_linear_35_726" x1="72.4891" y1="79.5497" x2="49.1418" y2="117.018" gradientUnits="userSpaceOnUse">
<stop stop-color="white"/>
<stop offset="1" stop-color="white" stop-opacity="0"/>
</linearGradient>
<linearGradient id="paint7_linear_35_726" x1="13.5139" y1="73.3568" x2="46.9147" y2="39.3137" gradientUnits="userSpaceOnUse">
<stop stop-color="#0D2B13" stop-opacity="0.7"/>
<stop offset="0.927083" stop-color="#55FF79"/>
</linearGradient>
<linearGradient id="paint8_linear_35_726" x1="76.3807" y1="73.3045" x2="53.0334" y2="110.772" gradientUnits="userSpaceOnUse">
<stop stop-color="white"/>
<stop offset="1" stop-color="white" stop-opacity="0"/>
</linearGradient>
<linearGradient id="paint9_linear_35_726" x1="17.405" y1="67.1118" x2="50.8058" y2="33.0687" gradientUnits="userSpaceOnUse">
<stop stop-color="#0D2B13" stop-opacity="0.7"/>
<stop offset="0.927083" stop-color="#55FF79"/>
</linearGradient>
<linearGradient id="paint10_linear_35_726" x1="80.2718" y1="67.0595" x2="56.9245" y2="104.527" gradientUnits="userSpaceOnUse">
<stop stop-color="white"/>
<stop offset="1" stop-color="white" stop-opacity="0"/>
</linearGradient>
<linearGradient id="paint11_linear_35_726" x1="21.2961" y1="60.8678" x2="54.6969" y2="26.8247" gradientUnits="userSpaceOnUse">
<stop stop-color="#0D2B13" stop-opacity="0.7"/>
<stop offset="0.927083" stop-color="#55FF79"/>
</linearGradient>
<linearGradient id="paint12_linear_35_726" x1="84.1629" y1="60.8155" x2="60.8156" y2="98.2835" gradientUnits="userSpaceOnUse">
<stop stop-color="white"/>
<stop offset="1" stop-color="white" stop-opacity="0"/>
</linearGradient>
<linearGradient id="paint13_linear_35_726" x1="25.1877" y1="54.6227" x2="58.5885" y2="20.5796" gradientUnits="userSpaceOnUse">
<stop stop-color="#0D2B13" stop-opacity="0.7"/>
<stop offset="0.927083" stop-color="#55FF79"/>
</linearGradient>
<linearGradient id="paint14_linear_35_726" x1="88.0545" y1="54.5704" x2="64.7072" y2="92.0384" gradientUnits="userSpaceOnUse">
<stop stop-color="white"/>
<stop offset="1" stop-color="white" stop-opacity="0"/>
</linearGradient>
<linearGradient id="paint15_linear_35_726" x1="29.0788" y1="48.3776" x2="62.4796" y2="14.3344" gradientUnits="userSpaceOnUse">
<stop stop-color="#0D2B13" stop-opacity="0.7"/>
<stop offset="0.927083" stop-color="#55FF79"/>
</linearGradient>
<linearGradient id="paint16_linear_35_726" x1="91.9456" y1="48.3253" x2="68.5983" y2="85.7932" gradientUnits="userSpaceOnUse">
<stop stop-color="white"/>
<stop offset="1" stop-color="white" stop-opacity="0"/>
</linearGradient>
<linearGradient id="paint17_linear_35_726" x1="32.9694" y1="42.1337" x2="66.3703" y2="8.09055" gradientUnits="userSpaceOnUse">
<stop stop-color="#0D2B13" stop-opacity="0.7"/>
<stop offset="0.927083" stop-color="#55FF79"/>
</linearGradient>
<linearGradient id="paint18_linear_35_726" x1="95.8363" y1="42.0814" x2="72.4889" y2="79.5493" gradientUnits="userSpaceOnUse">
<stop stop-color="white"/>
<stop offset="1" stop-color="white" stop-opacity="0"/>
</linearGradient>
<linearGradient id="paint19_linear_35_726" x1="36.861" y1="35.8887" x2="70.2619" y2="1.84556" gradientUnits="userSpaceOnUse">
<stop stop-color="#0D2B13" stop-opacity="0.7"/>
<stop offset="0.927083" stop-color="#55FF79"/>
</linearGradient>
<linearGradient id="paint20_linear_35_726" x1="99.7279" y1="35.8364" x2="76.3805" y2="73.3043" gradientUnits="userSpaceOnUse">
<stop stop-color="white"/>
<stop offset="1" stop-color="white" stop-opacity="0"/>
</linearGradient>
<linearGradient id="paint21_linear_35_726" x1="40.7521" y1="29.6446" x2="74.153" y2="-4.39858" gradientUnits="userSpaceOnUse">
<stop stop-color="#0D2B13" stop-opacity="0.7"/>
<stop offset="0.927083" stop-color="#55FF79"/>
</linearGradient>
<linearGradient id="paint22_linear_35_726" x1="103.619" y1="29.5923" x2="80.2717" y2="67.0602" gradientUnits="userSpaceOnUse">
<stop stop-color="white"/>
<stop offset="1" stop-color="white" stop-opacity="0"/>
</linearGradient>
<linearGradient id="paint23_linear_35_726" x1="73.1598" y1="66.175" x2="120.096" y2="8.06729" gradientUnits="userSpaceOnUse">
<stop stop-color="white"/>
<stop offset="1" stop-color="white" stop-opacity="0"/>
</linearGradient>
</defs>
</svg>
