<svg width="161" height="51" viewBox="0 0 161 51" fill="none" xmlns="http://www.w3.org/2000/svg">
<path d="M45.0004 47.1V47.7H81.1004V47.1H45.0004ZM159.9 44.7V49.9L155.5 44.7H154.6V50.7H155.3V45.5L159.7 50.7H160.6V44.7H159.9ZM152.4 45C152.3 44.9 152.2 44.8 152.1 44.8C152 44.7 151.8 44.7 151.7 44.7H147.7C147.4 44.7 147.2 44.8 147 45C146.8 45.2 146.7 45.4 146.7 45.7V49.7C146.7 50 146.8 50.2 147 50.4C147.2 50.6 147.4 50.7 147.7 50.7H151.7C152 50.7 152.2 50.6 152.4 50.4C152.6 50.2 152.7 50 152.7 49.7V45.7C152.7 45.5 152.6 45.2 152.4 45ZM152 49.8C152 49.9 152 50 151.9 50C151.8 50 151.8 50.1 151.7 50.1H147.7C147.6 50.1 147.5 50.1 147.5 50C147.5 49.9 147.4 49.9 147.4 49.8V45.8C147.4 45.7 147.4 45.6 147.5 45.6C147.6 45.6 147.6 45.5 147.7 45.5H151.7C151.8 45.5 151.9 45.5 151.9 45.6C151.9 45.7 152 45.7 152 45.8V49.8ZM143.9 44.7V50.7H144.6V44.7H143.9ZM136.4 44.7V45.4H139.1V50.7H139.8V45.4H142.5V44.7H136.4ZM134.5 45C134.4 44.9 134.3 44.8 134.2 44.8C134.1 44.7 133.9 44.7 133.8 44.7H129.8C129.5 44.7 129.3 44.8 129.1 45C128.9 45.2 128.8 45.4 128.8 45.7V50.7H129.5V48.5H134.2V50.7H134.9V45.7C134.8 45.5 134.7 45.2 134.5 45ZM134.1 47.9H129.4V45.8C129.4 45.7 129.4 45.6 129.5 45.6C129.6 45.6 129.6 45.5 129.7 45.5H133.7C133.8 45.5 133.9 45.5 133.9 45.6C133.9 45.7 134 45.7 134 45.8L134.1 47.9ZM126.6 45C126.5 44.9 126.4 44.8 126.3 44.8C126.2 44.7 126 44.7 125.9 44.7H120.9V50.7H125.9C126.2 50.7 126.4 50.6 126.6 50.4C126.8 50.2 126.9 50 126.9 49.7V45.7C126.9 45.5 126.8 45.2 126.6 45ZM126.2 49.8C126.2 49.9 126.2 50 126.1 50C126 50 126 50.1 125.9 50.1H121.9C121.8 50.1 121.7 50.1 121.7 50C121.7 49.9 121.6 49.9 121.6 49.8V45.8C121.6 45.7 121.6 45.6 121.7 45.6C121.8 45.5 121.8 45.5 121.9 45.5H125.9C126 45.5 126.1 45.5 126.1 45.6C126.1 45.7 126.2 45.7 126.2 45.8V49.8ZM118.3 44.7V49.9L113.9 44.7H113V50.7H113.7V45.5L118.1 50.7H119V44.7H118.3ZM110.4 44.7V49.7C110.4 49.8 110.4 49.9 110.3 49.9C110.2 49.9 110.2 50 110.1 50H106.1C106 50 105.9 50 105.9 49.9C105.9 49.8 105.8 49.8 105.8 49.7V44.7H105.1V49.7C105.1 50 105.2 50.2 105.4 50.4C105.6 50.6 105.8 50.7 106.1 50.7H110.1C110.4 50.7 110.6 50.6 110.8 50.4C111 50.2 111.1 50 111.1 49.7V44.7H110.4ZM103 45C102.9 44.9 102.8 44.8 102.7 44.8C102.6 44.7 102.4 44.7 102.3 44.7H98.3004C98.0004 44.7 97.8004 44.8 97.6004 45C97.4004 45.2 97.3004 45.4 97.3004 45.7V49.7C97.3004 50 97.4004 50.2 97.6004 50.4C97.8004 50.6 98.0004 50.7 98.3004 50.7H102.3C102.6 50.7 102.8 50.6 103 50.4C103.2 50.2 103.3 50 103.3 49.7V45.7C103.3 45.5 103.2 45.2 103 45ZM102.6 49.8C102.6 49.9 102.6 50 102.5 50C102.4 50 102.4 50.1 102.3 50.1H98.3004C98.2004 50.1 98.1004 50.1 98.1004 50C98.1004 49.9 98.0004 49.9 98.0004 49.8V45.8C98.0004 45.7 98.0004 45.6 98.1004 45.6C98.2004 45.6 98.2004 45.5 98.3004 45.5H102.3C102.4 45.5 102.5 45.5 102.5 45.6C102.5 45.7 102.6 45.7 102.6 45.8V49.8ZM95.8004 45.4V44.7H90.3004V50.7H91.0004V48H94.9004V47.3H91.0004V45.3H95.8004V45.4ZM154.6 25.6L160.5 18.5H158.4L153.1 24.8H148.6V18.5H147V32.7H148.6V26.4H153.2L158.5 32.7H160.6L154.6 25.6ZM135.6 18.5V32.7H137.2V18.5H135.6ZM113 18.5V20.1H119.3V32.7H120.9V20.1H127.2V18.5C127.2 18.5 113 18.5 113 18.5ZM103.8 26.7C104 26.5 104.2 26.2 104.3 25.9C104.4 25.6 104.5 25.3 104.5 25V20.8C104.5 20.5 104.4 20.2 104.3 19.9C104.2 19.6 104 19.3 103.8 19.1C103.6 18.9 103.3 18.7 103 18.6C102.7 18.5 102.4 18.4 102.1 18.4H90.3004V32.6H91.9004V27.3H97.9004L102.3 32.6H104.4L99.9004 27.3H102.1C102.4 27.3 102.7 27.3 103 27.2C103.3 27.1 103.6 26.9 103.8 26.7ZM92.7004 25.8C92.5004 25.8 92.3004 25.7 92.2004 25.6C92.0004 25.5 92.0004 25.3 92.0004 25.1V20.9C92.0004 20.7 92.1004 20.5 92.2004 20.4C92.3004 20.3 92.3004 20.3 92.4004 20.2C92.5004 20.2 92.6004 20.2 92.7004 20.2H102.2C102.3 20.2 102.4 20.2 102.5 20.2C102.6 20.2 102.7 20.3 102.7 20.4C102.8 20.5 102.8 20.5 102.9 20.6C102.9 20.7 103 20.8 102.9 20.9V25.1C102.9 25.2 102.9 25.3 102.9 25.4C102.9 25.5 102.8 25.6 102.7 25.6C102.6 25.7 102.6 25.7 102.5 25.8C102.4 25.8 102.3 25.9 102.2 25.8H92.7004ZM81.2004 20.1V18.5H68.2004V32.7H81.2004V31.1H69.9004V26.4H79.0004V24.8H69.9004V20.1H81.2004ZM46.8004 20.3C46.9004 20.2 46.9004 20.2 47.0004 20.1C47.1004 20.1 47.2004 20.1 47.3004 20.1H59.1004V18.5H47.3004C47.0004 18.5 46.7004 18.6 46.4004 18.7C46.1004 18.8 45.8004 19 45.6004 19.2C45.4004 19.4 45.2004 19.7 45.1004 20C45.0004 20.3 44.9004 20.6 44.9004 20.9V30.4C44.9004 30.7 45.0004 31 45.1004 31.3C45.2004 31.6 45.4004 31.9 45.6004 32.1C45.8004 32.3 46.1004 32.5 46.4004 32.6C46.7004 32.7 47.0004 32.8 47.3004 32.8H59.1004V31.2H47.3004C47.1004 31.2 46.9004 31.1 46.8004 31C46.7004 30.8 46.6004 30.5 46.6004 30.3V20.8C46.6004 20.6 46.6004 20.4 46.8004 20.3ZM34.9004 18.2C34.9004 18 34.8004 17.9 34.7004 17.8C34.6004 17.7 34.4004 17.6 34.2004 17.6C34.0004 17.6 33.9004 17.6 33.7004 17.7C33.6004 17.8 33.4004 17.9 33.4004 18L26.6004 31.3H9.20037L2.40037 18C2.40037 17.9 2.30037 17.8 2.30037 17.8C2.20037 17.7 2.20037 17.7 2.10037 17.6C2.00037 17.6 1.90037 17.5 1.90037 17.5C1.80037 17.5 1.70037 17.5 1.70037 17.5C1.50037 17.5 1.40037 17.6 1.30037 17.7C1.20037 17.8 1.10037 17.9 1.00037 18.1C0.400372 22.4 0.600372 26.8 1.70037 31C3.40037 37.7 7.60037 45.4 17.7004 50.3L18.0004 50.5L18.3004 50.3C28.4004 45.4 32.6004 37.7 34.3004 31C35.4004 26.9 35.6004 22.5 34.9004 18.2ZM3.10037 30.8C2.30037 27.5 2.00037 24.2 2.20037 20.8L8.10037 32.4L16.2004 48C12.9004 46.2 10.1004 43.7 7.80037 40.8C5.60037 37.8 4.00037 34.4 3.10037 30.8ZM17.9004 48.1L10.0004 32.8H25.9004L17.9004 48.1ZM32.8004 30.8C31.9004 34.4 30.3004 37.8 28.0004 40.8C25.7004 43.8 22.9004 46.2 19.7004 48L27.8004 32.4L33.7004 20.8C33.9004 24.2 33.6004 27.5 32.8004 30.8ZM29.7004 16.1L17.9004 12.5L6.20037 16.1C6.00037 16.2 5.90037 16.3 5.80037 16.5C5.70037 16.7 5.70037 16.9 5.70037 17C5.80037 17.2 5.90037 17.3 6.00037 17.4C6.20037 17.5 6.30037 17.5 6.50037 17.5L17.8004 14.1L29.2004 17.5C29.4004 17.5 29.6004 17.5 29.7004 17.4C29.9004 17.3 30.0004 17.2 30.0004 17C30.1004 16.8 30.0004 16.6 29.9004 16.5C30.0004 16.3 29.9004 16.2 29.7004 16.1Z" fill="white"/>
<path d="M115 6.60005H111L110.4 8.30005H109.4L112.3 0.300049H113.6L116.6 8.30005H115.7L115 6.60005ZM114.7 5.90005L113 1.00005L111.2 5.90005H114.7Z" fill="white"/>
<path d="M121.9 2.59985V8.19985H121.1L121.2 7.49985C120.9 8.09985 120.3 8.29985 119.4 8.29985C118.1 8.29985 117.4 7.59985 117.4 6.29985V2.59985H118.2V6.29985C118.2 6.79985 118.3 7.09985 118.5 7.29985C118.7 7.49985 119 7.59985 119.5 7.59985C120.1 7.59985 120.6 7.49985 120.8 7.19985C121 6.89985 121.2 6.49985 121.2 5.79985V2.59985H121.9Z" fill="white"/>
<path d="M128.1 0.300049V8.30005H127.3V7.60005C127 8.10005 126.4 8.40005 125.5 8.40005C124.6 8.40005 124.1 8.20005 123.7 7.80005C123.3 7.40005 123.2 6.60005 123.2 5.50005C123.2 4.40005 123.4 3.70005 123.7 3.30005C124 2.90005 124.6 2.70005 125.4 2.70005C126.4 2.70005 127 3.00005 127.2 3.50005V0.300049H128.1ZM125.7 3.20005C125.1 3.20005 124.7 3.30005 124.5 3.60005C124.3 3.90005 124.2 4.40005 124.2 5.30005C124.2 6.20005 124.3 6.90005 124.5 7.10005C124.7 7.30005 125.1 7.50005 125.7 7.50005C126.4 7.50005 126.8 7.40005 127 7.10005C127.2 6.80005 127.3 6.20005 127.3 5.20005C127.3 4.40005 127.2 3.90005 127 3.60005C126.8 3.30005 126.3 3.20005 125.7 3.20005Z" fill="white"/>
<path d="M130.401 0.300049V1.20005H129.601V0.300049H130.401ZM130.401 2.60005V8.20005H129.601V2.60005H130.401Z" fill="white"/>
<path d="M134.8 2.60005V3.30005H132.6V6.70005C132.6 7.30005 132.9 7.60005 133.4 7.60005C133.9 7.60005 134.2 7.30005 134.2 6.80005V6.50005V6.20005H135V6.60005C135 7.70005 134.5 8.30005 133.4 8.30005C132.3 8.30005 131.8 7.80005 131.8 6.90005V6.80005V3.30005H131V2.60005H131.8V1.30005H132.6V2.60005H134.8Z" fill="white"/>
<path d="M139.6 6.6H140.4V6.8C140.4 7.4 140.2 7.8 139.9 8C139.6 8.2 138.9 8.3 138 8.3C137 8.3 136.3 8.1 136 7.7C135.7 7.3 135.5 6.5 135.5 5.3C135.5 4.2 135.7 3.4 136 3.1C136.3 2.8 137 2.5 137.9 2.5C138.9 2.5 139.6 2.7 139.9 3C140.2 3.3 140.4 4 140.4 5.1V5.5H136.4C136.4 6.4 136.5 6.9 136.7 7.2C136.9 7.5 137.3 7.6 138 7.6C138.7 7.6 139.1 7.5 139.3 7.4C139.5 7.3 139.6 7 139.6 6.7V6.6V6.6ZM139.6 5V4.7C139.6 4.1 139.5 3.7 139.3 3.5C139.1 3.3 138.7 3.2 138 3.2C137.3 3.2 136.9 3.3 136.7 3.5C136.5 3.7 136.4 4.2 136.4 4.9H139.6V5Z" fill="white"/>
<path d="M146.4 0.300049V8.30005H145.6V7.60005C145.3 8.10005 144.7 8.40005 143.8 8.40005C142.9 8.40005 142.4 8.20005 142 7.80005C141.6 7.40005 141.5 6.60005 141.5 5.50005C141.5 4.40005 141.7 3.70005 142 3.30005C142.3 2.90005 142.9 2.70005 143.7 2.70005C144.7 2.70005 145.3 3.00005 145.5 3.50005V0.300049H146.4ZM144 3.20005C143.4 3.20005 143 3.30005 142.8 3.60005C142.6 3.90005 142.5 4.40005 142.5 5.30005C142.5 6.20005 142.6 6.90005 142.8 7.10005C143 7.30005 143.4 7.50005 144 7.50005C144.7 7.50005 145.1 7.40005 145.3 7.10005C145.5 6.80005 145.6 6.20005 145.6 5.20005C145.6 4.40005 145.5 3.90005 145.3 3.60005C145.1 3.30005 144.6 3.20005 144 3.20005Z" fill="white"/>
<path d="M150.9 8.19995V0.199951H151.7V3.29995C151.9 2.79995 152.5 2.49995 153.5 2.49995C154.3 2.49995 154.9 2.69995 155.2 3.09995C155.5 3.49995 155.7 4.29995 155.7 5.39995C155.7 6.49995 155.5 7.19995 155.2 7.59995C154.9 7.99995 154.3 8.19995 153.4 8.19995C152.5 8.19995 151.9 7.89995 151.6 7.39995V8.09995H150.9V8.19995ZM153.3 3.19995C152.7 3.19995 152.2 3.29995 152 3.59995C151.8 3.89995 151.7 4.39995 151.7 5.19995C151.7 6.19995 151.8 6.89995 152 7.09995C152.2 7.29995 152.7 7.49995 153.4 7.49995C154 7.49995 154.4 7.39995 154.6 7.09995C154.8 6.79995 154.9 6.19995 154.9 5.39995C154.9 4.49995 154.8 3.89995 154.6 3.59995C154.4 3.29995 154 3.19995 153.3 3.19995Z" fill="white"/>
<path d="M161 2.6L159.4 8.5C159.2 9.3 158.9 9.9 158.7 10.2C158.5 10.5 158 10.7 157.5 10.7C157.4 10.7 157.3 10.7 157.1 10.7V10C157.2 10 157.3 10 157.4 10C157.8 10 158.2 9.7 158.4 8.9L158.6 8.3C158.6 8.3 158.6 8.2 158.7 8.1H158.4L156.4 2.5H157.3L158.2 5L158.6 6.2L158.8 6.8L159 7.4V7L159.1 6.4L159.4 5.2L160 2.7H161V2.6Z" fill="white"/>
</svg>
