<svg fill="currentColor" id="Layer_1" xmlns="http://www.w3.org/2000/svg" xmlns:xlink="http://www.w3.org/1999/xlink" x="0px" y="0px" viewBox="0 0 161 51" xml:space="preserve" style="width: 150px; height: 50px;"><path d="M45,47.1v0.6h36.1v-0.6H45z M159.9,44.7v5.2l-4.4-5.2h-0.9v6h0.7v-5.2l4.4,5.2h0.9v-6H159.9z M152.4,45 c-0.1-0.1-0.2-0.2-0.3-0.2c-0.1-0.1-0.3-0.1-0.4-0.1h-4c-0.3,0-0.5,0.1-0.7,0.3s-0.3,0.4-0.3,0.7v4c0,0.3,0.1,0.5,0.3,0.7 s0.4,0.3,0.7,0.3h4c0.3,0,0.5-0.1,0.7-0.3s0.3-0.4,0.3-0.7v-4C152.7,45.5,152.6,45.2,152.4,45z M152,49.8c0,0.1,0,0.2-0.1,0.2 s-0.1,0.1-0.2,0.1h-4c-0.1,0-0.2,0-0.2-0.1s-0.1-0.1-0.1-0.2v-4c0-0.1,0-0.2,0.1-0.2s0.1-0.1,0.2-0.1h4c0.1,0,0.2,0,0.2,0.1 s0.1,0.1,0.1,0.2V49.8z M143.9,44.7v6h0.7v-6H143.9z M136.4,44.7v0.7h2.7v5.3h0.7v-5.3h2.7v-0.7H136.4L136.4,44.7z M134.5,45 c-0.1-0.1-0.2-0.2-0.3-0.2c-0.1-0.1-0.3-0.1-0.4-0.1h-4c-0.3,0-0.5,0.1-0.7,0.3s-0.3,0.4-0.3,0.7v5h0.7v-2.2h4.7v2.2h0.7v-5 C134.8,45.5,134.7,45.2,134.5,45z M134.1,47.9h-4.7v-2.1c0-0.1,0-0.2,0.1-0.2s0.1-0.1,0.2-0.1h4c0.1,0,0.2,0,0.2,0.1 s0.1,0.1,0.1,0.2L134.1,47.9L134.1,47.9z M126.6,45c-0.1-0.1-0.2-0.2-0.3-0.2c-0.1-0.1-0.3-0.1-0.4-0.1h-5v6h5 c0.3,0,0.5-0.1,0.7-0.3s0.3-0.4,0.3-0.7v-4C126.9,45.5,126.8,45.2,126.6,45z M126.2,49.8c0,0.1,0,0.2-0.1,0.2s-0.1,0.1-0.2,0.1h-4 c-0.1,0-0.2,0-0.2-0.1s-0.1-0.1-0.1-0.2v-4c0-0.1,0-0.2,0.1-0.2c0.1-0.1,0.1-0.1,0.2-0.1h4c0.1,0,0.2,0,0.2,0.1s0.1,0.1,0.1,0.2 V49.8z M118.3,44.7v5.2l-4.4-5.2H113v6h0.7v-5.2l4.4,5.2h0.9v-6H118.3z M110.4,44.7v5c0,0.1,0,0.2-0.1,0.2s-0.1,0.1-0.2,0.1h-4 c-0.1,0-0.2,0-0.2-0.1s-0.1-0.1-0.1-0.2v-5h-0.7v5c0,0.3,0.1,0.5,0.3,0.7c0.2,0.2,0.4,0.3,0.7,0.3h4c0.3,0,0.5-0.1,0.7-0.3 s0.3-0.4,0.3-0.7v-5H110.4L110.4,44.7z M103,45c-0.1-0.1-0.2-0.2-0.3-0.2c-0.1-0.1-0.3-0.1-0.4-0.1h-4c-0.3,0-0.5,0.1-0.7,0.3 s-0.3,0.4-0.3,0.7v4c0,0.3,0.1,0.5,0.3,0.7s0.4,0.3,0.7,0.3h4c0.3,0,0.5-0.1,0.7-0.3s0.3-0.4,0.3-0.7v-4 C103.3,45.5,103.2,45.2,103,45z M102.6,49.8c0,0.1,0,0.2-0.1,0.2s-0.1,0.1-0.2,0.1h-4c-0.1,0-0.2,0-0.2-0.1S98,49.9,98,49.8v-4 c0-0.1,0-0.2,0.1-0.2s0.1-0.1,0.2-0.1h4c0.1,0,0.2,0,0.2,0.1s0.1,0.1,0.1,0.2C102.6,45.8,102.6,49.8,102.6,49.8z M95.8,45.4v-0.7 h-5.5v6H91V48h3.9v-0.7H91v-2h4.8V45.4z M154.6,25.6l5.9-7.1h-2.1l-5.3,6.3h-4.5v-6.3H147v14.2h1.6v-6.3h4.6l5.3,6.3h2.1 C160.6,32.7,154.6,25.6,154.6,25.6z M135.6,18.5v14.2h1.6V18.5C137.2,18.5,135.6,18.5,135.6,18.5z M113,18.5v1.6h6.3v12.6h1.6V20.1 h6.3v-1.6C127.2,18.5,113,18.5,113,18.5z M103.8,26.7c0.2-0.2,0.4-0.5,0.5-0.8s0.2-0.6,0.2-0.9v-4.2c0-0.3-0.1-0.6-0.2-0.9 s-0.3-0.6-0.5-0.8s-0.5-0.4-0.8-0.5s-0.6-0.2-0.9-0.2H90.3v14.2h1.6v-5.3h6l4.4,5.3h2.1l-4.5-5.3h2.2c0.3,0,0.6,0,0.9-0.1 C103.3,27.1,103.6,26.9,103.8,26.7z M92.7,25.8c-0.2,0-0.4-0.1-0.5-0.2C92,25.5,92,25.3,92,25.1v-4.2c0-0.2,0.1-0.4,0.2-0.5 s0.1-0.1,0.2-0.2c0.1,0,0.2,0,0.3,0h9.5c0.1,0,0.2,0,0.3,0c0.1,0,0.2,0.1,0.2,0.2c0.1,0.1,0.1,0.1,0.2,0.2c0,0.1,0.1,0.2,0,0.3v4.2 c0,0.1,0,0.2,0,0.3c0,0.1-0.1,0.2-0.2,0.2c-0.1,0.1-0.1,0.1-0.2,0.2c-0.1,0-0.2,0.1-0.3,0C102.2,25.8,92.7,25.8,92.7,25.8z  M81.2,20.1v-1.6h-13v14.2h13v-1.6H69.9v-4.7H79v-1.6h-9.1v-4.7C69.9,20.1,81.2,20.1,81.2,20.1z M46.8,20.3c0.1-0.1,0.1-0.1,0.2-0.2 c0.1,0,0.2,0,0.3,0h11.8v-1.6H47.3c-0.3,0-0.6,0.1-0.9,0.2c-0.3,0.1-0.6,0.3-0.8,0.5s-0.4,0.5-0.5,0.8s-0.2,0.6-0.2,0.9v9.5 c0,0.3,0.1,0.6,0.2,0.9c0.1,0.3,0.3,0.6,0.5,0.8s0.5,0.4,0.8,0.5s0.6,0.2,0.9,0.2h11.8v-1.6H47.3c-0.2,0-0.4-0.1-0.5-0.2 c-0.1-0.2-0.2-0.5-0.2-0.7v-9.5C46.6,20.6,46.6,20.4,46.8,20.3z M34.9,18.2c0-0.2-0.1-0.3-0.2-0.4c-0.1-0.1-0.3-0.2-0.5-0.2 s-0.3,0-0.5,0.1c-0.1,0.1-0.3,0.2-0.3,0.3l-6.8,13.3H9.2L2.4,18c0-0.1-0.1-0.2-0.1-0.2c-0.1-0.1-0.1-0.1-0.2-0.2 c-0.1,0-0.2-0.1-0.2-0.1c-0.1,0-0.2,0-0.2,0c-0.2,0-0.3,0.1-0.4,0.2S1.1,17.9,1,18.1C0.4,22.4,0.6,26.8,1.7,31 c1.7,6.7,5.9,14.4,16,19.3l0.3,0.2l0.3-0.2c10.1-4.9,14.3-12.6,16-19.3C35.4,26.9,35.6,22.5,34.9,18.2z M3.1,30.8 c-0.8-3.3-1.1-6.6-0.9-10l5.9,11.6L16.2,48c-3.3-1.8-6.1-4.3-8.4-7.2C5.6,37.8,4,34.4,3.1,30.8z M17.9,48.1L10,32.8h15.9L17.9,48.1z  M32.8,30.8c-0.9,3.6-2.5,7-4.8,10s-5.1,5.4-8.3,7.2l8.1-15.6l5.9-11.6C33.9,24.2,33.6,27.5,32.8,30.8z M29.7,16.1l-11.8-3.6 L6.2,16.1c-0.2,0.1-0.3,0.2-0.4,0.4c-0.1,0.2-0.1,0.4-0.1,0.5c0.1,0.2,0.2,0.3,0.3,0.4c0.2,0.1,0.3,0.1,0.5,0.1l11.3-3.4l11.4,3.4 c0.2,0,0.4,0,0.5-0.1c0.2-0.1,0.3-0.2,0.3-0.4c0.1-0.2,0-0.4-0.1-0.5C30,16.3,29.9,16.2,29.7,16.1z"></path><g><path d="M115,6.6h-4l-0.6,1.7h-1l2.9-8h1.3l3,8h-0.9L115,6.6z M114.7,5.9L113,1l-1.8,4.9H114.7z"></path><path d="M121.9,2.6v5.6h-0.8l0.1-0.7l0,0c-0.3,0.6-0.9,0.8-1.8,0.8c-1.3,0-2-0.7-2-2V2.6h0.8v3.7c0,0.5,0.1,0.8,0.3,1 s0.5,0.3,1,0.3c0.6,0,1.1-0.1,1.3-0.4s0.4-0.7,0.4-1.4V2.6H121.9z"></path><path d="M128.1,0.3v8h-0.8l0-0.7l0,0c-0.3,0.5-0.9,0.8-1.8,0.8c-0.9,0-1.4-0.2-1.8-0.6s-0.5-1.2-0.5-2.3c0-1.1,0.2-1.8,0.5-2.2 s0.9-0.6,1.7-0.6c1,0,1.6,0.3,1.8,0.8l0,0V0.3H128.1z M125.7,3.2c-0.6,0-1,0.1-1.2,0.4s-0.3,0.8-0.3,1.7c0,0.9,0.1,1.6,0.3,1.8 s0.6,0.4,1.2,0.4c0.7,0,1.1-0.1,1.3-0.4s0.3-0.9,0.3-1.9c0-0.8-0.1-1.3-0.3-1.6S126.3,3.2,125.7,3.2z"></path><path d="M130.4,0.3v0.9h-0.8V0.3H130.4z M130.4,2.6v5.6h-0.8V2.6H130.4z"></path><path d="M134.8,2.6v0.7h-2.2v3.4c0,0.6,0.3,0.9,0.8,0.9c0.5,0,0.8-0.3,0.8-0.8l0-0.3l0-0.3h0.8l0,0.4c0,1.1-0.5,1.7-1.6,1.7 c-1.1,0-1.6-0.5-1.6-1.4V6.8V3.3H131V2.6h0.8V1.3h0.8v1.3H134.8z"></path><path d="M139.6,6.6h0.8l0,0.2c0,0.6-0.2,1-0.5,1.2s-1,0.3-1.9,0.3c-1,0-1.7-0.2-2-0.6s-0.5-1.2-0.5-2.4c0-1.1,0.2-1.9,0.5-2.2 s1-0.6,1.9-0.6c1,0,1.7,0.2,2,0.5s0.5,1,0.5,2.1v0.4h-4c0,0.9,0.1,1.4,0.3,1.7s0.6,0.4,1.3,0.4c0.7,0,1.1-0.1,1.3-0.2 s0.3-0.4,0.3-0.7V6.6z M139.6,5l0-0.3c0-0.6-0.1-1-0.3-1.2s-0.6-0.3-1.3-0.3c-0.7,0-1.1,0.1-1.3,0.3s-0.3,0.7-0.3,1.4H139.6z"></path><path d="M146.4,0.3v8h-0.8l0-0.7l0,0c-0.3,0.5-0.9,0.8-1.8,0.8c-0.9,0-1.4-0.2-1.8-0.6s-0.5-1.2-0.5-2.3c0-1.1,0.2-1.8,0.5-2.2 s0.9-0.6,1.7-0.6c1,0,1.6,0.3,1.8,0.8l0,0V0.3H146.4z M144,3.2c-0.6,0-1,0.1-1.2,0.4s-0.3,0.8-0.3,1.7c0,0.9,0.1,1.6,0.3,1.8 s0.6,0.4,1.2,0.4c0.7,0,1.1-0.1,1.3-0.4s0.3-0.9,0.3-1.9c0-0.8-0.1-1.3-0.3-1.6S144.6,3.2,144,3.2z"></path><path d="M150.9,8.2v-8h0.8v3.1l0,0c0.2-0.5,0.8-0.8,1.8-0.8c0.8,0,1.4,0.2,1.7,0.6s0.5,1.2,0.5,2.3c0,1.1-0.2,1.8-0.5,2.2 s-0.9,0.6-1.8,0.6c-0.9,0-1.5-0.3-1.8-0.8l0,0l0,0.7H150.9z M153.3,3.2c-0.6,0-1.1,0.1-1.3,0.4s-0.3,0.8-0.3,1.6 c0,1,0.1,1.7,0.3,1.9s0.7,0.4,1.4,0.4c0.6,0,1-0.1,1.2-0.4s0.3-0.9,0.3-1.7c0-0.9-0.1-1.5-0.3-1.8S154,3.2,153.3,3.2z"></path><path d="M161,2.6l-1.6,5.9c-0.2,0.8-0.5,1.4-0.7,1.7s-0.7,0.5-1.2,0.5c-0.1,0-0.2,0-0.4,0V10c0.1,0,0.2,0,0.3,0 c0.4,0,0.8-0.3,1-1.1l0.2-0.6c0,0,0-0.1,0.1-0.2h-0.3l-2-5.6h0.9l0.9,2.5l0.4,1.2l0.2,0.6l0.2,0.6h0L159,7l0.1-0.6l0.3-1.2l0.6-2.5 H161z"></path></g></svg>