<svg width="532" height="677" viewBox="0 0 532 677" fill="none" xmlns="http://www.w3.org/2000/svg">
<g style="mix-blend-mode:overlay" opacity="0.4">
<ellipse cx="37.2036" cy="37.1382" rx="37.2036" ry="37.1382" fill="#61FF7A"/>
<path fill-rule="evenodd" clip-rule="evenodd" d="M100.279 25.0469L100.279 0.000212C120.826 0.000212896 137.483 16.6276 137.483 37.1384C137.483 57.6493 120.826 74.2766 100.279 74.2766L100.279 49.2299C106.969 49.2299 112.392 43.8164 112.392 37.1384C112.392 30.4604 106.969 25.0469 100.279 25.0469Z" fill="#3FC833"/>
<rect x="269.774" width="74.4072" height="74.2764" fill="#61FF7A"/>
<path d="M210.54 -1.45578e-06L243.903 37.1382L210.54 74.2764L163.356 74.2764L163.356 -3.51466e-06L210.54 -1.45578e-06Z" fill="#36BE54"/>
<path d="M499.302 0L531.522 18.5691V55.7073L499.302 74.2764L467.083 55.7073V18.5691L499.302 0Z" fill="#9FEE98"/>
<path d="M403.692 0H370.054V25.6439H403.692C410.111 25.6439 415.319 30.8126 415.319 37.1382C415.319 43.4627 410.111 48.6325 403.692 48.6325H370.054V74.2764H403.692C424.371 74.2764 441.21 57.6294 441.21 37.1382C441.21 16.647 424.371 0 403.692 0Z" fill="#509D66"/>
<ellipse cx="37.2036" cy="278.091" rx="37.2036" ry="37.1382" fill="#3FC833"/>
<path fill-rule="evenodd" clip-rule="evenodd" d="M100.279 266L100.279 240.953C120.826 240.953 137.483 257.58 137.483 278.091C137.483 298.602 120.826 315.229 100.279 315.229L100.279 290.183C106.969 290.183 112.392 284.769 112.392 278.091C112.392 271.413 106.969 266 100.279 266Z" fill="#5D9E52"/>
<rect x="269.774" y="240.953" width="74.4072" height="74.2764" fill="#BFFABD"/>
<path d="M210.54 240.953L243.903 278.091L210.54 315.229L163.356 315.229L163.356 240.953L210.54 240.953Z" fill="#61FF7A"/>
<path d="M499.302 240.953L531.522 259.522V296.66L499.302 315.229L467.083 296.66V259.522L499.302 240.953Z" fill="#509D66"/>
<path d="M403.692 240.953H370.054V266.597H403.692C410.111 266.597 415.319 271.766 415.319 278.091C415.319 284.416 410.111 289.585 403.692 289.585H370.054V315.229H403.692C424.371 315.229 441.21 298.582 441.21 278.091C441.21 257.6 424.371 240.953 403.692 240.953Z" fill="#61FF7A"/>
<ellipse cx="37.2036" cy="519.044" rx="37.2036" ry="37.1382" fill="#61FF7A"/>
<path fill-rule="evenodd" clip-rule="evenodd" d="M100.279 506.953L100.279 481.906C120.826 481.906 137.483 498.534 137.483 519.044C137.483 539.555 120.826 556.183 100.279 556.183L100.279 531.136C106.969 531.136 112.392 525.722 112.392 519.044C112.392 512.366 106.969 506.953 100.279 506.953Z" fill="#61FF7A"/>
<rect x="269.774" y="481.906" width="74.4072" height="74.2764" fill="#9FEE98"/>
<path d="M210.54 481.906L243.903 519.044L210.54 556.182L163.356 556.182L163.356 481.906L210.54 481.906Z" fill="#36BE54"/>
<path d="M499.302 481.906L531.522 500.475V537.613L499.302 556.182L467.083 537.613V500.475L499.302 481.906Z" fill="#36BE54"/>
<path d="M403.692 481.906H370.054V507.55H403.692C410.111 507.55 415.319 512.718 415.319 519.044C415.319 525.369 410.111 530.538 403.692 530.538H370.054V556.182H403.692C424.371 556.182 441.21 539.535 441.21 519.044C441.21 498.553 424.371 481.906 403.692 481.906Z" fill="#61FF7A"/>
<ellipse rx="37.2036" ry="37.1382" transform="matrix(-1 0 0 1 494.318 157.615)" fill="#36BE54"/>
<path fill-rule="evenodd" clip-rule="evenodd" d="M431.241 145.523L431.241 120.476C410.694 120.476 394.038 137.104 394.038 157.615C394.038 178.126 410.694 194.753 431.241 194.753L431.241 169.706C424.551 169.706 419.128 164.293 419.128 157.615C419.128 150.937 424.551 145.523 431.241 145.523Z" fill="#61FF7A"/>
<rect width="74.4072" height="74.2764" transform="matrix(-1 0 0 1 261.747 120.477)" fill="#509D66"/>
<path d="M320.982 120.476L287.619 157.615L320.982 194.753L368.166 194.753L368.166 120.476L320.982 120.476Z" fill="#5D9E52"/>
<path d="M32.2192 120.477L-7.62939e-05 139.046V176.184L32.2192 194.753L64.4385 176.184V139.046L32.2192 120.477Z" fill="#BFFABD"/>
<path d="M127.829 120.477H161.467V146.12H127.829C121.41 146.12 116.202 151.289 116.202 157.615C116.202 163.939 121.41 169.109 127.829 169.109H161.467V194.753H127.829C107.15 194.753 90.3109 178.106 90.3109 157.615C90.3109 137.124 107.15 120.477 127.829 120.477Z" fill="#82F38D"/>
<ellipse rx="37.2036" ry="37.1382" transform="matrix(-1 0 0 1 494.318 398.568)" fill="#61FF7A"/>
<path fill-rule="evenodd" clip-rule="evenodd" d="M431.241 386.476L431.241 361.429C410.694 361.429 394.038 378.057 394.038 398.568C394.038 419.078 410.694 435.706 431.241 435.706L431.241 410.659C424.551 410.659 419.128 405.246 419.128 398.568C419.128 391.89 424.551 386.476 431.241 386.476Z" fill="#82F38D"/>
<rect width="74.4072" height="74.2764" transform="matrix(-1 0 0 1 261.747 361.429)" fill="#3FC833"/>
<path d="M320.982 361.429L287.619 398.568L320.982 435.706L368.166 435.706L368.166 361.429L320.982 361.429Z" fill="#509D66"/>
<path d="M32.2192 361.429L-7.62939e-05 379.999V417.137L32.2192 435.706L64.4385 417.137V379.999L32.2192 361.429Z" fill="#509D66"/>
<path d="M127.829 361.429H161.467V387.073H127.829C121.41 387.073 116.202 392.242 116.202 398.568C116.202 404.892 121.41 410.062 127.829 410.062H161.467V435.706H127.829C107.15 435.706 90.3109 419.059 90.3109 398.568C90.3109 378.076 107.15 361.429 127.829 361.429Z" fill="#9FEE98"/>
<ellipse rx="37.2036" ry="37.1382" transform="matrix(-1 0 0 1 494.318 639.521)" fill="#5D9E52"/>
<path fill-rule="evenodd" clip-rule="evenodd" d="M431.241 627.429L431.241 602.382C410.694 602.382 394.038 619.009 394.038 639.52C394.038 660.031 410.694 676.658 431.241 676.658L431.241 651.612C424.551 651.612 419.128 646.198 419.128 639.52C419.128 632.842 424.551 627.429 431.241 627.429Z" fill="#61FF7A"/>
<rect width="74.4072" height="74.2764" transform="matrix(-1 0 0 1 261.747 602.382)" fill="#82F38D"/>
<path d="M320.982 602.382L287.619 639.521L320.982 676.659L368.166 676.659L368.166 602.382L320.982 602.382Z" fill="#509D66"/>
<path d="M32.2192 602.382L-7.62939e-05 620.951V658.09L32.2192 676.659L64.4385 658.09V620.951L32.2192 602.382Z" fill="#5D9E52"/>
<path d="M127.829 602.382H161.467V628.026H127.829C121.41 628.026 116.202 633.195 116.202 639.521C116.202 645.845 121.41 651.015 127.829 651.015H161.467V676.659H127.829C107.15 676.659 90.3109 660.012 90.3109 639.521C90.3109 619.029 107.15 602.382 127.829 602.382Z" fill="#BFFABD"/>
</g>
</svg>
