<svg width="213" height="145" viewBox="0 0 213 145" fill="none" xmlns="http://www.w3.org/2000/svg">
<rect x="0.5" y="0.5" width="212" height="143.062" rx="14.5" fill="#FD3832" stroke="#414141"/>
<circle cx="106.5" cy="74.6821" r="29.6079" fill="white"/>
<g clip-path="url(#clip0_501_10)">
<path d="M115.39 61H99.48C95.9012 61 93 63.9012 93 67.48V83.39C93 86.9688 95.9012 89.87 99.48 89.87H115.39C118.969 89.87 121.87 86.9688 121.87 83.39V67.48C121.87 63.9012 118.969 61 115.39 61Z" fill="#FD3832"/>
<path fill-rule="evenodd" clip-rule="evenodd" d="M101 80.7701C100.712 80.6826 100.448 80.527 100.233 80.3164C100.017 80.1058 99.8549 79.8464 99.7604 79.5601C99.2204 78.0801 99.0604 71.9001 100.1 70.6801C100.447 70.2832 100.935 70.0389 101.46 70.0001C104.25 69.7001 112.87 69.7401 113.86 70.1001C114.139 70.1904 114.393 70.3426 114.605 70.5452C114.816 70.7478 114.978 70.9957 115.08 71.2701C115.67 72.8001 115.69 78.3601 115 79.8301C114.817 80.2127 114.511 80.5227 114.13 80.7101C113.09 81.2301 102.38 81.2201 101 80.7701ZM105.43 77.8701L110.43 75.2701L105.43 72.6501V77.8701Z" fill="white"/>
</g>
<defs>
<clipPath id="clip0_501_10">
<rect width="28.87" height="28.87" fill="white" transform="translate(93 61)"/>
</clipPath>
</defs>
</svg>
