<svg width="213" height="145" viewBox="0 0 213 145" fill="none" xmlns="http://www.w3.org/2000/svg">
<rect x="0.5" y="0.5" width="212" height="143.062" rx="14.5" fill="white" stroke="#414141"/>
<g clip-path="url(#clip0_501_9)">
<path d="M74.5283 91.4193V91.9597H107.041V91.4193H74.5283ZM178.01 89.2578V93.941L174.047 89.2578H173.236V94.6615H173.867V89.9783L177.829 94.6615H178.64V89.2578H178.01ZM171.255 89.528C171.165 89.4379 171.075 89.3479 170.985 89.3479C170.895 89.2578 170.715 89.2578 170.625 89.2578H167.022C166.752 89.2578 166.572 89.3479 166.392 89.528C166.211 89.7081 166.121 89.8883 166.121 90.1584V93.7609C166.121 94.0311 166.211 94.2112 166.392 94.3914C166.572 94.5715 166.752 94.6615 167.022 94.6615H170.625C170.895 94.6615 171.075 94.5715 171.255 94.3914C171.435 94.2112 171.525 94.0311 171.525 93.7609V90.1584C171.525 89.9783 171.435 89.7081 171.255 89.528ZM170.895 93.851C170.895 93.941 170.895 94.0311 170.805 94.0311C170.715 94.0311 170.715 94.1212 170.625 94.1212H167.022C166.932 94.1212 166.842 94.1212 166.842 94.0311C166.842 93.941 166.752 93.941 166.752 93.851V90.2485C166.752 90.1584 166.752 90.0684 166.842 90.0684C166.932 90.0684 166.932 89.9783 167.022 89.9783H170.625C170.715 89.9783 170.805 89.9783 170.805 90.0684C170.805 90.1584 170.895 90.1584 170.895 90.2485V93.851ZM163.6 89.2578V94.6615H164.23V89.2578H163.6ZM156.845 89.2578V89.8883H159.277V94.6615H159.907V89.8883H162.339V89.2578H156.845ZM155.134 89.528C155.044 89.4379 154.954 89.3479 154.864 89.3479C154.774 89.2578 154.593 89.2578 154.503 89.2578H150.901C150.631 89.2578 150.451 89.3479 150.271 89.528C150.09 89.7081 150 89.8883 150 90.1584V94.6615H150.631V92.6802H154.864V94.6615H155.494V90.1584C155.404 89.9783 155.314 89.7081 155.134 89.528ZM154.774 92.1398H150.541V90.2485C150.541 90.1584 150.541 90.0684 150.631 90.0684C150.721 90.0684 150.721 89.9783 150.811 89.9783H154.413C154.503 89.9783 154.593 89.9783 154.593 90.0684C154.593 90.1584 154.684 90.1584 154.684 90.2485L154.774 92.1398ZM148.019 89.528C147.929 89.4379 147.839 89.3479 147.749 89.3479C147.659 89.2578 147.479 89.2578 147.389 89.2578H142.885V94.6615H147.389C147.659 94.6615 147.839 94.5715 148.019 94.3914C148.199 94.2112 148.289 94.0311 148.289 93.7609V90.1584C148.289 89.9783 148.199 89.7081 148.019 89.528ZM147.659 93.851C147.659 93.941 147.659 94.0311 147.569 94.0311C147.479 94.0311 147.479 94.1212 147.389 94.1212H143.786C143.696 94.1212 143.606 94.1212 143.606 94.0311C143.606 93.941 143.516 93.941 143.516 93.851V90.2485C143.516 90.1584 143.516 90.0684 143.606 90.0684C143.696 89.9783 143.696 89.9783 143.786 89.9783H147.389C147.479 89.9783 147.569 89.9783 147.569 90.0684C147.569 90.1584 147.659 90.1584 147.659 90.2485V93.851ZM140.544 89.2578V93.941L136.581 89.2578H135.771V94.6615H136.401V89.9783L140.364 94.6615H141.174V89.2578H140.544ZM133.429 89.2578V93.7609C133.429 93.851 133.429 93.941 133.339 93.941C133.249 93.941 133.249 94.0311 133.159 94.0311H129.556C129.466 94.0311 129.376 94.0311 129.376 93.941C129.376 93.851 129.286 93.851 129.286 93.7609V89.2578H128.656V93.7609C128.656 94.0311 128.746 94.2112 128.926 94.3914C129.106 94.5715 129.286 94.6615 129.556 94.6615H133.159C133.429 94.6615 133.609 94.5715 133.789 94.3914C133.969 94.2112 134.059 94.0311 134.059 93.7609V89.2578H133.429ZM126.764 89.528C126.674 89.4379 126.584 89.3479 126.494 89.3479C126.404 89.2578 126.224 89.2578 126.134 89.2578H122.531C122.261 89.2578 122.081 89.3479 121.901 89.528C121.721 89.7081 121.631 89.8883 121.631 90.1584V93.7609C121.631 94.0311 121.721 94.2112 121.901 94.3914C122.081 94.5715 122.261 94.6615 122.531 94.6615H126.134C126.404 94.6615 126.584 94.5715 126.764 94.3914C126.944 94.2112 127.034 94.0311 127.034 93.7609V90.1584C127.034 89.9783 126.944 89.7081 126.764 89.528ZM126.404 93.851C126.404 93.941 126.404 94.0311 126.314 94.0311C126.224 94.0311 126.224 94.1212 126.134 94.1212H122.531C122.441 94.1212 122.351 94.1212 122.351 94.0311C122.351 93.941 122.261 93.941 122.261 93.851V90.2485C122.261 90.1584 122.261 90.0684 122.351 90.0684C122.441 90.0684 122.441 89.9783 122.531 89.9783H126.134C126.224 89.9783 126.314 89.9783 126.314 90.0684C126.314 90.1584 126.404 90.1584 126.404 90.2485V93.851ZM120.28 89.8883V89.2578H115.326V94.6615H115.957V92.2299H119.469V91.5994H115.957V89.7982H120.28V89.8883ZM173.236 72.056L178.55 65.6615H176.659L171.885 71.3355H167.833V65.6615H166.392V78.4504H167.833V72.7764H171.975L176.749 78.4504H178.64L173.236 72.056ZM156.125 65.6615V78.4504H157.566V65.6615H156.125ZM135.771 65.6615V67.1025H141.444V78.4504H142.885V67.1025H148.559V65.6615H135.771ZM127.485 73.0466C127.665 72.8665 127.845 72.5963 127.935 72.3261C128.025 72.0559 128.115 71.7858 128.115 71.5156V67.733C128.115 67.4628 128.025 67.1926 127.935 66.9224C127.845 66.6522 127.665 66.382 127.485 66.2019C127.305 66.0218 127.034 65.8417 126.764 65.7516C126.494 65.6615 126.224 65.5715 125.954 65.5715H115.326V78.3603H116.767V73.587H122.171L126.134 78.3603H128.025L123.972 73.587H125.954C126.224 73.587 126.494 73.587 126.764 73.4969C127.034 73.4069 127.305 73.2268 127.485 73.0466ZM117.488 72.2361C117.308 72.2361 117.128 72.146 117.038 72.056C116.857 71.9659 116.857 71.7858 116.857 71.6056V67.823C116.857 67.6429 116.948 67.4628 117.038 67.3727C117.128 67.2827 117.128 67.2827 117.218 67.1926C117.308 67.1926 117.398 67.1926 117.488 67.1926H126.044C126.134 67.1926 126.224 67.1926 126.314 67.1926C126.404 67.1926 126.494 67.2827 126.494 67.3727C126.584 67.4628 126.584 67.4628 126.674 67.5528C126.674 67.6429 126.764 67.733 126.674 67.823V71.6056C126.674 71.6957 126.674 71.7858 126.674 71.8758C126.674 71.9659 126.584 72.056 126.494 72.056C126.404 72.146 126.404 72.146 126.314 72.2361C126.224 72.2361 126.134 72.3261 126.044 72.2361H117.488ZM107.131 67.1025V65.6615H95.4227V78.4504H107.131V77.0094H96.9537V72.7764H105.149V71.3355H96.9537V67.1025H107.131ZM76.1494 67.2827C76.2394 67.1926 76.2394 67.1926 76.3295 67.1025C76.4196 67.1025 76.5096 67.1025 76.5997 67.1025H87.227V65.6615H76.5997C76.3295 65.6615 76.0593 65.7516 75.7891 65.8417C75.5189 65.9317 75.2488 66.1119 75.0686 66.292C74.8885 66.4721 74.7084 66.7423 74.6183 67.0125C74.5283 67.2827 74.4382 67.5528 74.4382 67.823V76.3789C74.4382 76.6491 74.5283 76.9193 74.6183 77.1895C74.7084 77.4597 74.8885 77.7299 75.0686 77.91C75.2488 78.0901 75.5189 78.2702 75.7891 78.3603C76.0593 78.4504 76.3295 78.5404 76.5997 78.5404H87.227V77.0994H76.5997C76.4196 77.0994 76.2394 77.0094 76.1494 76.9193C76.0593 76.7392 75.9693 76.469 75.9693 76.2889V67.733C75.9693 67.5528 75.9693 67.3727 76.1494 67.2827ZM65.432 65.3914C65.432 65.2112 65.3419 65.1212 65.2519 65.0311C65.1618 64.941 64.9817 64.851 64.8016 64.851C64.6214 64.851 64.5314 64.851 64.3512 64.941C64.2612 65.0311 64.0811 65.1212 64.0811 65.2112L57.9568 77.1895H42.286L36.1618 65.2112C36.1618 65.1212 36.0717 65.0311 36.0717 65.0311C35.9817 64.941 35.9817 64.941 35.8916 64.851C35.8016 64.851 35.7115 64.7609 35.7115 64.7609C35.6214 64.7609 35.5314 64.7609 35.5314 64.7609C35.3512 64.7609 35.2612 64.851 35.1711 64.941C35.0811 65.0311 34.991 65.1212 34.9009 65.3013C34.3606 69.174 34.5407 73.1367 35.5314 76.9193C37.0624 82.9535 40.845 89.8882 49.9413 94.3013L50.2115 94.4814L50.4817 94.3013C59.5779 89.8882 63.3606 82.9535 64.8916 76.9193C65.8823 73.2268 66.0624 69.264 65.432 65.3914ZM36.7922 76.7392C36.0717 73.7671 35.8016 70.7951 35.9817 67.733L41.2953 78.1802L48.5904 92.2299C45.6183 90.6087 43.0966 88.3572 41.0252 85.7454C39.0438 83.0435 37.6028 79.9814 36.7922 76.7392ZM50.1214 92.3199L43.0065 78.5404H57.3264L50.1214 92.3199ZM63.5407 76.7392C62.7301 79.9814 61.2891 83.0435 59.2177 85.7454C57.1463 88.4473 54.6245 90.6087 51.7425 92.2299L59.0376 78.1802L64.3512 67.733C64.5314 70.7951 64.2612 73.7671 63.5407 76.7392ZM60.7488 63.5L50.1214 60.2578L39.5842 63.5C39.404 63.5901 39.314 63.6802 39.2239 63.8603C39.1339 64.0404 39.1339 64.2205 39.1339 64.3106C39.2239 64.4907 39.314 64.5808 39.404 64.6709C39.5842 64.7609 39.6742 64.7609 39.8543 64.7609L50.0314 61.6988L60.2984 64.7609C60.4786 64.7609 60.6587 64.7609 60.7488 64.6709C60.9289 64.5808 61.0189 64.4907 61.0189 64.3106C61.109 64.1305 61.0189 63.9504 60.9289 63.8603C61.0189 63.6802 60.9289 63.5901 60.7488 63.5Z" fill="black"/>
<path d="M137.572 54.9434H133.969L133.429 56.4745H132.528L135.14 49.2695H136.311L139.013 56.4745H138.202L137.572 54.9434ZM137.302 54.313L135.771 49.9L134.149 54.313H137.302Z" fill="black"/>
<path d="M143.786 51.3413V56.3848H143.066L143.156 55.7544C142.886 56.2947 142.345 56.4748 141.535 56.4748C140.364 56.4748 139.733 55.8444 139.733 54.6736V51.3413H140.454V54.6736C140.454 55.1239 140.544 55.3941 140.724 55.5742C140.904 55.7544 141.174 55.8444 141.625 55.8444C142.165 55.8444 142.615 55.7544 142.796 55.4842C142.976 55.214 143.156 54.8537 143.156 54.2233V51.3413H143.786Z" fill="black"/>
<path d="M149.37 49.2695V56.4745H148.65V55.8441C148.379 56.2944 147.839 56.5646 147.028 56.5646C146.218 56.5646 145.768 56.3844 145.407 56.0242C145.047 55.6639 144.957 54.9434 144.957 53.9528C144.957 52.9621 145.137 52.3316 145.407 51.9714C145.678 51.6111 146.218 51.431 146.938 51.431C147.839 51.431 148.379 51.7012 148.56 52.1515V49.2695H149.37ZM147.209 51.8813C146.668 51.8813 146.308 51.9714 146.128 52.2416C145.948 52.5118 145.858 52.9621 145.858 53.7726C145.858 54.5832 145.948 55.2136 146.128 55.3938C146.308 55.5739 146.668 55.754 147.209 55.754C147.839 55.754 148.199 55.6639 148.379 55.3938C148.56 55.1236 148.65 54.5832 148.65 53.6826C148.65 52.9621 148.56 52.5118 148.379 52.2416C148.199 51.9714 147.749 51.8813 147.209 51.8813Z" fill="black"/>
<path d="M151.441 49.2695V50.0801H150.721V49.2695H151.441ZM151.441 51.341V56.3844H150.721V51.341H151.441Z" fill="black"/>
<path d="M155.404 51.3407V51.9712H153.422V55.0333C153.422 55.5736 153.693 55.8438 154.143 55.8438C154.593 55.8438 154.863 55.5736 154.863 55.1233V54.8532V54.583H155.584V54.9432C155.584 55.9339 155.134 56.4743 154.143 56.4743C153.152 56.4743 152.702 56.024 152.702 55.2134V55.1233V51.9712H151.981V51.3407H152.702V50.1699H153.422V51.3407H155.404Z" fill="black"/>
<path d="M159.727 54.9435H160.447V55.1236C160.447 55.664 160.267 56.0243 159.997 56.2044C159.727 56.3845 159.096 56.4746 158.286 56.4746C157.385 56.4746 156.755 56.2945 156.484 55.9342C156.214 55.574 156.034 54.8535 156.034 53.7727C156.034 52.782 156.214 52.0615 156.484 51.7913C156.755 51.5212 157.385 51.251 158.196 51.251C159.096 51.251 159.727 51.4311 159.997 51.7013C160.267 51.9715 160.447 52.6019 160.447 53.5926V53.9528H156.845C156.845 54.7634 156.935 55.2137 157.115 55.4839C157.295 55.7541 157.655 55.8441 158.286 55.8441C158.916 55.8441 159.276 55.7541 159.457 55.664C159.637 55.574 159.727 55.3038 159.727 55.0336V54.9435ZM159.727 53.5025V53.2323C159.727 52.692 159.637 52.3317 159.457 52.1516C159.276 51.9715 158.916 51.8814 158.286 51.8814C157.655 51.8814 157.295 51.9715 157.115 52.1516C156.935 52.3317 156.845 52.782 156.845 53.4125H159.727V53.5025Z" fill="black"/>
<path d="M165.852 49.2695V56.4745H165.131V55.8441C164.861 56.2944 164.32 56.5646 163.51 56.5646C162.699 56.5646 162.249 56.3844 161.889 56.0242C161.529 55.6639 161.438 54.9434 161.438 53.9528C161.438 52.9621 161.619 52.3316 161.889 51.9714C162.159 51.6111 162.699 51.431 163.42 51.431C164.32 51.431 164.861 51.7012 165.041 52.1515V49.2695H165.852ZM163.69 51.8813C163.15 51.8813 162.789 51.9714 162.609 52.2416C162.429 52.5118 162.339 52.9621 162.339 53.7726C162.339 54.5832 162.429 55.2136 162.609 55.3938C162.789 55.5739 163.15 55.754 163.69 55.754C164.32 55.754 164.681 55.6639 164.861 55.3938C165.041 55.1236 165.131 54.5832 165.131 53.6826C165.131 52.9621 165.041 52.5118 164.861 52.2416C164.681 51.9714 164.23 51.8813 163.69 51.8813Z" fill="black"/>
<path d="M169.904 56.3847V49.1797H170.625V51.9716C170.805 51.5213 171.345 51.2511 172.246 51.2511C172.966 51.2511 173.507 51.4312 173.777 51.7915C174.047 52.1517 174.227 52.8722 174.227 53.8629C174.227 54.8536 174.047 55.484 173.777 55.8443C173.507 56.2045 172.966 56.3847 172.156 56.3847C171.345 56.3847 170.805 56.1145 170.535 55.6642V56.2946H169.904V56.3847ZM172.066 51.8816C171.525 51.8816 171.075 51.9716 170.895 52.2418C170.715 52.512 170.625 52.9623 170.625 53.6828C170.625 54.5834 170.715 55.2138 170.895 55.394C171.075 55.5741 171.525 55.7542 172.156 55.7542C172.696 55.7542 173.056 55.6642 173.237 55.394C173.417 55.1238 173.507 54.5834 173.507 53.8629C173.507 53.0524 173.417 52.512 173.237 52.2418C173.056 51.9716 172.696 51.8816 172.066 51.8816Z" fill="black"/>
<path d="M179 51.341L177.559 56.6547C177.379 57.3752 177.109 57.9156 176.929 58.1858C176.749 58.4559 176.298 58.6361 175.848 58.6361C175.758 58.6361 175.668 58.6361 175.488 58.6361V58.0056C175.578 58.0056 175.668 58.0056 175.758 58.0056C176.118 58.0056 176.479 57.7354 176.659 57.015L176.839 56.4746C176.839 56.4746 176.839 56.3845 176.929 56.2945H176.659L174.857 51.251H175.668L176.479 53.5025L176.839 54.5833L177.019 55.1236L177.199 55.664V55.3038L177.289 54.7634L177.559 53.6827L178.1 51.4311H179V51.341Z" fill="black"/>
</g>
<defs>
<clipPath id="clip0_501_9">
<rect width="145" height="45.9317" fill="white" transform="translate(34 49)"/>
</clipPath>
</defs>
</svg>
