<svg width="176" height="713" viewBox="0 0 176 713" fill="none" xmlns="http://www.w3.org/2000/svg">
<path d="M153 0L154.76 18.4428L169.263 6.62611L157.25 20.8915L176 22.623L157.25 24.3544L169.263 38.6198L154.76 26.8031L153 45.2459L151.24 26.8031L136.737 38.6198L148.75 24.3544L130 22.623L148.75 20.8915L136.737 6.62611L151.24 18.4428L153 0Z" fill="white"/>
<path d="M34 695.988C27.331 696.594 23.4993 697.151 21.1469 698.993C18.3823 701.15 17.7275 705.1 17 713C16.2482 704.809 15.5692 700.883 12.5378 698.775C10.1854 697.127 6.37803 696.594 0 696.012C6.64479 695.406 10.5007 694.849 12.8288 693.031C15.6177 690.85 16.2725 686.924 17 679C17.679 686.294 18.2853 690.196 20.5407 692.45C22.796 694.703 26.7247 695.334 34 695.988Z" fill="white"/>
</svg>
