<svg width="599" height="844" viewBox="0 0 599 844" fill="none" xmlns="http://www.w3.org/2000/svg">
<g opacity="0.4">
<g opacity="0.5" filter="url(#filter0_f_967_1068)">
<path d="M237.937 492.312C253.173 492.312 265.524 479.961 265.524 464.725C265.524 449.489 253.173 437.138 237.937 437.138C222.701 437.138 210.35 449.489 210.35 464.725C210.35 479.961 222.701 492.312 237.937 492.312Z" fill="#AACB8F"/>
</g>
<g filter="url(#filter1_f_967_1068)">
<path d="M281.546 608.003C307.103 608.003 327.822 587.284 327.822 561.727C327.822 536.17 307.103 515.451 281.546 515.451C255.989 515.451 235.27 536.17 235.27 561.727C235.27 587.284 255.989 608.003 281.546 608.003Z" fill="#3F8A39"/>
</g>
<g filter="url(#filter2_f_967_1068)">
<path d="M281.546 506.551C307.103 506.551 327.822 485.833 327.822 460.276C327.822 434.718 307.103 414 281.546 414C255.989 414 235.27 434.718 235.27 460.276C235.27 485.833 255.989 506.551 281.546 506.551Z" fill="#228B10"/>
</g>
<g opacity="0.7" filter="url(#filter3_i_967_1068)">
<path d="M281.544 579.524C320.863 579.524 352.737 547.65 352.737 508.331C352.737 469.012 320.863 437.138 281.544 437.138C242.225 437.138 210.351 469.012 210.351 508.331C210.351 547.65 242.225 579.524 281.544 579.524Z" fill="#097200" fill-opacity="0.01"/>
</g>
<g filter="url(#filter4_i_967_1068)">
<path d="M281.544 579.524C320.863 579.524 352.737 547.65 352.737 508.331C352.737 469.012 320.863 437.138 281.544 437.138C242.225 437.138 210.351 469.012 210.351 508.331C210.351 547.65 242.225 579.524 281.544 579.524Z" fill="#097200" fill-opacity="0.01"/>
</g>
<path d="M281.544 579.053C320.603 579.053 352.267 547.389 352.267 508.33C352.267 469.271 320.603 437.607 281.544 437.607C242.485 437.607 210.821 469.271 210.821 508.33C210.821 547.389 242.485 579.053 281.544 579.053Z" stroke="url(#paint0_linear_967_1068)" stroke-width="0.940935"/>
<g filter="url(#filter5_f_967_1068)">
<path d="M281.544 576.701C319.304 576.701 349.914 546.09 349.914 508.33C349.914 470.57 319.304 439.96 281.544 439.96C243.784 439.96 213.173 470.57 213.173 508.33C213.173 546.09 243.784 576.701 281.544 576.701Z" stroke="url(#paint1_linear_967_1068)" stroke-width="5.64561"/>
<path d="M281.544 576.701C319.304 576.701 349.914 546.09 349.914 508.33C349.914 470.57 319.304 439.96 281.544 439.96C243.784 439.96 213.173 470.57 213.173 508.33C213.173 546.09 243.784 576.701 281.544 576.701Z" stroke="black" stroke-opacity="0.2" stroke-width="5.64561"/>
</g>
<g opacity="0.3" filter="url(#filter6_i_967_1068)">
<path d="M281.544 579.524C320.863 579.524 352.737 547.65 352.737 508.331C352.737 469.012 320.863 437.138 281.544 437.138C242.225 437.138 210.351 469.012 210.351 508.331C210.351 547.65 242.225 579.524 281.544 579.524Z" fill="#097200" fill-opacity="0.01"/>
</g>
<path d="M281.544 579.053C320.603 579.053 352.267 547.389 352.267 508.33C352.267 469.271 320.603 437.607 281.544 437.607C242.485 437.607 210.821 469.271 210.821 508.33C210.821 547.389 242.485 579.053 281.544 579.053Z" stroke="url(#paint2_linear_967_1068)" stroke-width="0.940935"/>
<g opacity="0.7" filter="url(#filter7_f_967_1068)">
<path d="M245.742 488.545C249.56 492.363 257.835 490.279 264.224 483.889C270.613 477.5 272.698 469.225 268.88 465.407C265.062 461.589 256.787 463.674 250.398 470.063C244.009 476.452 241.924 484.727 245.742 488.545Z" fill="#097200"/>
</g>
<g opacity="0.7" filter="url(#filter8_f_967_1068)">
<path d="M212.705 520.202C206.263 544.604 208.123 566.255 216.859 568.562C225.596 570.868 237.901 552.956 244.343 528.554C250.785 504.152 248.925 482.5 240.189 480.194C231.452 477.887 219.147 495.799 212.705 520.202Z" fill="#097200"/>
</g>
<g opacity="0.35" filter="url(#filter9_f_967_1068)">
<path d="M304.243 563.712C307.932 567.402 317.044 564.271 324.595 556.72C332.146 549.169 335.277 540.057 331.587 536.368C327.898 532.678 318.786 535.809 311.235 543.36C303.684 550.911 300.553 560.023 304.243 563.712Z" fill="#AFFF9B"/>
</g>
<g filter="url(#filter10_f_967_1068)">
<path d="M263.748 440.3C240.726 446.307 222.301 463.689 214.836 486.083H214.802V483.502C222.854 461.866 241.125 445.203 263.748 439.381V440.3Z" fill="#BEDFB9"/>
</g>
<g filter="url(#filter11_f_967_1068)">
<path d="M236.184 457.912C240.676 454.091 243.544 450.083 242.589 448.959C241.634 447.836 237.217 450.023 232.724 453.844C228.232 457.665 225.364 461.673 226.319 462.796C227.274 463.92 231.691 461.733 236.184 457.912Z" fill="#097200"/>
</g>
<g opacity="0.7" filter="url(#filter12_f_967_1068)">
<path d="M238.352 460.46C248.48 451.847 254.945 442.811 252.791 440.28C250.638 437.748 240.682 442.678 230.554 451.291C220.426 459.905 213.961 468.94 216.115 471.472C218.268 474.004 228.224 469.074 238.352 460.46Z" fill="#097200"/>
</g>
<g filter="url(#filter13_f_967_1068)">
<path d="M329.624 563.811C334.116 559.99 336.984 555.982 336.029 554.859C335.074 553.736 330.657 555.923 326.164 559.744C321.672 563.565 318.804 567.573 319.759 568.696C320.714 569.819 325.131 567.632 329.624 563.811Z" fill="#097200"/>
</g>
<g filter="url(#filter14_f_967_1068)">
<path d="M237.077 458.961C240.605 455.961 242.29 452.148 240.842 450.445C239.393 448.742 235.36 449.794 231.833 452.794C228.305 455.794 226.62 459.606 228.068 461.309C229.517 463.012 233.55 461.961 237.077 458.961Z" fill="white"/>
</g>
<path opacity="0.6" d="M357.653 510.14C357.653 552.727 322.766 587.264 279.715 587.264C236.664 587.264 201.778 552.727 201.778 510.14C201.778 467.553 236.664 433.016 279.715 433.016C322.766 433.016 357.653 467.553 357.653 510.14Z" stroke="#097200" stroke-width="1.48748"/>
<path opacity="0.3" d="M361.633 510.412C361.633 556.145 324.115 593.233 277.816 593.233C231.518 593.233 194 556.145 194 510.412C194 464.679 231.518 427.59 277.816 427.59C324.115 427.59 361.633 464.679 361.633 510.412Z" stroke="#097200" stroke-width="1.48748"/>
<path opacity="0.12" d="M366.158 508.24C366.158 555.278 327.945 593.413 280.804 593.413C233.663 593.413 195.45 555.278 195.45 508.24C195.45 461.202 233.663 423.067 280.804 423.067C327.945 423.067 366.158 461.202 366.158 508.24Z" stroke="#097200" stroke-width="1.48748"/>
</g>
<g opacity="0.4">
<g opacity="0.5" filter="url(#filter15_f_967_1068)">
<path d="M293.827 290.593C305.616 290.593 315.172 281.036 315.172 269.248C315.172 257.459 305.616 247.902 293.827 247.902C282.038 247.902 272.482 257.459 272.482 269.248C272.482 281.036 282.038 290.593 293.827 290.593Z" fill="#AACB8F"/>
</g>
<g filter="url(#filter16_f_967_1068)">
<path d="M327.569 380.107C347.344 380.107 363.374 364.077 363.374 344.302C363.374 324.528 347.344 308.497 327.569 308.497C307.794 308.497 291.764 324.528 291.764 344.302C291.764 364.077 307.794 380.107 327.569 380.107Z" fill="#3F8A39"/>
</g>
<g filter="url(#filter17_f_967_1068)">
<path d="M327.569 301.61C347.344 301.61 363.374 285.58 363.374 265.805C363.374 246.031 347.344 230 327.569 230C307.794 230 291.764 246.031 291.764 265.805C291.764 285.58 307.794 301.61 327.569 301.61Z" fill="#228B10"/>
</g>
<g opacity="0.7" filter="url(#filter18_i_967_1068)">
<path d="M327.567 358.071C357.99 358.071 382.652 333.409 382.652 302.986C382.652 272.564 357.99 247.901 327.567 247.901C297.144 247.901 272.482 272.564 272.482 302.986C272.482 333.409 297.144 358.071 327.567 358.071Z" fill="#097200" fill-opacity="0.01"/>
</g>
<g filter="url(#filter19_i_967_1068)">
<path d="M327.567 358.071C357.99 358.071 382.652 333.409 382.652 302.986C382.652 272.564 357.99 247.901 327.567 247.901C297.144 247.901 272.482 272.564 272.482 302.986C272.482 333.409 297.144 358.071 327.567 358.071Z" fill="#097200" fill-opacity="0.01"/>
</g>
<path d="M327.567 357.601C357.73 357.601 382.181 333.149 382.181 302.987C382.181 272.824 357.73 248.372 327.567 248.372C297.404 248.372 272.953 272.824 272.953 302.987C272.953 333.149 297.404 357.601 327.567 357.601Z" stroke="url(#paint3_linear_967_1068)" stroke-width="0.940935"/>
<g filter="url(#filter20_f_967_1068)">
<path d="M327.567 355.248C356.431 355.248 379.829 331.849 379.829 302.986C379.829 274.122 356.431 250.724 327.567 250.724C298.703 250.724 275.305 274.122 275.305 302.986C275.305 331.849 298.703 355.248 327.567 355.248Z" stroke="url(#paint4_linear_967_1068)" stroke-width="5.64561"/>
<path d="M327.567 355.248C356.431 355.248 379.829 331.849 379.829 302.986C379.829 274.122 356.431 250.724 327.567 250.724C298.703 250.724 275.305 274.122 275.305 302.986C275.305 331.849 298.703 355.248 327.567 355.248Z" stroke="black" stroke-opacity="0.2" stroke-width="5.64561"/>
</g>
<g opacity="0.3" filter="url(#filter21_i_967_1068)">
<path d="M327.567 358.071C357.99 358.071 382.652 333.409 382.652 302.986C382.652 272.564 357.99 247.901 327.567 247.901C297.144 247.901 272.482 272.564 272.482 302.986C272.482 333.409 297.144 358.071 327.567 358.071Z" fill="#097200" fill-opacity="0.01"/>
</g>
<path d="M327.567 357.601C357.73 357.601 382.181 333.149 382.181 302.987C382.181 272.824 357.73 248.372 327.567 248.372C297.404 248.372 272.953 272.824 272.953 302.987C272.953 333.149 297.404 357.601 327.567 357.601Z" stroke="url(#paint5_linear_967_1068)" stroke-width="0.940935"/>
<g opacity="0.7" filter="url(#filter22_f_967_1068)">
<path d="M299.866 287.677C302.82 290.631 309.222 289.019 314.166 284.075C319.11 279.131 320.722 272.729 317.768 269.775C314.814 266.821 308.412 268.433 303.468 273.377C298.524 278.321 296.911 284.723 299.866 287.677Z" fill="#097200"/>
</g>
<g opacity="0.7" filter="url(#filter23_f_967_1068)">
<path d="M274.303 312.171C269.319 331.052 270.758 347.805 277.517 349.59C284.277 351.374 293.798 337.515 298.783 318.634C303.767 299.753 302.328 283.001 295.569 281.216C288.809 279.431 279.288 293.291 274.303 312.171Z" fill="#097200"/>
</g>
<g opacity="0.35" filter="url(#filter24_f_967_1068)">
<path d="M345.13 345.837C347.985 348.691 355.035 346.269 360.878 340.427C366.72 334.585 369.142 327.534 366.288 324.68C363.433 321.825 356.383 324.247 350.54 330.089C344.698 335.932 342.276 342.982 345.13 345.837Z" fill="#AFFF9B"/>
</g>
<g filter="url(#filter25_f_967_1068)">
<path d="M313.797 250.349C295.985 254.996 281.728 268.446 275.952 285.773H275.926V283.775C282.157 267.035 296.293 254.142 313.797 249.637V250.349Z" fill="#BEDFB9"/>
</g>
<g filter="url(#filter26_f_967_1068)">
<path d="M292.47 263.976C295.946 261.019 298.165 257.918 297.426 257.049C296.687 256.18 293.27 257.872 289.794 260.829C286.318 263.785 284.099 266.886 284.838 267.755C285.577 268.624 288.994 266.932 292.47 263.976Z" fill="#097200"/>
</g>
<g opacity="0.7" filter="url(#filter27_f_967_1068)">
<path d="M294.148 265.947C301.984 259.282 306.986 252.291 305.32 250.332C303.654 248.373 295.95 252.188 288.114 258.852C280.278 265.517 275.276 272.508 276.942 274.467C278.608 276.426 286.312 272.612 294.148 265.947Z" fill="#097200"/>
</g>
<g filter="url(#filter28_f_967_1068)">
<path d="M364.768 345.913C368.244 342.957 370.463 339.855 369.724 338.986C368.985 338.117 365.568 339.81 362.092 342.766C358.616 345.722 356.397 348.824 357.136 349.693C357.875 350.562 361.292 348.87 364.768 345.913Z" fill="#097200"/>
</g>
<g filter="url(#filter29_f_967_1068)">
<path d="M293.162 264.786C295.891 262.465 297.195 259.515 296.075 258.198C294.954 256.88 291.833 257.694 289.104 260.015C286.375 262.336 285.071 265.286 286.191 266.604C287.312 267.921 290.433 267.108 293.162 264.786Z" fill="white"/>
</g>
<path opacity="0.6" d="M386.288 304.386C386.288 337.242 359.372 363.891 326.153 363.891C292.934 363.891 266.018 337.242 266.018 304.386C266.018 271.529 292.934 244.88 326.153 244.88C359.372 244.88 386.288 271.529 386.288 304.386Z" stroke="#097200" stroke-width="1.48748"/>
<path opacity="0.3" d="M389.367 304.597C389.367 339.887 360.416 368.511 324.684 368.511C288.952 368.511 260 339.887 260 304.597C260 269.307 288.952 240.683 324.684 240.683C360.416 240.683 389.367 269.307 389.367 304.597Z" stroke="#097200" stroke-width="1.48748"/>
<path opacity="0.12" d="M392.868 302.917C392.868 339.219 363.378 368.65 326.995 368.65C290.613 368.65 261.122 339.219 261.122 302.917C261.122 266.615 290.613 237.184 326.995 237.184C363.378 237.184 392.868 266.615 392.868 302.917Z" stroke="#097200" stroke-width="1.48748"/>
</g>
<path fill-rule="evenodd" clip-rule="evenodd" d="M328.807 265.789C329.548 267.215 329.699 269.831 329.837 272.223C329.872 272.821 329.905 273.405 329.947 273.953C330.749 284.36 332.459 296.875 337.705 303.317C340.92 307.267 347.328 308.845 354.014 310.492L354.015 310.492L354.016 310.493L354.017 310.493L354.018 310.493C354.551 310.624 355.085 310.756 355.62 310.889V310.886C358.103 311.507 359.991 312.14 360.359 313.704C353.335 315.236 340.268 316.791 326.715 317.208V317.208L326.713 317.208L326.712 317.208V317.208C313.159 316.791 300.091 315.236 293.068 313.704C293.436 312.14 295.324 311.507 297.807 310.886V310.889C298.342 310.756 298.877 310.624 299.411 310.492L299.411 310.492L299.412 310.492L299.413 310.492C306.098 308.845 312.506 307.267 315.721 303.317C320.968 296.875 322.678 284.36 323.479 273.953C323.521 273.405 323.555 272.821 323.59 272.223V272.223L323.59 272.223C323.726 269.854 323.876 267.265 324.598 265.83C324.963 264.751 325.771 264 326.71 264C327.636 264 328.436 264.732 328.807 265.789ZM326.716 342.658C326.808 342.658 326.901 342.658 326.993 342.651C330.29 342.469 332.568 337.945 333.974 335.152L334.011 335.078C334.468 334.17 334.9 333.262 335.324 332.367C336.525 329.839 337.671 327.427 339.18 325.476C342.011 321.821 347.675 319.717 352.663 318.275C352.909 318.203 353.283 318.12 353.735 318.019C355.818 317.553 359.574 316.714 360.291 314.946L360.289 314.946C359.91 315.023 344.271 318.182 326.712 318.96C309.153 318.182 293.514 315.023 293.135 314.946H293.135L293.133 314.946C293.85 316.714 297.606 317.553 299.689 318.019C300.142 318.12 300.516 318.203 300.762 318.275C305.75 319.717 311.413 321.821 314.245 325.476C315.754 327.427 316.9 329.839 318.1 332.367C318.525 333.262 318.957 334.17 319.414 335.078L319.451 335.152C320.857 337.945 323.134 342.469 326.431 342.651C326.524 342.658 326.616 342.658 326.709 342.658H326.712H326.716ZM360.416 314.418L360.416 314.418C360.418 314.387 360.421 314.356 360.421 314.32H360.425V314.397C360.425 314.409 360.421 314.42 360.418 314.431L360.418 314.431L360.417 314.436L360.415 314.444C360.414 314.448 360.413 314.452 360.412 314.456C360.413 314.443 360.414 314.43 360.416 314.418ZM360.412 314.465L360.412 314.456C360.412 314.459 360.412 314.462 360.412 314.465ZM293.003 314.319C293.003 314.355 293.006 314.386 293.009 314.417C293.01 314.429 293.011 314.442 293.012 314.455C293.011 314.446 293.009 314.438 293.006 314.43C293.003 314.419 293 314.407 293 314.396V314.319H293.003ZM293.013 314.464C293.013 314.461 293.013 314.458 293.012 314.455L293.013 314.464Z" fill="url(#paint6_linear_967_1068)"/>
<path fill-rule="evenodd" clip-rule="evenodd" d="M283.304 464.211C284.221 465.975 284.408 469.213 284.579 472.174V472.174C284.622 472.914 284.663 473.636 284.715 474.315C285.707 487.191 287.823 502.676 294.314 510.646C298.292 515.534 306.221 517.487 314.493 519.524C315.154 519.687 315.817 519.85 316.48 520.015V520.012C319.552 520.779 321.888 521.563 322.344 523.499C313.653 525.394 297.485 527.317 280.716 527.833V527.834L280.714 527.834L280.712 527.834V527.833C263.943 527.317 247.774 525.394 239.084 523.499C239.54 521.563 241.875 520.779 244.947 520.012V520.015C245.61 519.85 246.272 519.687 246.933 519.524L246.933 519.524L246.934 519.524C255.206 517.487 263.135 515.534 267.113 510.646C273.604 502.676 275.72 487.191 276.712 474.315C276.764 473.636 276.806 472.914 276.848 472.174C277.018 469.241 277.203 466.037 278.097 464.262C278.549 462.928 279.549 462 280.709 462C281.855 462 282.844 462.904 283.304 464.211ZM280.717 559.322C280.831 559.322 280.945 559.322 281.06 559.314C285.139 559.088 287.957 553.491 289.697 550.036L289.743 549.945C290.308 548.821 290.842 547.697 291.368 546.59L291.368 546.59C292.854 543.462 294.271 540.477 296.138 538.064C299.642 533.541 306.649 530.937 312.821 529.154C313.126 529.065 313.588 528.962 314.148 528.837C316.725 528.261 321.373 527.223 322.26 525.035L322.257 525.035C321.79 525.13 302.439 529.039 280.712 530.001C258.985 529.039 239.634 525.13 239.167 525.035L239.165 525.035C240.052 527.223 244.699 528.261 247.277 528.837C247.837 528.962 248.299 529.065 248.604 529.154C254.775 530.937 261.783 533.541 265.286 538.064C267.153 540.477 268.571 543.462 270.056 546.59L270.057 546.59C270.582 547.697 271.116 548.821 271.682 549.945L271.727 550.036C273.467 553.491 276.285 559.088 280.365 559.314C280.479 559.322 280.593 559.322 280.708 559.322H280.712H280.717ZM322.414 524.382C322.417 524.344 322.421 524.305 322.421 524.26H322.425V524.356C322.425 524.37 322.42 524.385 322.416 524.399C322.414 524.409 322.411 524.419 322.41 524.428L322.412 524.404L322.414 524.382ZM322.409 524.44L322.41 524.428C322.409 524.432 322.409 524.436 322.409 524.44ZM239.011 524.381L239.011 524.381L239.011 524.381C239.013 524.396 239.014 524.411 239.015 524.427C239.014 524.417 239.011 524.407 239.008 524.397C239.004 524.383 239 524.369 239 524.355V524.259H239.004C239.004 524.304 239.008 524.343 239.011 524.381ZM239.016 524.439C239.016 524.435 239.016 524.431 239.015 524.427L239.016 524.439Z" fill="url(#paint7_linear_967_1068)"/>
<defs>
<filter id="filter0_f_967_1068" x="135.075" y="361.863" width="205.724" height="205.724" filterUnits="userSpaceOnUse" color-interpolation-filters="sRGB">
<feFlood flood-opacity="0" result="BackgroundImageFix"/>
<feBlend mode="normal" in="SourceGraphic" in2="BackgroundImageFix" result="shape"/>
<feGaussianBlur stdDeviation="37.6374" result="effect1_foregroundBlur_967_1068"/>
</filter>
<filter id="filter1_f_967_1068" x="0.226257" y="280.407" width="562.639" height="562.64" filterUnits="userSpaceOnUse" color-interpolation-filters="sRGB">
<feFlood flood-opacity="0" result="BackgroundImageFix"/>
<feBlend mode="normal" in="SourceGraphic" in2="BackgroundImageFix" result="shape"/>
<feGaussianBlur stdDeviation="117.522" result="effect1_foregroundBlur_967_1068"/>
</filter>
<filter id="filter2_f_967_1068" x="5.87227" y="184.602" width="551.347" height="551.348" filterUnits="userSpaceOnUse" color-interpolation-filters="sRGB">
<feFlood flood-opacity="0" result="BackgroundImageFix"/>
<feBlend mode="normal" in="SourceGraphic" in2="BackgroundImageFix" result="shape"/>
<feGaussianBlur stdDeviation="114.699" result="effect1_foregroundBlur_967_1068"/>
</filter>
<filter id="filter3_i_967_1068" x="187.768" y="414.555" width="164.969" height="164.969" filterUnits="userSpaceOnUse" color-interpolation-filters="sRGB">
<feFlood flood-opacity="0" result="BackgroundImageFix"/>
<feBlend mode="normal" in="SourceGraphic" in2="BackgroundImageFix" result="shape"/>
<feColorMatrix in="SourceAlpha" type="matrix" values="0 0 0 0 0 0 0 0 0 0 0 0 0 0 0 0 0 0 127 0" result="hardAlpha"/>
<feOffset dx="-22.5824" dy="-22.5824"/>
<feGaussianBlur stdDeviation="25.4052"/>
<feComposite in2="hardAlpha" operator="arithmetic" k2="-1" k3="1"/>
<feColorMatrix type="matrix" values="0 0 0 0 0.0468403 0 0 0 0 0.2375 0 0 0 0 0.0874324 0 0 0 1 0"/>
<feBlend mode="normal" in2="shape" result="effect1_innerShadow_967_1068"/>
</filter>
<filter id="filter4_i_967_1068" x="206.587" y="433.374" width="146.15" height="146.15" filterUnits="userSpaceOnUse" color-interpolation-filters="sRGB">
<feFlood flood-opacity="0" result="BackgroundImageFix"/>
<feBlend mode="normal" in="SourceGraphic" in2="BackgroundImageFix" result="shape"/>
<feColorMatrix in="SourceAlpha" type="matrix" values="0 0 0 0 0 0 0 0 0 0 0 0 0 0 0 0 0 0 127 0" result="hardAlpha"/>
<feOffset dx="-3.76374" dy="-3.76374"/>
<feGaussianBlur stdDeviation="7.52748"/>
<feComposite in2="hardAlpha" operator="arithmetic" k2="-1" k3="1"/>
<feColorMatrix type="matrix" values="0 0 0 0 0.751506 0 0 0 0 0.608333 0 0 0 0 1 0 0 0 1 0"/>
<feBlend mode="normal" in2="shape" result="effect1_innerShadow_967_1068"/>
</filter>
<filter id="filter5_f_967_1068" x="195.296" y="422.082" width="172.497" height="172.497" filterUnits="userSpaceOnUse" color-interpolation-filters="sRGB">
<feFlood flood-opacity="0" result="BackgroundImageFix"/>
<feBlend mode="normal" in="SourceGraphic" in2="BackgroundImageFix" result="shape"/>
<feGaussianBlur stdDeviation="7.52748" result="effect1_foregroundBlur_967_1068"/>
</filter>
<filter id="filter6_i_967_1068" x="210.351" y="437.138" width="145.209" height="145.21" filterUnits="userSpaceOnUse" color-interpolation-filters="sRGB">
<feFlood flood-opacity="0" result="BackgroundImageFix"/>
<feBlend mode="normal" in="SourceGraphic" in2="BackgroundImageFix" result="shape"/>
<feColorMatrix in="SourceAlpha" type="matrix" values="0 0 0 0 0 0 0 0 0 0 0 0 0 0 0 0 0 0 127 0" result="hardAlpha"/>
<feOffset dx="2.8228" dy="2.8228"/>
<feGaussianBlur stdDeviation="1.88187"/>
<feComposite in2="hardAlpha" operator="arithmetic" k2="-1" k3="1"/>
<feColorMatrix type="matrix" values="0 0 0 0 1 0 0 0 0 1 0 0 0 0 1 0 0 0 1 0"/>
<feBlend mode="normal" in2="shape" result="effect1_innerShadow_967_1068"/>
</filter>
<filter id="filter7_f_967_1068" x="191.503" y="411.168" width="131.617" height="131.617" filterUnits="userSpaceOnUse" color-interpolation-filters="sRGB">
<feFlood flood-opacity="0" result="BackgroundImageFix"/>
<feBlend mode="normal" in="SourceGraphic" in2="BackgroundImageFix" result="shape"/>
<feGaussianBlur stdDeviation="26.1647" result="effect1_foregroundBlur_967_1068"/>
</filter>
<filter id="filter8_f_967_1068" x="50.3478" y="321.474" width="356.352" height="405.808" filterUnits="userSpaceOnUse" color-interpolation-filters="sRGB">
<feFlood flood-opacity="0" result="BackgroundImageFix"/>
<feBlend mode="normal" in="SourceGraphic" in2="BackgroundImageFix" result="shape"/>
<feGaussianBlur stdDeviation="79.2601" result="effect1_foregroundBlur_967_1068"/>
</filter>
<filter id="filter9_f_967_1068" x="242.928" y="475.053" width="149.974" height="149.975" filterUnits="userSpaceOnUse" color-interpolation-filters="sRGB">
<feFlood flood-opacity="0" result="BackgroundImageFix"/>
<feBlend mode="normal" in="SourceGraphic" in2="BackgroundImageFix" result="shape"/>
<feGaussianBlur stdDeviation="29.8834" result="effect1_foregroundBlur_967_1068"/>
</filter>
<filter id="filter10_f_967_1068" x="203.511" y="428.09" width="71.5284" height="69.2846" filterUnits="userSpaceOnUse" color-interpolation-filters="sRGB">
<feFlood flood-opacity="0" result="BackgroundImageFix"/>
<feBlend mode="normal" in="SourceGraphic" in2="BackgroundImageFix" result="shape"/>
<feGaussianBlur stdDeviation="5.64561" result="effect1_foregroundBlur_967_1068"/>
</filter>
<filter id="filter11_f_967_1068" x="206.376" y="428.905" width="56.156" height="53.9451" filterUnits="userSpaceOnUse" color-interpolation-filters="sRGB">
<feFlood flood-opacity="0" result="BackgroundImageFix"/>
<feBlend mode="normal" in="SourceGraphic" in2="BackgroundImageFix" result="shape"/>
<feGaussianBlur stdDeviation="9.87982" result="effect1_foregroundBlur_967_1068"/>
</filter>
<filter id="filter12_f_967_1068" x="111.221" y="335.135" width="246.465" height="241.482" filterUnits="userSpaceOnUse" color-interpolation-filters="sRGB">
<feFlood flood-opacity="0" result="BackgroundImageFix"/>
<feBlend mode="normal" in="SourceGraphic" in2="BackgroundImageFix" result="shape"/>
<feGaussianBlur stdDeviation="52.2402" result="effect1_foregroundBlur_967_1068"/>
</filter>
<filter id="filter13_f_967_1068" x="275.71" y="510.699" width="104.368" height="102.157" filterUnits="userSpaceOnUse" color-interpolation-filters="sRGB">
<feFlood flood-opacity="0" result="BackgroundImageFix"/>
<feBlend mode="normal" in="SourceGraphic" in2="BackgroundImageFix" result="shape"/>
<feGaussianBlur stdDeviation="21.9328" result="effect1_foregroundBlur_967_1068"/>
</filter>
<filter id="filter14_f_967_1068" x="167.871" y="389.952" width="133.167" height="131.849" filterUnits="userSpaceOnUse" color-interpolation-filters="sRGB">
<feFlood flood-opacity="0" result="BackgroundImageFix"/>
<feBlend mode="normal" in="SourceGraphic" in2="BackgroundImageFix" result="shape"/>
<feGaussianBlur stdDeviation="29.8388" result="effect1_foregroundBlur_967_1068"/>
</filter>
<filter id="filter15_f_967_1068" x="197.207" y="172.628" width="193.24" height="193.24" filterUnits="userSpaceOnUse" color-interpolation-filters="sRGB">
<feFlood flood-opacity="0" result="BackgroundImageFix"/>
<feBlend mode="normal" in="SourceGraphic" in2="BackgroundImageFix" result="shape"/>
<feGaussianBlur stdDeviation="37.6374" result="effect1_foregroundBlur_967_1068"/>
</filter>
<filter id="filter16_f_967_1068" x="56.7198" y="73.4531" width="541.698" height="541.698" filterUnits="userSpaceOnUse" color-interpolation-filters="sRGB">
<feFlood flood-opacity="0" result="BackgroundImageFix"/>
<feBlend mode="normal" in="SourceGraphic" in2="BackgroundImageFix" result="shape"/>
<feGaussianBlur stdDeviation="117.522" result="effect1_foregroundBlur_967_1068"/>
</filter>
<filter id="filter17_f_967_1068" x="62.3658" y="0.602005" width="530.406" height="530.406" filterUnits="userSpaceOnUse" color-interpolation-filters="sRGB">
<feFlood flood-opacity="0" result="BackgroundImageFix"/>
<feBlend mode="normal" in="SourceGraphic" in2="BackgroundImageFix" result="shape"/>
<feGaussianBlur stdDeviation="114.699" result="effect1_foregroundBlur_967_1068"/>
</filter>
<filter id="filter18_i_967_1068" x="249.9" y="225.319" width="132.752" height="132.752" filterUnits="userSpaceOnUse" color-interpolation-filters="sRGB">
<feFlood flood-opacity="0" result="BackgroundImageFix"/>
<feBlend mode="normal" in="SourceGraphic" in2="BackgroundImageFix" result="shape"/>
<feColorMatrix in="SourceAlpha" type="matrix" values="0 0 0 0 0 0 0 0 0 0 0 0 0 0 0 0 0 0 127 0" result="hardAlpha"/>
<feOffset dx="-22.5824" dy="-22.5824"/>
<feGaussianBlur stdDeviation="25.4052"/>
<feComposite in2="hardAlpha" operator="arithmetic" k2="-1" k3="1"/>
<feColorMatrix type="matrix" values="0 0 0 0 0.0468403 0 0 0 0 0.2375 0 0 0 0 0.0874324 0 0 0 1 0"/>
<feBlend mode="normal" in2="shape" result="effect1_innerShadow_967_1068"/>
</filter>
<filter id="filter19_i_967_1068" x="268.718" y="244.138" width="113.934" height="113.934" filterUnits="userSpaceOnUse" color-interpolation-filters="sRGB">
<feFlood flood-opacity="0" result="BackgroundImageFix"/>
<feBlend mode="normal" in="SourceGraphic" in2="BackgroundImageFix" result="shape"/>
<feColorMatrix in="SourceAlpha" type="matrix" values="0 0 0 0 0 0 0 0 0 0 0 0 0 0 0 0 0 0 127 0" result="hardAlpha"/>
<feOffset dx="-3.76374" dy="-3.76374"/>
<feGaussianBlur stdDeviation="7.52748"/>
<feComposite in2="hardAlpha" operator="arithmetic" k2="-1" k3="1"/>
<feColorMatrix type="matrix" values="0 0 0 0 0.751506 0 0 0 0 0.608333 0 0 0 0 1 0 0 0 1 0"/>
<feBlend mode="normal" in2="shape" result="effect1_innerShadow_967_1068"/>
</filter>
<filter id="filter20_f_967_1068" x="257.427" y="232.845" width="140.28" height="140.281" filterUnits="userSpaceOnUse" color-interpolation-filters="sRGB">
<feFlood flood-opacity="0" result="BackgroundImageFix"/>
<feBlend mode="normal" in="SourceGraphic" in2="BackgroundImageFix" result="shape"/>
<feGaussianBlur stdDeviation="7.52748" result="effect1_foregroundBlur_967_1068"/>
</filter>
<filter id="filter21_i_967_1068" x="272.482" y="247.901" width="112.993" height="112.993" filterUnits="userSpaceOnUse" color-interpolation-filters="sRGB">
<feFlood flood-opacity="0" result="BackgroundImageFix"/>
<feBlend mode="normal" in="SourceGraphic" in2="BackgroundImageFix" result="shape"/>
<feColorMatrix in="SourceAlpha" type="matrix" values="0 0 0 0 0 0 0 0 0 0 0 0 0 0 0 0 0 0 127 0" result="hardAlpha"/>
<feOffset dx="2.8228" dy="2.8228"/>
<feGaussianBlur stdDeviation="1.88187"/>
<feComposite in2="hardAlpha" operator="arithmetic" k2="-1" k3="1"/>
<feColorMatrix type="matrix" values="0 0 0 0 1 0 0 0 0 1 0 0 0 0 1 0 0 0 1 0"/>
<feBlend mode="normal" in2="shape" result="effect1_innerShadow_967_1068"/>
</filter>
<filter id="filter22_f_967_1068" x="246.058" y="215.967" width="125.517" height="125.517" filterUnits="userSpaceOnUse" color-interpolation-filters="sRGB">
<feFlood flood-opacity="0" result="BackgroundImageFix"/>
<feBlend mode="normal" in="SourceGraphic" in2="BackgroundImageFix" result="shape"/>
<feGaussianBlur stdDeviation="26.1647" result="effect1_foregroundBlur_967_1068"/>
</filter>
<filter id="filter23_f_967_1068" x="112.814" y="122.541" width="347.458" height="385.723" filterUnits="userSpaceOnUse" color-interpolation-filters="sRGB">
<feFlood flood-opacity="0" result="BackgroundImageFix"/>
<feBlend mode="normal" in="SourceGraphic" in2="BackgroundImageFix" result="shape"/>
<feGaussianBlur stdDeviation="79.2601" result="effect1_foregroundBlur_967_1068"/>
</filter>
<filter id="filter24_f_967_1068" x="284.166" y="263.715" width="143.087" height="143.087" filterUnits="userSpaceOnUse" color-interpolation-filters="sRGB">
<feFlood flood-opacity="0" result="BackgroundImageFix"/>
<feBlend mode="normal" in="SourceGraphic" in2="BackgroundImageFix" result="shape"/>
<feGaussianBlur stdDeviation="29.8834" result="effect1_foregroundBlur_967_1068"/>
</filter>
<filter id="filter25_f_967_1068" x="264.635" y="238.345" width="60.4534" height="58.7182" filterUnits="userSpaceOnUse" color-interpolation-filters="sRGB">
<feFlood flood-opacity="0" result="BackgroundImageFix"/>
<feBlend mode="normal" in="SourceGraphic" in2="BackgroundImageFix" result="shape"/>
<feGaussianBlur stdDeviation="5.64561" result="effect1_foregroundBlur_967_1068"/>
</filter>
<filter id="filter26_f_967_1068" x="264.936" y="237.062" width="52.3917" height="50.6814" filterUnits="userSpaceOnUse" color-interpolation-filters="sRGB">
<feFlood flood-opacity="0" result="BackgroundImageFix"/>
<feBlend mode="normal" in="SourceGraphic" in2="BackgroundImageFix" result="shape"/>
<feGaussianBlur stdDeviation="9.87982" result="effect1_foregroundBlur_967_1068"/>
</filter>
<filter id="filter27_f_967_1068" x="172.141" y="145.338" width="237.979" height="234.124" filterUnits="userSpaceOnUse" color-interpolation-filters="sRGB">
<feFlood flood-opacity="0" result="BackgroundImageFix"/>
<feBlend mode="normal" in="SourceGraphic" in2="BackgroundImageFix" result="shape"/>
<feGaussianBlur stdDeviation="52.2402" result="effect1_foregroundBlur_967_1068"/>
</filter>
<filter id="filter28_f_967_1068" x="313.128" y="294.893" width="100.604" height="98.8933" filterUnits="userSpaceOnUse" color-interpolation-filters="sRGB">
<feFlood flood-opacity="0" result="BackgroundImageFix"/>
<feBlend mode="normal" in="SourceGraphic" in2="BackgroundImageFix" result="shape"/>
<feGaussianBlur stdDeviation="21.9328" result="effect1_foregroundBlur_967_1068"/>
</filter>
<filter id="filter29_f_967_1068" x="226.112" y="197.89" width="130.042" height="129.022" filterUnits="userSpaceOnUse" color-interpolation-filters="sRGB">
<feFlood flood-opacity="0" result="BackgroundImageFix"/>
<feBlend mode="normal" in="SourceGraphic" in2="BackgroundImageFix" result="shape"/>
<feGaussianBlur stdDeviation="29.8388" result="effect1_foregroundBlur_967_1068"/>
</filter>
<linearGradient id="paint0_linear_967_1068" x1="210.35" y1="437.137" x2="352.737" y2="579.523" gradientUnits="userSpaceOnUse">
<stop stop-color="#3DFB0D"/>
<stop offset="0.755208" stop-color="#67FB0D" stop-opacity="0.1"/>
</linearGradient>
<linearGradient id="paint1_linear_967_1068" x1="230.284" y1="457.071" x2="332.803" y2="559.589" gradientUnits="userSpaceOnUse">
<stop stop-color="#7CFF79"/>
<stop offset="0.255208" stop-color="#5CFF63"/>
<stop offset="0.541667" stop-color="#8EFF66"/>
<stop offset="1" stop-color="#00A825"/>
</linearGradient>
<linearGradient id="paint2_linear_967_1068" x1="210.35" y1="437.137" x2="352.737" y2="579.523" gradientUnits="userSpaceOnUse">
<stop stop-color="#CDF9B2"/>
<stop offset="1" stop-color="#24FF00" stop-opacity="0.1"/>
</linearGradient>
<linearGradient id="paint3_linear_967_1068" x1="272.482" y1="247.902" x2="382.652" y2="358.072" gradientUnits="userSpaceOnUse">
<stop stop-color="#3DFB0D"/>
<stop offset="0.755208" stop-color="#67FB0D" stop-opacity="0.1"/>
</linearGradient>
<linearGradient id="paint4_linear_967_1068" x1="287.906" y1="263.325" x2="367.228" y2="342.647" gradientUnits="userSpaceOnUse">
<stop stop-color="#7CFF79"/>
<stop offset="0.255208" stop-color="#5CFF63"/>
<stop offset="0.541667" stop-color="#8EFF66"/>
<stop offset="1" stop-color="#00A825"/>
</linearGradient>
<linearGradient id="paint5_linear_967_1068" x1="272.482" y1="247.902" x2="382.652" y2="358.072" gradientUnits="userSpaceOnUse">
<stop stop-color="#CDF9B2"/>
<stop offset="1" stop-color="#24FF00" stop-opacity="0.1"/>
</linearGradient>
<linearGradient id="paint6_linear_967_1068" x1="326.712" y1="264" x2="326.712" y2="342.658" gradientUnits="userSpaceOnUse">
<stop stop-color="#55FF79"/>
<stop offset="1" stop-color="#097200"/>
</linearGradient>
<linearGradient id="paint7_linear_967_1068" x1="280.712" y1="462" x2="280.712" y2="559.322" gradientUnits="userSpaceOnUse">
<stop stop-color="#55FF79"/>
<stop offset="1" stop-color="#097200"/>
</linearGradient>
</defs>
</svg>
