<svg width="284" height="634" viewBox="0 0 284 634" fill="none" xmlns="http://www.w3.org/2000/svg">
<g opacity="0.5">
<path opacity="0.0344828" d="M226.981 487.81C230.572 489.669 234.929 489.933 239.982 488.664C245.039 487.393 250.761 484.592 257.035 480.37C269.582 471.926 284.244 457.86 300.084 439.248C331.758 402.031 368.062 346.729 401.478 282.164C434.893 217.599 459.077 156.024 471.171 108.674C477.219 84.9939 480.235 64.9005 479.883 49.7807C479.707 42.2205 478.689 35.932 476.806 31.0693C474.925 26.2108 472.194 22.8067 468.602 20.9477C465.01 19.0888 460.654 18.8245 455.601 20.0944C450.543 21.3652 444.822 24.1658 438.548 28.3879C426.001 36.8319 411.338 50.8979 395.498 69.5097C363.824 106.727 327.52 162.029 294.105 226.594C260.689 291.159 236.505 352.734 224.412 400.084C218.364 423.764 215.347 443.858 215.699 458.977C215.875 466.538 216.893 472.826 218.776 477.689C220.657 482.547 223.389 485.951 226.981 487.81Z" stroke="#55FF79" stroke-opacity="0.7" stroke-width="1.05953"/>
<path opacity="0.0689655" d="M248.593 499.391C252.333 500.93 256.696 500.813 261.619 499.108C266.546 497.401 272.002 494.113 277.884 489.36C289.648 479.854 303.029 464.564 317.186 444.643C345.496 404.807 376.842 346.551 404.503 279.319C432.164 212.087 450.89 148.639 458.81 100.414C462.771 76.2979 464.025 56.018 462.356 40.9864C461.522 33.4703 459.96 27.2945 457.661 22.6144C455.363 17.9383 452.345 14.7852 448.605 13.2464C444.865 11.7076 440.502 11.824 435.579 13.5294C430.652 15.2362 425.196 18.5248 419.314 23.2777C407.55 32.783 394.17 48.0734 380.012 67.995C351.702 107.831 320.356 166.087 292.695 233.319C265.034 300.551 246.309 363.998 238.388 412.223C234.427 436.34 233.173 456.62 234.842 471.651C235.676 479.167 237.238 485.343 239.538 490.023C241.835 494.699 244.853 497.852 248.593 499.391Z" stroke="#55FF79" stroke-opacity="0.7" stroke-width="1.05953"/>
<path opacity="0.103448" d="M270.969 509.123C274.829 510.33 279.165 509.834 283.921 507.706C288.681 505.576 293.829 501.824 299.275 496.577C310.165 486.083 322.162 469.684 334.529 448.604C359.26 406.453 385.409 345.687 407.105 276.3C428.801 206.913 441.926 142.074 445.613 93.3429C447.457 68.9729 446.938 48.6609 443.966 33.8319C442.48 26.4172 440.386 20.4009 437.687 15.9391C434.991 11.481 431.71 8.60294 427.85 7.39597C423.99 6.189 419.654 6.68526 414.898 8.81321C410.138 10.943 404.99 14.6946 399.544 19.942C388.654 30.4364 376.657 46.8349 364.289 67.9145C339.559 110.066 313.41 170.832 291.714 240.219C270.018 309.606 256.893 374.445 253.206 423.176C251.362 447.546 251.88 467.858 254.852 482.687C256.339 490.102 258.433 496.118 261.131 500.58C263.828 505.038 267.109 507.916 270.969 509.123Z" stroke="#55FF79" stroke-opacity="0.7" stroke-width="1.05953"/>
<path opacity="0.137931" d="M293.941 516.945C297.892 517.811 302.168 516.938 306.72 514.404C311.276 511.868 316.078 507.682 321.045 501.98C330.98 490.576 341.502 473.194 351.985 451.117C372.947 406.97 393.701 344.156 409.267 273.143C424.833 202.129 432.257 136.393 431.683 87.5257C431.396 63.0877 429.109 42.8982 424.856 28.3847C422.729 21.1277 420.118 15.3169 417.041 11.1072C413.966 6.90108 410.447 4.31994 406.496 3.45399C402.546 2.58803 398.269 3.46034 393.717 5.99467C389.161 8.53117 384.359 12.7172 379.392 18.4193C369.458 29.8229 358.935 47.2046 348.452 69.2819C327.49 113.429 306.736 176.242 291.17 247.256C275.604 318.27 268.181 384.006 268.754 432.873C269.041 457.311 271.328 477.501 275.582 492.014C277.708 499.271 280.319 505.082 283.396 509.292C286.471 513.498 289.99 516.079 293.941 516.945Z" stroke="#55FF79" stroke-opacity="0.7" stroke-width="1.05953"/>
<path opacity="0.172414" d="M317.341 522.814C321.352 523.332 325.536 522.09 329.85 519.169C334.167 516.245 338.586 511.656 343.037 505.543C351.94 493.317 360.907 475.084 369.426 452.177C386.461 406.372 401.662 341.988 410.979 269.888C420.297 197.787 421.963 131.655 417.132 83.0235C414.716 58.7035 410.678 38.7901 405.176 24.7026C402.425 17.6585 399.318 12.0973 395.886 8.17184C392.456 4.24973 388.725 1.98515 384.714 1.46681C380.703 0.948465 376.519 2.19017 372.205 5.1116C367.887 8.03553 363.468 12.6242 359.017 18.7374C350.115 30.9635 341.147 49.1962 332.628 72.1031C315.593 117.909 300.393 182.292 291.075 254.393C281.758 326.493 280.092 392.626 284.923 441.257C287.338 465.577 291.376 485.49 296.878 499.578C299.629 506.622 302.737 512.183 306.169 516.108C309.598 520.031 313.33 522.295 317.341 522.814Z" stroke="#55FF79" stroke-opacity="0.7" stroke-width="1.05953"/>
<path opacity="0.206897" d="M340.997 526.699C345.038 526.866 349.098 525.264 353.141 521.978C357.187 518.689 361.189 513.732 365.091 507.254C372.894 494.299 380.238 475.354 386.729 451.792C399.706 404.676 409.237 339.212 412.235 266.574C415.233 193.936 411.13 127.91 402.079 79.8849C397.552 55.868 391.794 36.3824 385.085 22.8279C381.731 16.0505 378.151 10.7812 374.389 7.16985C370.631 3.56156 366.717 1.63078 362.676 1.464C358.635 1.29721 354.575 2.89886 350.532 6.18516C346.486 9.47427 342.484 14.4306 338.582 20.9085C330.779 33.864 323.435 52.8088 316.945 76.3711C303.967 123.487 294.436 188.95 291.438 261.589C288.44 334.227 292.543 400.253 301.594 448.278C306.121 472.295 311.879 491.78 318.588 505.335C321.942 512.112 325.522 517.382 329.284 520.993C333.042 524.601 336.956 526.532 340.997 526.699Z" stroke="#55FF79" stroke-opacity="0.7" stroke-width="1.05953"/>
<path opacity="0.241379" d="M364.737 528.585C368.777 528.399 372.682 526.45 376.423 522.824C380.168 519.195 383.722 513.908 387.045 507.115C393.689 493.529 399.354 474.016 403.766 449.978C412.588 401.91 416.377 335.865 413.033 263.242C409.689 190.619 399.846 125.202 386.644 78.1483C380.042 54.6173 372.607 35.7076 364.742 22.7895C360.81 16.3302 356.784 11.393 352.722 8.12324C348.664 4.85624 344.596 3.27396 340.556 3.46C336.516 3.64603 332.611 5.59544 328.87 9.2216C325.126 12.8508 321.571 18.1371 318.249 24.9305C311.604 38.5167 305.939 58.0295 301.527 82.0677C292.705 130.136 288.916 196.18 292.26 268.803C295.604 341.426 305.447 406.844 318.649 453.897C325.252 477.428 332.686 496.338 340.551 509.256C344.483 515.715 348.509 520.652 352.571 523.922C356.629 527.189 360.697 528.772 364.737 528.585Z" stroke="#55FF79" stroke-opacity="0.7" stroke-width="1.05953"/>
<path opacity="0.275862" d="M388.384 528.473C392.392 527.935 396.113 525.653 399.523 521.714C402.937 517.773 406.018 512.197 408.735 505.14C414.17 491.026 418.113 471.094 420.413 446.762C425.012 398.109 423.031 331.985 413.37 259.93C403.709 187.875 388.202 123.564 370.949 77.8401C362.321 54.974 353.267 36.7843 344.306 24.6008C339.826 18.5088 335.385 13.9413 331.054 11.038C326.726 8.13711 322.536 6.91536 318.527 7.45281C314.519 7.99025 310.799 10.2726 307.388 14.211C303.974 18.1528 300.893 23.7287 298.176 30.7858C292.741 44.8994 288.798 64.8318 286.498 89.163C281.899 137.817 283.88 203.941 293.541 275.996C303.202 348.051 318.709 412.361 335.962 458.085C344.59 480.951 353.644 499.141 362.605 511.325C367.086 517.417 371.526 521.984 375.858 524.888C380.185 527.788 384.375 529.01 388.384 528.473Z" stroke="#55FF79" stroke-opacity="0.7" stroke-width="1.05953"/>
<path opacity="0.310345" d="M411.764 526.378C415.711 525.493 419.218 522.895 422.272 518.674C425.329 514.45 427.912 508.627 430.004 501.36C434.189 486.826 436.379 466.626 436.55 442.187C436.891 393.317 429.154 327.618 413.25 256.679C397.346 185.74 376.293 123.026 355.12 78.9796C344.532 56.9526 333.927 39.6212 323.939 28.265C318.944 22.5867 314.123 18.4236 309.554 15.9088C304.99 13.3962 300.71 12.5443 296.763 13.4291C292.817 14.3138 289.31 16.9117 286.255 21.1324C283.198 25.3567 280.615 31.1799 278.523 38.447C274.339 52.9806 272.148 73.1808 271.978 97.6199C271.637 146.489 279.374 212.189 295.278 283.128C311.182 354.067 332.235 416.781 353.407 460.827C363.995 482.854 374.6 500.186 384.589 511.542C389.583 517.22 394.405 521.383 398.973 523.898C403.537 526.411 407.818 527.263 411.764 526.378Z" stroke="#55FF79" stroke-opacity="0.7" stroke-width="1.05953"/>
<path opacity="0.344828" d="M434.709 522.331C438.563 521.105 441.831 518.212 444.506 513.741C447.183 509.266 449.249 503.24 450.699 495.818C453.601 480.975 454.023 460.661 452.063 436.3C448.143 387.587 434.71 322.812 412.683 253.529C390.657 184.246 364.218 123.605 339.287 81.5719C326.82 60.5515 314.745 44.2104 303.804 33.7679C298.334 28.5465 293.168 24.8195 288.398 22.7125C283.632 20.6072 279.294 20.1316 275.439 21.3569C271.585 22.5823 268.318 25.476 265.643 29.9468C262.965 34.4215 260.9 40.4477 259.449 47.8694C256.548 62.7124 256.126 83.0266 258.086 107.388C262.005 156.101 275.439 220.876 297.465 290.159C319.492 359.442 345.93 420.082 370.861 462.116C383.329 483.136 395.404 499.477 406.344 509.92C411.814 515.141 416.981 518.868 421.75 520.975C426.516 523.08 430.855 523.556 434.709 522.331Z" stroke="#55FF79" stroke-opacity="0.7" stroke-width="1.05953"/>
<path opacity="0.37931" d="M457.046 516.378C460.779 514.822 463.782 511.654 466.057 506.967C468.334 502.276 469.866 496.093 470.665 488.573C472.262 473.534 470.911 453.26 466.836 429.163C458.685 380.976 439.657 317.618 411.676 250.519C383.695 183.419 352.072 125.314 323.573 85.6132C309.321 65.7594 295.867 50.5329 284.058 41.0837C278.154 36.3589 272.682 33.0964 267.747 31.413C262.816 29.7311 258.453 29.6355 254.72 31.1921C250.987 32.7487 247.984 35.9161 245.709 40.6031C243.432 45.2941 241.899 51.4774 241.101 58.9973C239.504 74.0367 240.854 94.3104 244.93 118.408C253.08 166.594 272.108 229.952 300.089 297.051C328.07 364.151 359.694 422.257 388.193 461.957C402.445 481.811 415.899 497.037 427.707 506.487C433.612 511.211 439.083 514.474 444.019 516.157C448.95 517.839 453.313 517.935 457.046 516.378Z" stroke="#55FF79" stroke-opacity="0.7" stroke-width="1.05953"/>
<path opacity="0.413793" d="M478.615 508.58C482.197 506.704 484.913 503.287 486.771 498.419C488.631 493.548 489.618 487.255 489.758 479.694C490.038 464.572 486.926 444.494 480.766 420.843C468.447 373.55 443.969 312.092 410.246 247.687C376.524 183.281 339.957 128.153 308.106 91.0871C292.177 72.551 277.448 58.555 264.861 50.1709C258.567 45.9787 252.832 43.2055 247.768 41.9587C242.71 40.713 238.354 40.998 234.771 42.874C231.188 44.75 228.473 48.1671 226.615 53.0346C224.755 57.9062 223.768 64.1995 223.628 71.7604C223.348 86.8817 226.46 106.961 232.62 130.611C244.939 177.904 269.417 239.362 303.14 303.768C336.862 368.173 373.429 423.301 405.28 460.367C421.209 478.903 435.938 492.899 448.525 501.283C454.819 505.475 460.554 508.249 465.617 509.495C470.676 510.741 475.032 510.456 478.615 508.58Z" stroke="#55FF79" stroke-opacity="0.7" stroke-width="1.05953"/>
<path opacity="0.448276" d="M499.255 499.008C502.661 496.827 505.068 493.186 506.495 488.175C507.923 483.16 508.358 476.805 507.839 469.261C506.8 454.172 501.949 434.441 493.751 411.418C477.357 365.379 447.616 306.287 408.409 245.066C369.201 183.845 327.968 132.113 293.008 97.9648C275.525 80.8875 259.632 68.2285 246.361 60.9734C239.726 57.3457 233.771 55.0828 228.619 54.2821C223.47 53.482 219.157 54.1455 215.751 56.3267C212.345 58.5079 209.938 62.1486 208.511 67.1595C207.083 72.1746 206.648 78.5301 207.167 86.0744C208.206 101.163 213.056 120.894 221.255 143.917C237.649 189.956 267.39 249.048 306.597 310.269C345.805 371.49 387.038 423.222 421.998 457.37C439.481 474.447 455.374 487.106 468.644 494.362C475.28 497.989 481.235 500.252 486.387 501.053C491.535 501.853 495.849 501.189 499.255 499.008Z" stroke="#55FF79" stroke-opacity="0.7" stroke-width="1.05953"/>
<path opacity="0.482759" d="M518.816 487.751C522.018 485.282 524.099 481.445 525.084 476.329C526.069 471.208 525.949 464.839 524.774 457.369C522.424 442.428 515.872 423.195 505.698 400.974C485.354 356.539 450.577 300.264 406.182 242.693C361.788 185.122 316.204 137.181 278.4 106.21C259.495 90.721 242.559 79.4954 228.707 73.4245C221.781 70.3889 215.651 68.6536 210.449 68.305C205.25 67.9567 201.011 68.9936 197.808 71.4633C194.605 73.933 192.525 77.7697 191.54 82.8858C190.555 88.0063 190.675 94.3756 191.85 101.846C194.2 116.786 200.751 136.02 210.925 158.241C231.269 202.676 266.047 258.95 310.441 316.521C354.835 374.092 400.42 422.033 438.223 453.005C457.128 468.494 474.065 479.719 487.916 485.79C494.843 488.826 500.972 490.561 506.175 490.91C511.373 491.258 515.613 490.221 518.816 487.751Z" stroke="#55FF79" stroke-opacity="0.7" stroke-width="1.05953"/>
<path opacity="0.517241" d="M537.155 474.913C540.13 472.174 541.869 468.17 542.404 462.988C542.939 457.801 542.264 451.466 540.443 444.127C536.799 429.448 528.596 410.859 516.525 389.609C492.385 347.116 452.835 294.087 403.592 240.604C354.349 187.121 304.76 143.336 264.401 115.777C244.218 101.995 226.368 92.288 212.039 87.4474C204.875 85.027 198.618 83.8326 193.404 83.9388C188.195 84.0448 184.062 85.4473 181.087 88.1868C178.112 90.9262 176.373 94.9296 175.838 100.112C175.303 105.299 175.978 111.634 177.799 118.973C181.443 133.652 189.645 152.241 201.717 173.491C225.857 215.984 265.407 269.013 314.65 322.496C363.893 375.978 413.482 419.764 453.841 447.323C474.024 461.105 491.874 470.812 506.202 475.652C513.367 478.073 519.624 479.267 524.838 479.161C530.047 479.055 534.18 477.652 537.155 474.913Z" stroke="#55FF79" stroke-opacity="0.7" stroke-width="1.05953"/>
<path opacity="0.551724" d="M554.138 460.599C556.864 457.611 558.246 453.471 558.328 448.262C558.409 443.048 557.185 436.796 554.73 429.643C549.822 415.338 540.03 397.535 526.152 377.418C498.401 337.19 454.379 287.81 400.663 238.823C346.946 189.835 293.729 150.538 251.122 126.602C229.814 114.631 211.186 106.517 196.49 102.944C189.142 101.157 182.805 100.512 177.62 101.072C172.44 101.632 168.445 103.39 165.72 106.378C162.995 109.366 161.612 113.506 161.531 118.715C161.449 123.929 162.674 130.181 165.128 137.334C170.037 151.639 179.829 169.442 193.707 189.559C221.458 229.787 265.479 279.167 319.196 328.154C372.913 377.142 426.13 416.439 468.737 440.375C490.044 452.346 508.672 460.46 523.368 464.033C530.716 465.82 537.054 466.465 542.238 465.904C547.418 465.345 551.413 463.587 554.138 460.599Z" stroke="#55FF79" stroke-opacity="0.7" stroke-width="1.05953"/>
<path opacity="0.586207" d="M569.646 444.94C572.1 441.725 573.117 437.481 572.744 432.284C572.371 427.083 570.606 420.962 567.538 414.05C561.401 400.228 550.095 383.345 534.516 364.514C503.365 326.859 455.207 281.503 397.425 237.384C339.643 193.264 283.204 158.755 238.672 138.623C216.403 128.555 197.138 122.095 182.187 119.816C174.711 118.677 168.342 118.587 163.226 119.597C158.114 120.606 154.288 122.705 151.833 125.919C149.379 129.134 148.362 133.378 148.735 138.575C149.109 143.776 150.873 149.897 153.942 156.809C160.078 170.632 171.385 187.514 186.963 206.345C218.115 244.001 266.272 289.356 324.054 333.476C381.836 377.595 438.276 412.104 482.807 432.236C505.077 442.304 524.341 448.764 539.292 451.043C546.768 452.182 553.138 452.272 558.253 451.262C563.365 450.253 567.192 448.154 569.646 444.94Z" stroke="#55FF79" stroke-opacity="0.7" stroke-width="1.05953"/>
<path opacity="0.62069" d="M583.562 428.067C585.727 424.651 586.37 420.334 585.545 415.19C584.72 410.041 582.429 404.097 578.77 397.479C571.451 384.244 558.717 368.411 541.556 351.009C507.242 316.212 455.314 275.226 393.907 236.311C332.499 197.395 273.267 167.936 227.151 151.762C204.088 143.674 184.334 138.917 169.241 137.95C161.694 137.467 155.341 137.932 150.333 139.384C145.329 140.835 141.7 143.259 139.535 146.676C137.37 150.092 136.727 154.409 137.551 159.553C138.377 164.702 140.668 170.646 144.327 177.264C151.645 190.499 164.38 206.332 181.54 223.734C215.855 258.531 267.783 299.516 329.19 338.432C390.597 377.347 449.83 406.806 495.946 422.981C519.009 431.069 538.763 435.825 553.856 436.792C561.402 437.276 567.756 436.81 572.764 435.358C577.768 433.908 581.397 431.483 583.562 428.067Z" stroke="#55FF79" stroke-opacity="0.7" stroke-width="1.05953"/>
<path opacity="0.655172" d="M595.789 410.122C597.648 406.53 597.912 402.174 596.643 397.121C595.372 392.063 592.571 386.342 588.349 380.068C579.905 367.521 565.839 352.858 547.227 337.018C510.01 305.344 454.708 269.04 390.143 235.625C325.578 202.21 264.003 178.025 216.653 165.932C192.973 159.884 172.879 156.868 157.76 157.22C150.2 157.395 143.911 158.413 139.048 160.296C134.19 162.177 130.786 164.909 128.927 168.501C127.068 172.092 126.804 176.449 128.073 181.502C129.344 186.559 132.145 192.281 136.367 198.555C144.811 211.102 158.877 225.765 177.489 241.604C214.706 273.278 270.008 309.582 334.573 342.998C399.138 376.413 460.713 400.598 508.063 412.691C531.743 418.739 551.837 421.755 566.956 421.403C574.517 421.227 580.805 420.209 585.668 418.327C590.526 416.445 593.93 413.714 595.789 410.122Z" stroke="#55FF79" stroke-opacity="0.7" stroke-width="1.05953"/>
<path opacity="0.689655" d="M606.24 391.259C607.779 387.519 607.662 383.156 605.957 378.233C604.25 373.306 600.961 367.85 596.208 361.968C586.703 350.204 571.413 336.823 551.491 322.666C511.655 294.356 453.4 263.01 386.168 235.349C318.936 207.688 255.488 188.962 207.263 181.042C183.147 177.081 162.867 175.827 147.835 177.496C140.319 178.33 134.143 179.892 129.463 182.191C124.787 184.489 121.634 187.507 120.095 191.247C118.556 194.987 118.673 199.35 120.378 204.273C122.085 209.2 125.373 214.656 130.126 220.538C139.632 232.302 154.922 245.683 174.844 259.84C214.68 288.15 272.935 319.496 340.167 347.157C407.399 374.818 470.847 393.544 519.072 401.464C543.188 405.425 563.468 406.679 578.5 405.01C586.016 404.176 592.192 402.614 596.872 400.315C601.548 398.017 604.701 394.999 606.24 391.259Z" stroke="#55FF79" stroke-opacity="0.7" stroke-width="1.05953"/>
<path opacity="0.724138" d="M614.84 371.633C616.047 367.773 615.551 363.437 613.423 358.681C611.293 353.921 607.542 348.773 602.294 343.328C591.8 332.437 575.401 320.44 554.322 308.073C512.17 283.342 451.404 257.193 382.017 235.497C312.63 213.801 247.792 200.676 199.06 196.989C174.69 195.145 154.378 195.664 139.549 198.636C132.134 200.122 126.118 202.216 121.656 204.915C117.198 207.611 114.32 210.892 113.113 214.752C111.906 218.612 112.403 222.949 114.53 227.704C116.66 232.464 120.412 237.612 125.659 243.058C136.154 253.948 152.552 265.945 173.632 278.313C215.783 303.043 276.549 329.192 345.936 350.888C415.323 372.584 480.162 385.709 528.893 389.396C553.263 391.24 573.575 390.722 588.404 387.75C595.819 386.263 601.835 384.169 606.297 381.471C610.755 378.774 613.633 375.493 614.84 371.633Z" stroke="#55FF79" stroke-opacity="0.7" stroke-width="1.05953"/>
<path opacity="0.758621" d="M621.532 351.412C622.398 347.461 621.525 343.185 618.991 338.633C616.455 334.077 612.268 329.275 606.566 324.308C595.163 314.374 577.781 303.851 555.704 293.368C511.557 272.406 448.743 251.652 377.73 236.086C306.716 220.52 240.98 213.096 192.113 213.67C167.675 213.957 147.485 216.244 132.972 220.497C125.715 222.624 119.904 225.235 115.694 228.312C111.488 231.387 108.907 234.906 108.041 238.857C107.175 242.807 108.047 247.084 110.582 251.636C113.118 256.192 117.304 260.994 123.006 265.961C134.41 275.895 151.792 286.418 173.869 296.901C218.015 317.863 280.829 338.617 351.843 354.183C422.857 369.749 488.593 377.172 537.46 376.599C561.898 376.312 582.088 374.025 596.601 369.771C603.858 367.645 609.669 365.034 613.879 361.957C618.085 358.882 620.666 355.363 621.532 351.412Z" stroke="#55FF79" stroke-opacity="0.7" stroke-width="1.05953"/>
<path opacity="0.793103" d="M626.27 330.762C626.788 326.751 625.546 322.567 622.625 318.253C619.701 313.936 615.112 309.517 608.999 305.066C596.773 296.163 578.54 287.196 555.633 278.677C509.828 261.642 445.444 246.442 373.344 237.124C301.243 227.807 235.111 226.14 186.48 230.971C162.16 233.387 142.246 237.425 128.159 242.927C121.115 245.678 115.553 248.785 111.628 252.218C107.706 255.647 105.441 259.378 104.923 263.389C104.405 267.4 105.646 271.584 108.568 275.898C111.492 280.216 116.08 284.635 122.193 289.086C134.42 297.988 152.652 306.956 175.559 315.475C221.365 332.51 285.748 347.71 357.849 357.028C429.949 366.345 496.082 368.011 544.713 363.181C569.033 360.765 588.946 356.727 603.034 351.225C610.078 348.474 615.639 345.367 619.565 341.934C623.487 338.505 625.751 334.773 626.27 330.762Z" stroke="#55FF79" stroke-opacity="0.7" stroke-width="1.05953"/>
<path opacity="0.827586" d="M629.022 309.855C629.189 305.814 627.587 301.754 624.301 297.712C621.012 293.665 616.056 289.663 609.578 285.761C596.622 277.958 577.677 270.614 554.115 264.124C506.999 251.146 441.536 241.615 368.898 238.617C296.26 235.619 230.233 239.723 182.208 248.774C158.191 253.3 138.706 259.058 125.151 265.767C118.374 269.122 113.104 272.702 109.493 276.463C105.885 280.222 103.954 284.136 103.787 288.177C103.62 292.218 105.222 296.278 108.508 300.32C111.798 304.367 116.754 308.369 123.232 312.271C136.187 320.074 155.132 327.418 178.694 333.908C225.81 346.886 291.274 356.417 363.912 359.415C436.55 362.413 502.576 358.309 550.601 349.258C574.618 344.732 594.104 338.974 607.658 332.265C614.436 328.91 619.705 325.33 623.316 321.569C626.925 317.81 628.855 313.896 629.022 309.855Z" stroke="#55FF79" stroke-opacity="0.7" stroke-width="1.05953"/>
<path opacity="0.862069" d="M629.776 288.865C629.59 284.825 627.641 280.92 624.015 277.179C620.386 273.435 615.099 269.88 608.306 266.558C594.72 259.914 575.207 254.248 551.169 249.837C503.101 241.015 437.056 237.225 364.433 240.57C291.81 243.914 226.393 253.757 179.339 266.959C155.808 273.561 136.899 280.996 123.98 288.86C117.521 292.793 112.584 296.818 109.314 300.88C106.047 304.939 104.465 309.006 104.651 313.046C104.837 317.087 106.786 320.992 110.413 324.733C114.042 328.477 119.328 332.032 126.121 335.354C139.708 341.998 159.22 347.663 183.259 352.075C231.327 360.897 297.371 364.686 369.994 361.342C442.617 357.998 508.034 348.155 555.088 334.953C578.619 328.351 597.529 320.916 610.447 313.052C616.906 309.119 621.843 305.094 625.113 301.032C628.38 296.973 629.962 292.905 629.776 288.865Z" stroke="#55FF79" stroke-opacity="0.7" stroke-width="1.05953"/>
<path opacity="0.896552" d="M628.532 267.968C627.995 263.959 625.712 260.239 621.774 256.828C617.832 253.414 612.256 250.334 605.199 247.616C591.086 242.181 571.153 238.238 546.822 235.939C498.168 231.339 432.044 233.321 359.989 242.982C287.934 252.643 223.624 268.15 177.9 285.403C155.034 294.03 136.844 303.085 124.66 312.045C118.568 316.526 114.001 320.967 111.098 325.298C108.197 329.626 106.975 333.816 107.512 337.824C108.05 341.833 110.332 345.553 114.271 348.964C118.212 352.378 123.788 355.458 130.845 358.176C144.959 363.61 164.891 367.554 189.223 369.853C237.876 374.452 304 372.471 376.055 362.81C448.111 353.149 512.421 337.642 558.145 320.389C581.011 311.761 599.201 302.707 611.384 293.746C617.476 289.266 622.044 284.825 624.947 280.494C627.848 276.166 629.07 271.976 628.532 267.968Z" stroke="#55FF79" stroke-opacity="0.7" stroke-width="1.05953"/>
<path opacity="0.931035" d="M625.307 247.338C624.422 243.391 621.824 239.884 617.604 236.83C613.379 233.773 607.556 231.19 600.289 229.098C585.755 224.914 565.555 222.723 541.116 222.552C492.247 222.211 426.547 229.948 355.608 245.852C284.669 261.756 221.955 282.809 177.909 303.982C155.882 314.57 138.55 325.175 127.194 335.163C121.516 340.158 117.353 344.98 114.838 349.548C112.325 354.112 111.474 358.392 112.358 362.339C113.243 366.285 115.841 369.792 120.062 372.847C124.286 375.904 130.109 378.487 137.376 380.579C151.91 384.763 172.11 386.954 196.549 387.124C245.419 387.465 311.118 379.728 382.057 363.824C452.996 347.92 515.71 326.867 559.756 305.695C581.783 295.107 599.115 284.502 610.471 274.513C616.149 269.519 620.312 264.697 622.827 260.129C625.34 255.565 626.192 251.284 625.307 247.338Z" stroke="#55FF79" stroke-opacity="0.7" stroke-width="1.05953"/>
<path opacity="0.965517" d="M620.128 227.144C618.903 223.289 616.009 220.022 611.538 217.347C607.064 214.669 601.037 212.604 593.616 211.153C578.773 208.252 558.458 207.83 534.097 209.79C485.384 213.709 420.609 227.143 351.326 249.169C282.043 271.196 221.403 297.634 179.369 322.565C158.349 335.033 142.008 347.108 131.565 358.048C126.344 363.518 122.617 368.685 120.51 373.455C118.405 378.22 117.929 382.559 119.154 386.413C120.38 390.267 123.273 393.535 127.744 396.21C132.219 398.887 138.245 400.953 145.667 402.404C160.51 405.305 180.824 405.727 205.185 403.767C253.898 399.847 318.673 386.414 387.956 364.387C457.239 342.361 517.88 315.922 559.913 290.992C580.934 278.524 597.275 266.449 607.717 255.508C612.938 250.038 616.666 244.872 618.773 240.102C620.878 235.336 621.353 230.998 620.128 227.144Z" stroke="#55FF79" stroke-opacity="0.7" stroke-width="1.05953"/>
<path d="M613.044 207.557C611.487 203.824 608.32 200.821 603.633 198.546C598.942 196.269 592.758 194.736 585.239 193.938C570.199 192.341 549.925 193.691 525.828 197.767C477.642 205.917 414.284 224.945 347.184 252.926C280.085 280.907 221.979 312.53 182.279 341.03C162.425 355.282 147.198 368.735 137.749 380.544C133.024 386.449 129.762 391.92 128.079 396.855C126.397 401.786 126.301 406.15 127.858 409.883C129.414 413.616 132.582 416.618 137.269 418.894C141.96 421.171 148.143 422.703 155.663 423.502C170.702 425.098 190.976 423.748 215.073 419.672C263.26 411.522 326.618 392.494 393.717 364.513C460.816 336.532 518.922 304.909 558.623 276.41C578.476 262.158 593.703 248.704 603.152 236.895C607.877 230.991 611.14 225.519 612.823 220.584C614.505 215.653 614.6 211.289 613.044 207.557Z" stroke="#55FF79" stroke-opacity="0.7" stroke-width="1.05953"/>
</g>
</svg>
