<svg width="599" height="844" viewBox="0 0 599 844" fill="none" xmlns="http://www.w3.org/2000/svg">
<g opacity="0.4">
<g opacity="0.5" filter="url(#filter0_f_967_953)">
<path d="M273.936 492.312C289.172 492.312 301.523 479.961 301.523 464.725C301.523 449.489 289.172 437.138 273.936 437.138C258.7 437.138 246.349 449.489 246.349 464.725C246.349 479.961 258.7 492.312 273.936 492.312Z" fill="#AACB8F"/>
</g>
<g filter="url(#filter1_f_967_953)">
<path d="M317.545 608.003C343.102 608.003 363.821 587.284 363.821 561.727C363.821 536.17 343.102 515.451 317.545 515.451C291.988 515.451 271.269 536.17 271.269 561.727C271.269 587.284 291.988 608.003 317.545 608.003Z" fill="#3F8A39"/>
</g>
<g filter="url(#filter2_f_967_953)">
<path d="M317.545 506.551C343.102 506.551 363.821 485.833 363.821 460.276C363.821 434.718 343.102 414 317.545 414C291.988 414 271.269 434.718 271.269 460.276C271.269 485.833 291.988 506.551 317.545 506.551Z" fill="#228B10"/>
</g>
<g opacity="0.7" filter="url(#filter3_i_967_953)">
<path d="M317.543 579.524C356.862 579.524 388.736 547.65 388.736 508.331C388.736 469.012 356.862 437.138 317.543 437.138C278.224 437.138 246.35 469.012 246.35 508.331C246.35 547.65 278.224 579.524 317.543 579.524Z" fill="#097200" fill-opacity="0.01"/>
</g>
<g filter="url(#filter4_i_967_953)">
<path d="M317.543 579.524C356.862 579.524 388.736 547.65 388.736 508.331C388.736 469.012 356.862 437.138 317.543 437.138C278.224 437.138 246.35 469.012 246.35 508.331C246.35 547.65 278.224 579.524 317.543 579.524Z" fill="#097200" fill-opacity="0.01"/>
</g>
<path d="M317.543 579.053C356.602 579.053 388.266 547.389 388.266 508.33C388.266 469.271 356.602 437.607 317.543 437.607C278.484 437.607 246.82 469.271 246.82 508.33C246.82 547.389 278.484 579.053 317.543 579.053Z" stroke="url(#paint0_linear_967_953)" stroke-width="0.940935"/>
<g filter="url(#filter5_f_967_953)">
<path d="M317.543 576.701C355.303 576.701 385.913 546.09 385.913 508.33C385.913 470.57 355.303 439.96 317.543 439.96C279.783 439.96 249.172 470.57 249.172 508.33C249.172 546.09 279.783 576.701 317.543 576.701Z" stroke="url(#paint1_linear_967_953)" stroke-width="5.64561"/>
<path d="M317.543 576.701C355.303 576.701 385.913 546.09 385.913 508.33C385.913 470.57 355.303 439.96 317.543 439.96C279.783 439.96 249.172 470.57 249.172 508.33C249.172 546.09 279.783 576.701 317.543 576.701Z" stroke="black" stroke-opacity="0.2" stroke-width="5.64561"/>
</g>
<g opacity="0.3" filter="url(#filter6_i_967_953)">
<path d="M317.543 579.524C356.862 579.524 388.736 547.65 388.736 508.331C388.736 469.012 356.862 437.138 317.543 437.138C278.224 437.138 246.35 469.012 246.35 508.331C246.35 547.65 278.224 579.524 317.543 579.524Z" fill="#097200" fill-opacity="0.01"/>
</g>
<path d="M317.543 579.053C356.602 579.053 388.266 547.389 388.266 508.33C388.266 469.271 356.602 437.607 317.543 437.607C278.484 437.607 246.82 469.271 246.82 508.33C246.82 547.389 278.484 579.053 317.543 579.053Z" stroke="url(#paint2_linear_967_953)" stroke-width="0.940935"/>
<g opacity="0.7" filter="url(#filter7_f_967_953)">
<path d="M281.741 488.545C285.559 492.363 293.834 490.279 300.223 483.889C306.612 477.5 308.697 469.225 304.879 465.407C301.061 461.589 292.786 463.674 286.397 470.063C280.008 476.452 277.923 484.727 281.741 488.545Z" fill="#097200"/>
</g>
<g opacity="0.7" filter="url(#filter8_f_967_953)">
<path d="M248.704 520.202C242.262 544.604 244.122 566.255 252.858 568.562C261.595 570.868 273.9 552.956 280.342 528.554C286.784 504.152 284.924 482.5 276.188 480.194C267.451 477.887 255.146 495.799 248.704 520.202Z" fill="#097200"/>
</g>
<g opacity="0.35" filter="url(#filter9_f_967_953)">
<path d="M340.243 563.712C343.932 567.402 353.044 564.271 360.595 556.72C368.146 549.169 371.277 540.057 367.587 536.368C363.898 532.678 354.786 535.809 347.235 543.36C339.684 550.911 336.553 560.023 340.243 563.712Z" fill="#AFFF9B"/>
</g>
<g filter="url(#filter10_f_967_953)">
<path d="M299.747 440.3C276.726 446.307 258.3 463.689 250.835 486.083H250.802V483.502C258.854 461.866 277.125 445.203 299.747 439.381V440.3Z" fill="#BEDFB9"/>
</g>
<g filter="url(#filter11_f_967_953)">
<path d="M272.183 457.912C276.675 454.091 279.543 450.083 278.588 448.959C277.632 447.836 273.216 450.023 268.723 453.844C264.231 457.665 261.363 461.673 262.318 462.796C263.273 463.92 267.69 461.733 272.183 457.912Z" fill="#097200"/>
</g>
<g opacity="0.7" filter="url(#filter12_f_967_953)">
<path d="M274.351 460.46C284.479 451.847 290.944 442.812 288.79 440.28C286.637 437.748 276.681 442.678 266.553 451.291C256.425 459.905 249.96 468.94 252.114 471.472C254.267 474.004 264.223 469.074 274.351 460.46Z" fill="#097200"/>
</g>
<g filter="url(#filter13_f_967_953)">
<path d="M365.624 563.811C370.116 559.99 372.984 555.982 372.029 554.859C371.074 553.736 366.657 555.923 362.164 559.744C357.672 563.565 354.804 567.573 355.759 568.696C356.714 569.819 361.131 567.632 365.624 563.811Z" fill="#097200"/>
</g>
<g filter="url(#filter14_f_967_953)">
<path d="M273.077 458.961C276.605 455.961 278.29 452.148 276.842 450.445C275.393 448.742 271.36 449.794 267.833 452.794C264.305 455.794 262.62 459.606 264.068 461.309C265.517 463.012 269.55 461.961 273.077 458.961Z" fill="white"/>
</g>
<path opacity="0.6" d="M393.653 510.14C393.653 552.727 358.766 587.264 315.715 587.264C272.664 587.264 237.777 552.727 237.777 510.14C237.777 467.553 272.664 433.016 315.715 433.016C358.766 433.016 393.653 467.553 393.653 510.14Z" stroke="#097200" stroke-width="1.48748"/>
<path opacity="0.3" d="M397.632 510.412C397.632 556.145 360.115 593.233 313.816 593.233C267.517 593.233 230 556.145 230 510.412C230 464.679 267.517 427.59 313.816 427.59C360.115 427.59 397.632 464.679 397.632 510.412Z" stroke="#097200" stroke-width="1.48748"/>
<path opacity="0.12" d="M402.157 508.24C402.157 555.278 363.945 593.413 316.804 593.413C269.663 593.413 231.45 555.278 231.45 508.24C231.45 461.202 269.663 423.067 316.804 423.067C363.945 423.067 402.157 461.202 402.157 508.24Z" stroke="#097200" stroke-width="1.48748"/>
</g>
<g opacity="0.4">
<g opacity="0.5" filter="url(#filter15_f_967_953)">
<path d="M237.828 290.595C249.617 290.595 259.174 281.038 259.174 269.249C259.174 257.46 249.617 247.903 237.828 247.903C226.039 247.903 216.482 257.46 216.482 269.249C216.482 281.038 226.039 290.595 237.828 290.595Z" fill="#AACB8F"/>
</g>
<g filter="url(#filter16_f_967_953)">
<path d="M271.569 380.109C291.344 380.109 307.376 364.078 307.376 344.303C307.376 324.528 291.344 308.497 271.569 308.497C251.794 308.497 235.762 324.528 235.762 344.303C235.762 364.078 251.794 380.109 271.569 380.109Z" fill="#3F8A39"/>
</g>
<g filter="url(#filter17_f_967_953)">
<path d="M271.569 301.612C291.344 301.612 307.376 285.581 307.376 265.806C307.376 246.031 291.344 230 271.569 230C251.794 230 235.762 246.031 235.762 265.806C235.762 285.581 251.794 301.612 271.569 301.612Z" fill="#228B10"/>
</g>
<g opacity="0.7" filter="url(#filter18_i_967_953)">
<path d="M271.568 358.076C301.992 358.076 326.655 333.413 326.655 302.99C326.655 272.567 301.992 247.904 271.568 247.904C241.144 247.904 216.481 272.567 216.481 302.99C216.481 333.413 241.144 358.076 271.568 358.076Z" fill="#097200" fill-opacity="0.01"/>
</g>
<g filter="url(#filter19_i_967_953)">
<path d="M271.568 358.076C301.992 358.076 326.655 333.413 326.655 302.99C326.655 272.567 301.992 247.904 271.568 247.904C241.144 247.904 216.481 272.567 216.481 302.99C216.481 333.413 241.144 358.076 271.568 358.076Z" fill="#097200" fill-opacity="0.01"/>
</g>
<path d="M326.184 302.99C326.184 333.154 301.732 357.606 271.568 357.606C241.404 357.606 216.951 333.154 216.951 302.99C216.951 272.827 241.404 248.375 271.568 248.375C301.732 248.375 326.184 272.827 326.184 302.99Z" stroke="url(#paint3_linear_967_953)" stroke-width="0.940935"/>
<g filter="url(#filter20_f_967_953)">
<path d="M323.832 302.99C323.832 331.854 300.432 355.253 271.568 355.253C242.703 355.253 219.303 331.854 219.303 302.99C219.303 274.126 242.703 250.727 271.568 250.727C300.432 250.727 323.832 274.126 323.832 302.99Z" stroke="url(#paint4_linear_967_953)" stroke-width="5.64561"/>
<path d="M323.832 302.99C323.832 331.854 300.432 355.253 271.568 355.253C242.703 355.253 219.303 331.854 219.303 302.99C219.303 274.126 242.703 250.727 271.568 250.727C300.432 250.727 323.832 274.126 323.832 302.99Z" stroke="black" stroke-opacity="0.2" stroke-width="5.64561"/>
</g>
<g opacity="0.3" filter="url(#filter21_i_967_953)">
<path d="M271.568 358.076C301.992 358.076 326.655 333.413 326.655 302.99C326.655 272.567 301.992 247.904 271.568 247.904C241.144 247.904 216.481 272.567 216.481 302.99C216.481 333.413 241.144 358.076 271.568 358.076Z" fill="#097200" fill-opacity="0.01"/>
</g>
<path d="M326.184 302.99C326.184 333.154 301.732 357.606 271.568 357.606C241.404 357.606 216.951 333.154 216.951 302.99C216.951 272.827 241.404 248.375 271.568 248.375C301.732 248.375 326.184 272.827 326.184 302.99Z" stroke="url(#paint5_linear_967_953)" stroke-width="0.940935"/>
<g opacity="0.7" filter="url(#filter22_f_967_953)">
<path d="M243.866 287.682C246.821 290.636 253.223 289.023 258.167 284.079C263.111 279.135 264.724 272.733 261.77 269.779C258.815 266.825 252.413 268.437 247.469 273.381C242.525 278.325 240.912 284.727 243.866 287.682Z" fill="#097200"/>
</g>
<g opacity="0.7" filter="url(#filter23_f_967_953)">
<path d="M218.303 312.174C213.318 331.055 214.757 347.808 221.517 349.593C228.277 351.377 237.798 337.518 242.783 318.637C247.768 299.755 246.329 283.002 239.569 281.218C232.809 279.433 223.288 293.293 218.303 312.174Z" fill="#097200"/>
</g>
<g opacity="0.35" filter="url(#filter24_f_967_953)">
<path d="M289.132 345.84C291.987 348.695 299.037 346.273 304.88 340.43C310.723 334.588 313.145 327.537 310.29 324.683C307.435 321.828 300.385 324.25 294.542 330.093C288.699 335.935 286.277 342.986 289.132 345.84Z" fill="#AFFF9B"/>
</g>
<g filter="url(#filter25_f_967_953)">
<path d="M257.798 250.35C239.985 254.998 225.728 268.447 219.952 285.775H219.926V283.777C226.156 267.037 240.294 254.144 257.798 249.639V250.35Z" fill="#BEDFB9"/>
</g>
<g filter="url(#filter26_f_967_953)">
<path d="M236.47 263.976C239.947 261.019 242.166 257.918 241.426 257.049C240.687 256.18 237.27 257.872 233.794 260.828C230.317 263.785 228.098 266.886 228.838 267.755C229.577 268.624 232.994 266.932 236.47 263.976Z" fill="#097200"/>
</g>
<g opacity="0.7" filter="url(#filter27_f_967_953)">
<path d="M238.147 265.951C245.984 259.286 250.986 252.295 249.32 250.336C247.653 248.377 239.95 252.191 232.113 258.856C224.276 265.521 219.274 272.512 220.94 274.471C222.607 276.43 230.31 272.616 238.147 265.951Z" fill="#097200"/>
</g>
<g filter="url(#filter28_f_967_953)">
<path d="M308.771 345.917C312.248 342.961 314.467 339.859 313.727 338.99C312.988 338.121 309.571 339.813 306.095 342.77C302.618 345.726 300.399 348.828 301.138 349.697C301.878 350.566 305.295 348.873 308.771 345.917Z" fill="#097200"/>
</g>
<g filter="url(#filter29_f_967_953)">
<path d="M237.162 264.79C239.891 262.469 241.196 259.519 240.075 258.202C238.954 256.884 235.833 257.698 233.104 260.019C230.375 262.34 229.07 265.29 230.191 266.608C231.312 267.925 234.433 267.112 237.162 264.79Z" fill="white"/>
</g>
<path opacity="0.6" d="M330.293 304.387C330.293 337.244 303.376 363.893 270.156 363.893C236.935 363.893 210.018 337.244 210.018 304.387C210.018 271.53 236.935 244.88 270.156 244.88C303.376 244.88 330.293 271.53 330.293 304.387Z" stroke="#097200" stroke-width="1.48748"/>
<path opacity="0.3" d="M333.372 304.597C333.372 339.888 304.419 368.512 268.686 368.512C232.952 368.512 204 339.888 204 304.597C204 269.306 232.952 240.682 268.686 240.682C304.419 240.682 333.372 269.306 333.372 304.597Z" stroke="#097200" stroke-width="1.48748"/>
<path opacity="0.12" d="M336.872 302.918C336.872 339.22 307.38 368.652 270.996 368.652C234.613 368.652 205.121 339.22 205.121 302.918C205.121 266.615 234.613 237.183 270.996 237.183C307.38 237.183 336.872 266.615 336.872 302.918Z" stroke="#097200" stroke-width="1.48748"/>
</g>
<path fill-rule="evenodd" clip-rule="evenodd" d="M273.807 267.789C274.548 269.215 274.699 271.831 274.837 274.223C274.872 274.821 274.905 275.405 274.947 275.953C275.749 286.36 277.459 298.875 282.705 305.317C285.92 309.267 292.328 310.845 299.014 312.492L299.015 312.492L299.016 312.493L299.017 312.493L299.018 312.493C299.551 312.624 300.085 312.756 300.62 312.889V312.886C303.103 313.507 304.991 314.14 305.359 315.704C298.335 317.236 285.268 318.791 271.715 319.208V319.208L271.713 319.208L271.712 319.208V319.208C258.159 318.791 245.091 317.236 238.068 315.704C238.436 314.14 240.324 313.507 242.807 312.886V312.889C243.342 312.756 243.877 312.624 244.411 312.492L244.411 312.492L244.412 312.492L244.413 312.492C251.098 310.845 257.506 309.267 260.721 305.317C265.968 298.875 267.678 286.36 268.479 275.953C268.521 275.405 268.555 274.821 268.59 274.223V274.223L268.59 274.223C268.726 271.854 268.876 269.265 269.598 267.83C269.963 266.751 270.771 266 271.71 266C272.636 266 273.436 266.732 273.807 267.789ZM271.716 344.658C271.808 344.658 271.901 344.658 271.993 344.651C275.29 344.469 277.568 339.945 278.974 337.152L279.011 337.078C279.468 336.17 279.9 335.262 280.324 334.367C281.525 331.839 282.671 329.427 284.18 327.476C287.011 323.821 292.675 321.717 297.663 320.275C297.909 320.203 298.283 320.12 298.735 320.019C300.818 319.553 304.574 318.714 305.291 316.946L305.289 316.946C304.91 317.023 289.271 320.182 271.712 320.96C254.153 320.182 238.514 317.023 238.135 316.946H238.135L238.133 316.946C238.85 318.714 242.606 319.553 244.689 320.019C245.142 320.12 245.516 320.203 245.762 320.275C250.75 321.717 256.413 323.821 259.245 327.476C260.754 329.427 261.9 331.839 263.1 334.367C263.525 335.262 263.957 336.17 264.414 337.078L264.451 337.152C265.857 339.945 268.134 344.469 271.431 344.651C271.524 344.658 271.616 344.658 271.709 344.658H271.712H271.716ZM305.416 316.418L305.416 316.418C305.418 316.387 305.421 316.356 305.421 316.32H305.425V316.397C305.425 316.409 305.421 316.42 305.418 316.431L305.418 316.431L305.417 316.436L305.415 316.444C305.414 316.448 305.413 316.452 305.412 316.456C305.413 316.443 305.414 316.43 305.416 316.418ZM305.412 316.465L305.412 316.456C305.412 316.459 305.412 316.462 305.412 316.465ZM238.003 316.319C238.003 316.355 238.006 316.386 238.009 316.417C238.01 316.429 238.011 316.442 238.012 316.455C238.011 316.446 238.009 316.438 238.006 316.43C238.003 316.419 238 316.407 238 316.396V316.319H238.003ZM238.013 316.464C238.013 316.461 238.013 316.458 238.012 316.455L238.013 316.464Z" fill="url(#paint6_linear_967_953)"/>
<path fill-rule="evenodd" clip-rule="evenodd" d="M318.916 463.244C319.845 465.033 320.034 468.314 320.207 471.315C320.251 472.065 320.293 472.798 320.346 473.485C321.351 486.539 323.496 502.237 330.077 510.317C334.11 515.273 342.148 517.253 350.534 519.318C351.204 519.483 351.876 519.649 352.549 519.816V519.812C355.663 520.591 358.031 521.385 358.493 523.348C349.683 525.269 333.291 527.219 316.291 527.742V527.742L316.289 527.742L316.287 527.742V527.742C299.287 527.219 282.895 525.269 274.085 523.348C274.547 521.385 276.915 520.591 280.029 519.812V519.816C280.702 519.649 281.374 519.483 282.044 519.318C290.43 517.253 298.468 515.273 302.501 510.317C309.082 502.237 311.227 486.539 312.232 473.485C312.285 472.798 312.327 472.065 312.371 471.315C312.542 468.342 312.73 465.095 313.636 463.295C314.094 461.941 315.108 461 316.285 461C317.447 461 318.45 461.918 318.916 463.244ZM316.292 559.666C316.408 559.666 316.524 559.666 316.64 559.658C320.776 559.429 323.633 553.754 325.396 550.251L325.443 550.159C326.016 549.02 326.557 547.88 327.09 546.758L327.09 546.758C328.596 543.587 330.033 540.56 331.926 538.114C335.478 533.528 342.582 530.889 348.839 529.081C349.148 528.991 349.617 528.886 350.184 528.76C352.798 528.176 357.509 527.123 358.408 524.905L358.406 524.906L358.406 524.906C357.93 525.002 338.313 528.965 316.288 529.94C294.261 528.965 274.643 525.001 274.169 524.906L274.167 524.905C275.066 527.123 279.778 528.176 282.391 528.76C282.959 528.886 283.427 528.991 283.736 529.081C289.993 530.889 297.097 533.528 300.649 538.114C302.542 540.56 303.979 543.586 305.485 546.758L305.485 546.758L305.485 546.758L305.485 546.758C306.018 547.88 306.559 549.02 307.132 550.159L307.179 550.251C308.942 553.754 311.799 559.429 315.935 559.658C316.051 559.666 316.167 559.666 316.283 559.666H316.287H316.292ZM358.564 524.243C358.568 524.204 358.571 524.166 358.571 524.12H358.575V524.217C358.575 524.231 358.571 524.245 358.567 524.259C358.564 524.27 358.561 524.28 358.56 524.29C358.561 524.274 358.563 524.259 358.564 524.243ZM358.559 524.302L358.56 524.29C358.56 524.294 358.559 524.298 358.559 524.302ZM274.004 524.119C274.004 524.165 274.008 524.203 274.011 524.242C274.013 524.257 274.014 524.273 274.015 524.289C274.014 524.279 274.011 524.269 274.008 524.258L274.008 524.258L274.008 524.258C274.004 524.244 274 524.23 274 524.216V524.119H274.004ZM274.016 524.301C274.016 524.297 274.016 524.293 274.015 524.289L274.016 524.301Z" fill="url(#paint7_linear_967_953)"/>
<defs>
<filter id="filter0_f_967_953" x="171.074" y="361.863" width="205.724" height="205.724" filterUnits="userSpaceOnUse" color-interpolation-filters="sRGB">
<feFlood flood-opacity="0" result="BackgroundImageFix"/>
<feBlend mode="normal" in="SourceGraphic" in2="BackgroundImageFix" result="shape"/>
<feGaussianBlur stdDeviation="37.6374" result="effect1_foregroundBlur_967_953"/>
</filter>
<filter id="filter1_f_967_953" x="36.2253" y="280.407" width="562.639" height="562.64" filterUnits="userSpaceOnUse" color-interpolation-filters="sRGB">
<feFlood flood-opacity="0" result="BackgroundImageFix"/>
<feBlend mode="normal" in="SourceGraphic" in2="BackgroundImageFix" result="shape"/>
<feGaussianBlur stdDeviation="117.522" result="effect1_foregroundBlur_967_953"/>
</filter>
<filter id="filter2_f_967_953" x="41.8713" y="184.602" width="551.347" height="551.348" filterUnits="userSpaceOnUse" color-interpolation-filters="sRGB">
<feFlood flood-opacity="0" result="BackgroundImageFix"/>
<feBlend mode="normal" in="SourceGraphic" in2="BackgroundImageFix" result="shape"/>
<feGaussianBlur stdDeviation="114.699" result="effect1_foregroundBlur_967_953"/>
</filter>
<filter id="filter3_i_967_953" x="223.767" y="414.555" width="164.969" height="164.969" filterUnits="userSpaceOnUse" color-interpolation-filters="sRGB">
<feFlood flood-opacity="0" result="BackgroundImageFix"/>
<feBlend mode="normal" in="SourceGraphic" in2="BackgroundImageFix" result="shape"/>
<feColorMatrix in="SourceAlpha" type="matrix" values="0 0 0 0 0 0 0 0 0 0 0 0 0 0 0 0 0 0 127 0" result="hardAlpha"/>
<feOffset dx="-22.5824" dy="-22.5824"/>
<feGaussianBlur stdDeviation="25.4052"/>
<feComposite in2="hardAlpha" operator="arithmetic" k2="-1" k3="1"/>
<feColorMatrix type="matrix" values="0 0 0 0 0.0468403 0 0 0 0 0.2375 0 0 0 0 0.0874324 0 0 0 1 0"/>
<feBlend mode="normal" in2="shape" result="effect1_innerShadow_967_953"/>
</filter>
<filter id="filter4_i_967_953" x="242.586" y="433.374" width="146.15" height="146.15" filterUnits="userSpaceOnUse" color-interpolation-filters="sRGB">
<feFlood flood-opacity="0" result="BackgroundImageFix"/>
<feBlend mode="normal" in="SourceGraphic" in2="BackgroundImageFix" result="shape"/>
<feColorMatrix in="SourceAlpha" type="matrix" values="0 0 0 0 0 0 0 0 0 0 0 0 0 0 0 0 0 0 127 0" result="hardAlpha"/>
<feOffset dx="-3.76374" dy="-3.76374"/>
<feGaussianBlur stdDeviation="7.52748"/>
<feComposite in2="hardAlpha" operator="arithmetic" k2="-1" k3="1"/>
<feColorMatrix type="matrix" values="0 0 0 0 0.751506 0 0 0 0 0.608333 0 0 0 0 1 0 0 0 1 0"/>
<feBlend mode="normal" in2="shape" result="effect1_innerShadow_967_953"/>
</filter>
<filter id="filter5_f_967_953" x="231.295" y="422.082" width="172.497" height="172.497" filterUnits="userSpaceOnUse" color-interpolation-filters="sRGB">
<feFlood flood-opacity="0" result="BackgroundImageFix"/>
<feBlend mode="normal" in="SourceGraphic" in2="BackgroundImageFix" result="shape"/>
<feGaussianBlur stdDeviation="7.52748" result="effect1_foregroundBlur_967_953"/>
</filter>
<filter id="filter6_i_967_953" x="246.35" y="437.138" width="145.209" height="145.21" filterUnits="userSpaceOnUse" color-interpolation-filters="sRGB">
<feFlood flood-opacity="0" result="BackgroundImageFix"/>
<feBlend mode="normal" in="SourceGraphic" in2="BackgroundImageFix" result="shape"/>
<feColorMatrix in="SourceAlpha" type="matrix" values="0 0 0 0 0 0 0 0 0 0 0 0 0 0 0 0 0 0 127 0" result="hardAlpha"/>
<feOffset dx="2.8228" dy="2.8228"/>
<feGaussianBlur stdDeviation="1.88187"/>
<feComposite in2="hardAlpha" operator="arithmetic" k2="-1" k3="1"/>
<feColorMatrix type="matrix" values="0 0 0 0 1 0 0 0 0 1 0 0 0 0 1 0 0 0 1 0"/>
<feBlend mode="normal" in2="shape" result="effect1_innerShadow_967_953"/>
</filter>
<filter id="filter7_f_967_953" x="227.502" y="411.168" width="131.617" height="131.617" filterUnits="userSpaceOnUse" color-interpolation-filters="sRGB">
<feFlood flood-opacity="0" result="BackgroundImageFix"/>
<feBlend mode="normal" in="SourceGraphic" in2="BackgroundImageFix" result="shape"/>
<feGaussianBlur stdDeviation="26.1647" result="effect1_foregroundBlur_967_953"/>
</filter>
<filter id="filter8_f_967_953" x="86.3469" y="321.474" width="356.352" height="405.808" filterUnits="userSpaceOnUse" color-interpolation-filters="sRGB">
<feFlood flood-opacity="0" result="BackgroundImageFix"/>
<feBlend mode="normal" in="SourceGraphic" in2="BackgroundImageFix" result="shape"/>
<feGaussianBlur stdDeviation="79.2601" result="effect1_foregroundBlur_967_953"/>
</filter>
<filter id="filter9_f_967_953" x="278.928" y="475.053" width="149.974" height="149.975" filterUnits="userSpaceOnUse" color-interpolation-filters="sRGB">
<feFlood flood-opacity="0" result="BackgroundImageFix"/>
<feBlend mode="normal" in="SourceGraphic" in2="BackgroundImageFix" result="shape"/>
<feGaussianBlur stdDeviation="29.8834" result="effect1_foregroundBlur_967_953"/>
</filter>
<filter id="filter10_f_967_953" x="239.511" y="428.09" width="71.5274" height="69.2846" filterUnits="userSpaceOnUse" color-interpolation-filters="sRGB">
<feFlood flood-opacity="0" result="BackgroundImageFix"/>
<feBlend mode="normal" in="SourceGraphic" in2="BackgroundImageFix" result="shape"/>
<feGaussianBlur stdDeviation="5.64561" result="effect1_foregroundBlur_967_953"/>
</filter>
<filter id="filter11_f_967_953" x="242.375" y="428.905" width="56.156" height="53.9451" filterUnits="userSpaceOnUse" color-interpolation-filters="sRGB">
<feFlood flood-opacity="0" result="BackgroundImageFix"/>
<feBlend mode="normal" in="SourceGraphic" in2="BackgroundImageFix" result="shape"/>
<feGaussianBlur stdDeviation="9.87982" result="effect1_foregroundBlur_967_953"/>
</filter>
<filter id="filter12_f_967_953" x="147.22" y="335.135" width="246.465" height="241.482" filterUnits="userSpaceOnUse" color-interpolation-filters="sRGB">
<feFlood flood-opacity="0" result="BackgroundImageFix"/>
<feBlend mode="normal" in="SourceGraphic" in2="BackgroundImageFix" result="shape"/>
<feGaussianBlur stdDeviation="52.2402" result="effect1_foregroundBlur_967_953"/>
</filter>
<filter id="filter13_f_967_953" x="311.71" y="510.699" width="104.368" height="102.157" filterUnits="userSpaceOnUse" color-interpolation-filters="sRGB">
<feFlood flood-opacity="0" result="BackgroundImageFix"/>
<feBlend mode="normal" in="SourceGraphic" in2="BackgroundImageFix" result="shape"/>
<feGaussianBlur stdDeviation="21.9328" result="effect1_foregroundBlur_967_953"/>
</filter>
<filter id="filter14_f_967_953" x="203.871" y="389.952" width="133.167" height="131.849" filterUnits="userSpaceOnUse" color-interpolation-filters="sRGB">
<feFlood flood-opacity="0" result="BackgroundImageFix"/>
<feBlend mode="normal" in="SourceGraphic" in2="BackgroundImageFix" result="shape"/>
<feGaussianBlur stdDeviation="29.8388" result="effect1_foregroundBlur_967_953"/>
</filter>
<filter id="filter15_f_967_953" x="141.207" y="172.629" width="193.242" height="193.241" filterUnits="userSpaceOnUse" color-interpolation-filters="sRGB">
<feFlood flood-opacity="0" result="BackgroundImageFix"/>
<feBlend mode="normal" in="SourceGraphic" in2="BackgroundImageFix" result="shape"/>
<feGaussianBlur stdDeviation="37.6374" result="effect1_foregroundBlur_967_953"/>
</filter>
<filter id="filter16_f_967_953" x="0.718445" y="73.4531" width="541.701" height="541.699" filterUnits="userSpaceOnUse" color-interpolation-filters="sRGB">
<feFlood flood-opacity="0" result="BackgroundImageFix"/>
<feBlend mode="normal" in="SourceGraphic" in2="BackgroundImageFix" result="shape"/>
<feGaussianBlur stdDeviation="117.522" result="effect1_foregroundBlur_967_953"/>
</filter>
<filter id="filter17_f_967_953" x="6.36446" y="0.602005" width="530.409" height="530.407" filterUnits="userSpaceOnUse" color-interpolation-filters="sRGB">
<feFlood flood-opacity="0" result="BackgroundImageFix"/>
<feBlend mode="normal" in="SourceGraphic" in2="BackgroundImageFix" result="shape"/>
<feGaussianBlur stdDeviation="114.699" result="effect1_foregroundBlur_967_953"/>
</filter>
<filter id="filter18_i_967_953" x="193.899" y="225.322" width="132.757" height="132.754" filterUnits="userSpaceOnUse" color-interpolation-filters="sRGB">
<feFlood flood-opacity="0" result="BackgroundImageFix"/>
<feBlend mode="normal" in="SourceGraphic" in2="BackgroundImageFix" result="shape"/>
<feColorMatrix in="SourceAlpha" type="matrix" values="0 0 0 0 0 0 0 0 0 0 0 0 0 0 0 0 0 0 127 0" result="hardAlpha"/>
<feOffset dx="-22.5824" dy="-22.5824"/>
<feGaussianBlur stdDeviation="25.4052"/>
<feComposite in2="hardAlpha" operator="arithmetic" k2="-1" k3="1"/>
<feColorMatrix type="matrix" values="0 0 0 0 0.0468403 0 0 0 0 0.2375 0 0 0 0 0.0874324 0 0 0 1 0"/>
<feBlend mode="normal" in2="shape" result="effect1_innerShadow_967_953"/>
</filter>
<filter id="filter19_i_967_953" x="212.717" y="244.141" width="113.938" height="113.936" filterUnits="userSpaceOnUse" color-interpolation-filters="sRGB">
<feFlood flood-opacity="0" result="BackgroundImageFix"/>
<feBlend mode="normal" in="SourceGraphic" in2="BackgroundImageFix" result="shape"/>
<feColorMatrix in="SourceAlpha" type="matrix" values="0 0 0 0 0 0 0 0 0 0 0 0 0 0 0 0 0 0 127 0" result="hardAlpha"/>
<feOffset dx="-3.76374" dy="-3.76374"/>
<feGaussianBlur stdDeviation="7.52748"/>
<feComposite in2="hardAlpha" operator="arithmetic" k2="-1" k3="1"/>
<feColorMatrix type="matrix" values="0 0 0 0 0.751506 0 0 0 0 0.608333 0 0 0 0 1 0 0 0 1 0"/>
<feBlend mode="normal" in2="shape" result="effect1_innerShadow_967_953"/>
</filter>
<filter id="filter20_f_967_953" x="201.425" y="232.848" width="140.284" height="140.282" filterUnits="userSpaceOnUse" color-interpolation-filters="sRGB">
<feFlood flood-opacity="0" result="BackgroundImageFix"/>
<feBlend mode="normal" in="SourceGraphic" in2="BackgroundImageFix" result="shape"/>
<feGaussianBlur stdDeviation="7.52748" result="effect1_foregroundBlur_967_953"/>
</filter>
<filter id="filter21_i_967_953" x="216.481" y="247.904" width="112.997" height="112.995" filterUnits="userSpaceOnUse" color-interpolation-filters="sRGB">
<feFlood flood-opacity="0" result="BackgroundImageFix"/>
<feBlend mode="normal" in="SourceGraphic" in2="BackgroundImageFix" result="shape"/>
<feColorMatrix in="SourceAlpha" type="matrix" values="0 0 0 0 0 0 0 0 0 0 0 0 0 0 0 0 0 0 127 0" result="hardAlpha"/>
<feOffset dx="2.8228" dy="2.8228"/>
<feGaussianBlur stdDeviation="1.88187"/>
<feComposite in2="hardAlpha" operator="arithmetic" k2="-1" k3="1"/>
<feColorMatrix type="matrix" values="0 0 0 0 1 0 0 0 0 1 0 0 0 0 1 0 0 0 1 0"/>
<feBlend mode="normal" in2="shape" result="effect1_innerShadow_967_953"/>
</filter>
<filter id="filter22_f_967_953" x="190.059" y="215.971" width="125.518" height="125.517" filterUnits="userSpaceOnUse" color-interpolation-filters="sRGB">
<feFlood flood-opacity="0" result="BackgroundImageFix"/>
<feBlend mode="normal" in="SourceGraphic" in2="BackgroundImageFix" result="shape"/>
<feGaussianBlur stdDeviation="26.1647" result="effect1_foregroundBlur_967_953"/>
</filter>
<filter id="filter23_f_967_953" x="56.8137" y="122.543" width="347.459" height="385.724" filterUnits="userSpaceOnUse" color-interpolation-filters="sRGB">
<feFlood flood-opacity="0" result="BackgroundImageFix"/>
<feBlend mode="normal" in="SourceGraphic" in2="BackgroundImageFix" result="shape"/>
<feGaussianBlur stdDeviation="79.2601" result="effect1_foregroundBlur_967_953"/>
</filter>
<filter id="filter24_f_967_953" x="228.167" y="263.718" width="143.088" height="143.087" filterUnits="userSpaceOnUse" color-interpolation-filters="sRGB">
<feFlood flood-opacity="0" result="BackgroundImageFix"/>
<feBlend mode="normal" in="SourceGraphic" in2="BackgroundImageFix" result="shape"/>
<feGaussianBlur stdDeviation="29.8834" result="effect1_foregroundBlur_967_953"/>
</filter>
<filter id="filter25_f_967_953" x="208.635" y="238.347" width="60.4544" height="58.7182" filterUnits="userSpaceOnUse" color-interpolation-filters="sRGB">
<feFlood flood-opacity="0" result="BackgroundImageFix"/>
<feBlend mode="normal" in="SourceGraphic" in2="BackgroundImageFix" result="shape"/>
<feGaussianBlur stdDeviation="5.64561" result="effect1_foregroundBlur_967_953"/>
</filter>
<filter id="filter26_f_967_953" x="208.936" y="237.062" width="52.3922" height="50.6814" filterUnits="userSpaceOnUse" color-interpolation-filters="sRGB">
<feFlood flood-opacity="0" result="BackgroundImageFix"/>
<feBlend mode="normal" in="SourceGraphic" in2="BackgroundImageFix" result="shape"/>
<feGaussianBlur stdDeviation="9.87982" result="effect1_foregroundBlur_967_953"/>
</filter>
<filter id="filter27_f_967_953" x="116.14" y="145.342" width="237.98" height="234.124" filterUnits="userSpaceOnUse" color-interpolation-filters="sRGB">
<feFlood flood-opacity="0" result="BackgroundImageFix"/>
<feBlend mode="normal" in="SourceGraphic" in2="BackgroundImageFix" result="shape"/>
<feGaussianBlur stdDeviation="52.2402" result="effect1_foregroundBlur_967_953"/>
</filter>
<filter id="filter28_f_967_953" x="257.131" y="294.897" width="100.604" height="98.8933" filterUnits="userSpaceOnUse" color-interpolation-filters="sRGB">
<feFlood flood-opacity="0" result="BackgroundImageFix"/>
<feBlend mode="normal" in="SourceGraphic" in2="BackgroundImageFix" result="shape"/>
<feGaussianBlur stdDeviation="21.9328" result="effect1_foregroundBlur_967_953"/>
</filter>
<filter id="filter29_f_967_953" x="170.112" y="197.894" width="130.043" height="129.022" filterUnits="userSpaceOnUse" color-interpolation-filters="sRGB">
<feFlood flood-opacity="0" result="BackgroundImageFix"/>
<feBlend mode="normal" in="SourceGraphic" in2="BackgroundImageFix" result="shape"/>
<feGaussianBlur stdDeviation="29.8388" result="effect1_foregroundBlur_967_953"/>
</filter>
<linearGradient id="paint0_linear_967_953" x1="246.35" y1="437.137" x2="388.736" y2="579.523" gradientUnits="userSpaceOnUse">
<stop stop-color="#3DFB0D"/>
<stop offset="0.755208" stop-color="#67FB0D" stop-opacity="0.1"/>
</linearGradient>
<linearGradient id="paint1_linear_967_953" x1="266.284" y1="457.071" x2="368.802" y2="559.589" gradientUnits="userSpaceOnUse">
<stop stop-color="#7CFF79"/>
<stop offset="0.255208" stop-color="#5CFF63"/>
<stop offset="0.541667" stop-color="#8EFF66"/>
<stop offset="1" stop-color="#00A825"/>
</linearGradient>
<linearGradient id="paint2_linear_967_953" x1="246.35" y1="437.137" x2="388.736" y2="579.523" gradientUnits="userSpaceOnUse">
<stop stop-color="#CDF9B2"/>
<stop offset="1" stop-color="#24FF00" stop-opacity="0.1"/>
</linearGradient>
<linearGradient id="paint3_linear_967_953" x1="216.481" y1="247.904" x2="326.653" y2="358.078" gradientUnits="userSpaceOnUse">
<stop stop-color="#3DFB0D"/>
<stop offset="0.755208" stop-color="#67FB0D" stop-opacity="0.1"/>
</linearGradient>
<linearGradient id="paint4_linear_967_953" x1="231.905" y1="263.328" x2="311.229" y2="342.654" gradientUnits="userSpaceOnUse">
<stop stop-color="#7CFF79"/>
<stop offset="0.255208" stop-color="#5CFF63"/>
<stop offset="0.541667" stop-color="#8EFF66"/>
<stop offset="1" stop-color="#00A825"/>
</linearGradient>
<linearGradient id="paint5_linear_967_953" x1="216.481" y1="247.904" x2="326.653" y2="358.078" gradientUnits="userSpaceOnUse">
<stop stop-color="#CDF9B2"/>
<stop offset="1" stop-color="#24FF00" stop-opacity="0.1"/>
</linearGradient>
<linearGradient id="paint6_linear_967_953" x1="271.712" y1="266" x2="271.712" y2="344.658" gradientUnits="userSpaceOnUse">
<stop stop-color="#55FF79"/>
<stop offset="1" stop-color="#097200"/>
</linearGradient>
<linearGradient id="paint7_linear_967_953" x1="316.288" y1="461" x2="316.288" y2="559.666" gradientUnits="userSpaceOnUse">
<stop stop-color="#55FF79"/>
<stop offset="1" stop-color="#097200"/>
</linearGradient>
</defs>
</svg>
