<svg width="1440" height="1186" viewBox="0 0 1440 1186" fill="none" xmlns="http://www.w3.org/2000/svg">
<path d="M1295.12 538.826C1286.43 573.128 1262.13 601.789 1225.52 624.233C1188.92 646.679 1140.05 662.887 1082.3 672.283C966.825 691.073 815.976 682.595 657.14 642.372C498.304 602.15 361.601 537.81 268.983 466.322C222.673 430.578 187.405 393.062 165.894 355.899C144.385 318.739 136.648 281.964 145.335 247.661C154.021 213.359 178.329 184.698 214.932 162.254C251.537 139.808 300.411 123.6 358.151 114.204C473.631 95.4141 624.48 103.892 783.316 144.115C942.152 184.337 1078.85 248.677 1171.47 320.165C1217.78 355.909 1253.05 393.425 1274.56 430.588C1296.07 467.748 1303.81 504.523 1295.12 538.826Z" stroke="url(#paint0_linear_404_53)"/>
<path d="M1555.73 604.821C1543.09 654.733 1507.72 696.418 1454.51 729.049C1401.29 761.681 1330.25 785.238 1246.34 798.892C1078.52 826.199 859.311 813.877 628.51 755.431C397.71 696.984 199.06 603.491 64.462 499.602C-2.83749 447.656 -54.1039 393.127 -85.3766 339.099C-116.648 285.073 -127.911 231.58 -115.272 181.667C-102.632 131.755 -67.2661 90.0696 -14.0509 57.4391C39.167 24.8069 110.208 1.24963 194.119 -12.4041C361.94 -39.7113 581.145 -27.3893 811.946 31.0571C1042.75 89.5036 1241.4 182.997 1375.99 286.886C1443.29 338.832 1494.56 393.361 1525.83 447.389C1557.1 501.414 1568.37 554.908 1555.73 604.821Z" stroke="url(#paint1_linear_404_53)"/>
<path d="M1872.84 685.123C1855.39 754.03 1806.57 811.564 1733.14 856.589C1659.7 901.617 1561.69 934.116 1445.93 952.951C1214.42 990.622 912.041 973.622 593.673 893.001C275.305 812.379 1.27733 683.413 -184.401 540.096C-277.242 468.437 -347.974 393.205 -391.126 318.655C-434.275 244.107 -449.83 170.272 -432.381 101.365C-414.931 32.4573 -366.109 -25.0761 -292.679 -70.1017C-219.247 -115.129 -121.233 -147.628 -5.47688 -166.464C226.034 -204.134 528.416 -187.135 846.784 -106.513C1165.15 -25.8918 1439.18 103.075 1624.86 246.392C1717.7 318.051 1788.43 393.283 1831.58 467.833C1874.73 542.38 1890.29 616.216 1872.84 685.123Z" stroke="url(#paint2_linear_404_53)"/>
<defs>
<linearGradient id="paint0_linear_404_53" x1="185.152" y1="227.795" x2="1181.21" y2="641.025" gradientUnits="userSpaceOnUse">
<stop stop-color="#484848"/>
<stop offset="0.491388" stop-color="#484848" stop-opacity="0.36"/>
<stop offset="1" stop-color="#484848"/>
</linearGradient>
<linearGradient id="paint1_linear_404_53" x1="-57.2009" y1="152.859" x2="1390" y2="753.253" gradientUnits="userSpaceOnUse">
<stop stop-color="#484848"/>
<stop offset="0.491388" stop-color="#484848" stop-opacity="0.36"/>
<stop offset="1" stop-color="#484848"/>
</linearGradient>
<linearGradient id="paint2_linear_404_53" x1="-352.098" y1="61.6755" x2="1644.07" y2="889.813" gradientUnits="userSpaceOnUse">
<stop stop-color="#484848"/>
<stop offset="0.491388" stop-color="#484848" stop-opacity="0.36"/>
<stop offset="1" stop-color="#484848"/>
</linearGradient>
</defs>
</svg>
