<svg width="161" height="51" viewBox="0 0 161 51" fill="none" xmlns="http://www.w3.org/2000/svg">
<path d="M13.2004 16.1C13.2004 16.1 13.0004 16.2 12.8004 16.2C12.6004 16.2 12.4004 16.2 12.4004 16.3C12.4004 16.3 12.2004 16.4 12.0004 16.4C11.8004 16.4 11.7004 16.4 11.7004 16.5C11.7004 16.6 11.6004 16.6 11.3004 16.6C11.1004 16.6 10.9004 16.6 10.9004 16.7C10.9004 16.7 10.8004 16.8 10.7004 16.8C10.6004 16.8 10.5004 16.8 10.4004 16.9C10.4004 17 10.3004 17 10.1004 17C10.0004 17 9.90039 17 9.90039 17.1C9.90039 17.1 9.80039 17.2 9.70039 17.2C9.60039 17.2 9.50039 17.2 9.50039 17.3C9.50039 17.3 9.40039 17.4 9.30039 17.4C9.10039 17.4 9.00039 17.4 9.00039 17.5C9.00039 17.6 8.90039 17.6 8.70039 17.6C8.60039 17.6 8.50039 17.6 8.50039 17.7C8.50039 17.7 8.40039 17.8 8.30039 17.8C8.20039 17.8 8.10039 17.9 8.10039 17.9C8.10039 17.9 8.00039 18 7.90039 18C7.80039 18 7.70039 18 7.70039 18.1C7.70039 18.1 7.60039 18.2 7.50039 18.2C7.40039 18.2 7.30039 18.2 7.30039 18.3C7.20039 18 7.10039 18 7.00039 18C6.90039 18 6.80039 18.1 6.80039 18.1C6.80039 18.1 6.70039 18.2 6.60039 18.2C6.50039 18.2 6.40039 18.2 6.40039 18.3C6.40039 18.3 6.30039 18.4 6.20039 18.4C6.10039 18.4 6.00039 18.4 5.90039 18.5C5.90039 18.6 5.70039 18.6 5.70039 18.6C5.60039 18.6 5.50039 18.6 5.50039 18.7C5.50039 18.7 5.40039 18.8 5.30039 18.8C5.20039 18.8 5.00039 18.9 5.00039 18.9C4.90039 19 4.90039 19 4.80039 19C4.70039 19 4.70039 19 4.70039 19.1C4.70039 19.2 4.60039 19.2 4.50039 19.2C4.40039 19.2 4.20039 19.2 4.10039 19.3C4.00039 19.4 3.90039 19.4 3.80039 19.4C3.80039 19.4 3.70039 19.4 3.80039 19.5C3.80039 19.6 3.70039 19.6 3.40039 19.6C3.20039 19.6 3.00039 19.7 3.00039 19.7C3.00039 19.7 2.90039 19.8 2.70039 19.8C2.60039 19.8 2.40039 19.8 2.30039 19.9C2.20039 20 2.10039 20 2.10039 20H2.00039C2.00039 20 2.00039 19.9 1.90039 19.9C1.70039 20 1.60039 20.1 1.60039 20.2C1.60039 20.2 1.50039 20.3 1.40039 20.4C1.30039 20.5 1.20039 20.6 1.20039 20.7C1.20039 20.8 1.20039 20.9 1.10039 20.9C1.00039 20.9 1.00039 29 1.10039 29.1C1.10039 29.1 1.20039 29.6 1.20039 30.4C1.20039 31.1 1.20039 31.7 1.30039 31.7C1.30039 31.7 1.40039 32.1 1.40039 32.5C1.40039 33.1 1.40039 33.3 1.50039 33.3C1.60039 33.3 1.60039 33.5 1.60039 33.9C1.60039 34.2 1.60039 34.5 1.70039 34.5C1.70039 34.5 1.80039 34.7 1.80039 34.9C1.80039 35.1 1.90039 35.3 1.90039 35.3C2.00039 35.3 2.00039 35.4 2.00039 35.6C2.00039 35.7 2.00039 35.8 2.10039 35.8L2.20039 35.9C2.20039 36.1 2.40039 36.5 2.50039 36.5C2.50039 36.5 2.60039 36.5 2.60039 36.6C2.60039 36.7 2.80039 37.1 2.90039 37.1C2.90039 37.1 3.00039 37.1 3.00039 37.2C3.00039 37.2 3.00039 37.3 3.10039 37.4C3.30039 37.6 3.40039 37.7 3.30039 37.7C3.30039 37.7 3.40039 37.8 3.50039 38C3.70039 38.1 3.80039 38.4 3.90039 38.5C4.00039 38.7 4.10039 38.9 4.20039 38.9C4.30039 38.9 4.70039 39.4 4.90039 39.6C5.00039 39.7 5.10039 39.9 5.20039 40C5.30039 40.1 5.40039 40.2 5.30039 40.2C5.30039 40.2 5.30039 40.2 5.40039 40.2C5.50039 40.2 5.60039 40.3 5.70039 40.4C5.90039 40.6 6.60039 41.4 6.60039 41.4C6.70039 41.4 7.00039 41.8 7.00039 41.8C7.00039 41.8 7.00039 41.9 7.10039 41.9C7.20039 41.9 7.20039 41.9 7.20039 42C7.20039 42.1 7.20039 42.1 7.30039 42.1C7.30039 42.1 7.40039 42.2 7.50039 42.3C7.60039 42.4 7.70039 42.5 7.80039 42.5C7.90039 42.5 7.90039 42.5 7.90039 42.6C7.90039 42.6 7.90039 42.7 8.00039 42.7C8.10039 42.7 8.30039 42.9 8.30039 43C8.30039 43 8.30039 43.1 8.40039 43.1C8.50039 43.1 8.80039 43.5 8.80039 43.5C8.80039 43.5 8.80039 43.6 8.90039 43.6C8.90039 43.6 9.10039 43.7 9.30039 43.9C9.20039 43.9 9.40039 44 9.40039 44C9.40039 44 9.50039 44 9.40039 44.1C9.40039 44.1 9.40039 44.2 9.50039 44.2C9.70039 44.3 9.80039 44.4 9.80039 44.5C9.80039 44.5 9.80039 44.6 9.90039 44.6C10.0004 44.6 10.1004 44.7 10.2004 44.8C10.3004 44.9 10.5004 45 10.5004 45C10.5004 45 10.6004 45.1 10.7004 45.2C10.8004 45.3 10.9004 45.4 10.9004 45.4C10.9004 45.4 11.0004 45.4 11.0004 45.5C11.0004 45.5 11.0004 45.6 11.1004 45.6C11.2004 45.6 11.2004 45.6 11.2004 45.7C11.2004 45.8 11.5004 46.1 11.6004 46.1C11.7004 46.1 11.7004 46.2 11.7004 46.2C11.7004 46.3 11.8004 46.4 11.9004 46.4C12.0004 46.4 12.1004 46.5 12.1004 46.5C12.1004 46.6 12.1004 46.6 12.2004 46.6C12.3004 46.6 12.3004 46.6 12.3004 46.7C12.3004 46.7 12.3004 46.8 12.4004 46.8C12.5004 46.8 12.5004 46.8 12.5004 46.9C12.5004 47 12.5004 47 12.6004 47C12.7004 47 12.7004 47.1 12.8004 47.2C12.8004 47.3 12.9004 47.4 13.0004 47.4C13.1004 47.4 13.2004 47.5 13.3004 47.6C13.4004 47.7 13.6004 47.8 13.6004 47.8L13.7004 47.9C13.7004 48 13.7004 48 13.8004 48C13.8004 48 13.9004 48 14.0004 48.1C14.2004 48.2 14.3004 48.2 14.6004 48C14.7004 47.9 14.9004 47.8 14.9004 47.8C14.9004 47.8 15.0004 47.8 14.9004 47.7C14.9004 47.6 15.1004 47.5 15.2004 47.5C15.2004 47.4 15.2004 47.3 15.3004 47.3H15.4004C15.4004 47.3 15.4004 47.2 15.3004 47.2C15.3004 47.2 15.2004 47.2 15.3004 47.2C15.3004 47.2 15.4004 45.2 15.4004 41.3V35.4H15.6004C15.7004 35.4 15.9004 35.5 16.1004 35.5C16.3004 35.5 16.5004 35.6 16.6004 35.6C16.8004 35.6 16.7004 35.6 15.9004 35.3C14.4004 34.9 13.3004 33.7 12.6004 31.8C12.5004 31.5 12.4004 31.2 12.4004 31.1C12.4004 31 12.3004 30.8 12.2004 30.5C12.0004 29.7 11.9004 29.6 11.7004 29.3C10.9004 28.5 10.0004 28.6 6.50039 29.9C5.70039 30.2 5.60039 30.2 5.20039 30.7C4.20039 31.8 3.20039 31.8 3.20039 30.7C3.20039 29.9 4.80039 29.2 5.30039 29.8C5.50039 30 5.60039 30 6.00039 29.8C6.50039 29.5 8.10039 28.7 9.30039 28.1C9.70039 27.9 9.80039 27.8 10.0004 27.3C10.5004 26.4 11.0004 25.9 11.9004 25.6C12.9004 25.3 13.4004 25.4 15.3004 26.3C16.0004 26.7 16.7004 27 16.7004 27C16.7004 27 16.7004 26.9 16.6004 26.9C16.5004 26.8 16.4004 26.8 16.3004 26.7C16.2004 26.7 16.1004 26.6 15.9004 26.5C15.4004 26.3 15.4004 26.6 15.5004 21.1C15.5004 17.2 15.5004 16 15.4004 16C15.2004 16 13.3004 16 13.2004 16.1ZM23.0004 21.8L22.8004 22L23.0004 21.8C23.1004 21.7 23.2004 21.7 23.2004 21.6C23.3004 21.6 23.2004 21.7 23.0004 21.8ZM26.4004 21.9C26.3004 22 26.2004 22 26.3004 22L26.5004 21.9C26.7004 21.8 26.7004 21.8 26.4004 21.9ZM22.5004 22.3C22.3004 22.5 22.3004 22.5 22.4004 22.4C22.6004 22.3 22.8004 22 22.8004 22C22.8004 22 22.6004 22.1 22.5004 22.3ZM24.8004 23C24.6004 23.2 24.5004 23.2 24.4004 23.1C24.4004 23 24.4004 23 24.4004 23.1C24.4004 23.2 24.6004 23.2 24.8004 23C25.0004 22.9 25.1004 22.9 25.0004 22.9C25.0004 22.9 24.9004 22.9 24.8004 23ZM21.3004 23.3L21.0004 23.6L21.3004 23.3C21.6004 23.1 21.7004 23 21.6004 23C21.5004 23 21.4004 23.1 21.3004 23.3ZM20.0004 24.5L19.8004 24.8L20.0004 24.5C20.2004 24.4 20.3004 24.3 20.3004 24.3C20.3004 24.2 20.2004 24.3 20.0004 24.5ZM18.3004 26.5C18.2004 26.7 18.1004 26.8 18.1004 26.8L18.5004 26.3C18.5004 26.3 18.4004 26.4 18.3004 26.5ZM17.9004 27.1C17.8004 27.2 17.8004 27.3 17.8004 27.3C17.8004 27.3 17.9004 27.2 17.9004 27.1C18.1004 27 18.1004 26.9 18.1004 26.9C18.1004 26.9 18.0004 27 17.9004 27.1ZM25.9004 30.8C25.8004 30.9 25.7004 31 25.7004 31C25.7004 31 25.9004 30.9 25.9004 30.8C26.3004 30.6 26.3004 30.6 25.9004 30.8ZM25.1004 31.3C24.8004 31.4 24.8004 31.5 25.1004 31.3C25.2004 31.3 25.3004 31.2 25.3004 31.2C25.3004 31.2 25.3004 31.2 25.1004 31.3ZM24.2004 31.7C24.0004 31.8 24.1004 31.8 24.3004 31.7C24.4004 31.6 24.5004 31.6 24.4004 31.6C24.4004 31.6 24.3004 31.6 24.2004 31.7ZM22.0004 32.4C21.9004 32.4 21.9004 32.4 22.0004 32.4C22.0004 32.5 22.1004 32.4 22.2004 32.4C22.3004 32.4 22.3004 32.3 22.2004 32.3C22.2004 32.3 22.1004 32.3 22.0004 32.4ZM21.1004 32.6C21.1004 32.7 21.4004 33.3 21.4004 33.3C21.4004 33.3 21.3004 33.2 21.2004 33C21.0004 32.7 21.0004 32.7 21.1004 32.6C21.2004 32.5 21.2004 32.5 21.1004 32.6C21.1004 32.6 21.2004 32.5 21.1004 32.6ZM21.6004 33.6C21.7004 33.7 21.7004 33.8 21.7004 33.8C21.8004 33.8 21.7004 33.7 21.6004 33.6C21.6004 33.5 21.5004 33.4 21.5004 33.4C21.5004 33.4 21.6004 33.5 21.6004 33.6ZM22.2004 36.5L22.0004 36.7L22.2004 36.5C22.3004 36.4 22.5004 36.3 22.5004 36.3C22.5004 36.2 22.4004 36.3 22.2004 36.5ZM18.5004 38C18.5004 38.1 18.3004 38.3 18.1004 38.5C17.8004 38.9 17.9004 39 18.2004 38.8C18.3004 38.7 18.3004 38.7 18.3004 38.7C18.3004 38.7 18.2004 38.7 18.1004 38.8C18.0004 38.9 17.9004 38.8 18.0004 38.7C18.4004 38.2 18.6004 37.9 18.5004 38C18.5004 37.9 18.6004 37.9 18.5004 38Z" fill="white"/>
<path d="M16.5008 16.4001C16.5008 16.5001 16.5008 16.5001 16.5008 16.4001C16.7008 16.4001 16.7008 16.4001 16.6008 16.5001C16.5008 16.6001 16.5008 26.8001 16.6008 26.8001C16.6008 26.8001 16.7008 26.8001 16.7008 26.9001C16.7008 27.0001 16.8008 27.0001 16.9008 27.0001C17.0008 27.0001 17.1008 27.0001 17.2008 27.1001C17.4008 27.2001 17.8008 27.3001 17.8008 27.2001C17.8008 27.2001 17.8008 27.1001 17.9008 27.0001C18.0008 26.9001 18.1008 26.8001 18.2008 26.6001C18.3008 26.4001 18.5008 26.2001 18.6008 26.1001C18.7008 26.0001 18.9008 25.8001 19.0008 25.6001C19.1008 25.4001 19.3008 25.2001 19.4008 25.1001C19.5008 25.0001 19.7008 24.8001 19.8008 24.6001C20.0008 24.3001 21.4008 23.0001 21.6008 22.8001C21.7008 22.7001 21.9008 22.6001 22.0008 22.5001C22.1008 22.4001 22.3008 22.2001 22.4008 22.1001C22.5008 22.0001 22.7008 21.9001 22.7008 21.9001C22.7008 21.9001 22.7008 21.8001 22.8008 21.8001C22.9008 21.8001 22.9008 21.8001 22.9008 21.7001C22.9008 21.7001 23.1008 21.5001 23.4008 21.3001L23.9008 21.0001L24.1008 21.2001C24.2008 21.3001 24.3008 21.5001 24.3008 21.6001C24.3008 21.7001 24.3008 21.8001 24.4008 21.8001C24.4008 21.8001 24.5008 21.9001 24.5008 22.0001C24.5008 22.1001 24.5008 22.2001 24.6008 22.2001C24.6008 22.2001 24.7008 22.3001 24.7008 22.4001C24.8008 22.7001 24.9008 22.8001 25.1008 22.6001C25.2008 22.5001 25.3008 22.5001 25.3008 22.5001C25.3008 22.5001 25.7008 22.2001 26.2008 21.9001C27.3008 21.2001 27.5008 21.0001 27.7008 21.0001C27.8008 21.0001 27.8008 20.7001 27.7008 20.6001C27.7008 20.6001 27.6008 20.5001 27.6008 20.4001C27.6008 20.3001 27.6008 20.2001 27.5008 20.2001C27.4008 20.2001 27.4008 20.1001 27.4008 20.1001C27.4008 20.0001 27.2008 19.8001 27.1008 19.8001C27.1008 19.8001 27.0008 19.8001 27.0008 19.7001C27.0008 19.6001 26.9008 19.6001 26.9008 19.6001C26.8008 19.6001 26.8008 19.6001 26.8008 19.5001C26.8008 19.4001 26.3008 19.2001 26.1008 19.2001C26.0008 19.2001 25.9008 19.2001 25.9008 19.1001C25.9008 19.1001 25.7008 19.0001 25.5008 19.0001C25.2008 19.0001 25.1008 19.0001 25.0008 18.9001C25.0008 18.8001 24.9008 18.8001 24.7008 18.8001C24.6008 18.8001 24.5008 18.8001 24.5008 18.7001C24.5008 18.6001 24.4008 18.6001 24.3008 18.6001C24.2008 18.6001 24.1008 18.6001 24.1008 18.5001C24.1008 18.4001 24.0008 18.4001 23.8008 18.4001C23.7008 18.4001 23.6008 18.4001 23.6008 18.3001L23.5008 18.2001C23.5008 18.2001 23.3008 18.2001 23.3008 18.1001C23.3008 18.1001 23.1008 18.0001 23.0008 18.0001C22.8008 18.0001 22.8008 18.0001 22.8008 17.9001C22.8008 17.8001 22.7008 17.8001 22.6008 17.8001C22.5008 17.8001 22.4008 17.8001 22.4008 17.7001C22.4008 17.7001 22.3008 17.6001 22.2008 17.6001C22.0008 17.6001 22.0008 17.6001 22.0008 17.5001C22.0008 17.4001 21.9008 17.4001 21.8008 17.4001C21.7008 17.4001 21.6008 17.4001 21.6008 17.3001C21.6008 17.3001 21.5008 17.2001 21.3008 17.2001C21.2008 17.2001 21.1008 17.2001 21.1008 17.1001C21.1008 17.1001 21.0008 17.0001 20.9008 17.0001C20.7008 17.0001 20.7008 17.0001 20.7008 16.9001C20.7008 16.8001 20.6008 16.8001 20.5008 16.8001C20.4008 16.8001 20.3008 16.8001 20.3008 16.7001C20.3008 16.7001 20.2008 16.6001 20.1008 16.6001C20.0008 16.6001 19.9008 16.6001 19.9008 16.5001C19.8008 16.4001 19.7008 16.4001 19.1008 16.3001C19.0008 16.3001 18.9008 16.2001 18.9008 16.2001C18.9008 16.2001 18.8008 16.1001 18.7008 16.1001C18.6008 16.1001 18.4008 16.1001 18.4008 16.0001C18.4008 15.9001 18.3008 15.9001 18.1008 15.9001C17.9008 15.9001 17.8008 15.9001 17.8008 15.8001C17.8008 15.8001 17.7008 15.7001 17.6008 15.7001C17.5008 15.7001 17.3008 15.7001 17.3008 15.6001C16.8008 16.3001 16.5008 16.3001 16.5008 16.4001ZM27.1008 30.0001C27.1008 30.0001 26.9008 30.2001 26.8008 30.3001C26.6008 30.4001 26.5008 30.6001 26.4008 30.6001C26.4008 30.6001 26.2008 30.8001 26.0008 30.9001C25.8008 31.0001 25.5008 31.2001 25.5008 31.2001C25.1008 31.4001 23.9008 32.0001 23.7008 32.0001C23.6008 32.0001 23.5008 32.0001 23.5008 32.1001C23.2008 32.2001 22.9008 32.3001 22.6008 32.4001C22.5008 32.4001 22.3008 32.5001 22.3008 32.5001C22.3008 32.5001 22.2008 32.6001 22.0008 32.6001C21.9008 32.6001 21.6008 32.6001 21.5008 32.7001C21.2008 32.8001 21.1008 32.9001 21.2008 32.9001C21.2008 32.9001 21.3008 32.9001 21.3008 33.0001C21.3008 33.0001 21.3008 33.1001 21.4008 33.2001C21.5008 33.4001 21.9008 34.0001 22.1008 34.4001C22.3008 34.8001 22.4008 35.1001 22.5008 35.2001C22.5008 35.3001 22.6008 35.4001 22.6008 35.5001C22.6008 35.6001 22.6008 35.7001 22.7008 35.7001C23.1008 35.7001 22.4008 36.9001 21.9008 37.0001C21.8008 37.0001 21.8008 37.1001 21.8008 37.1001C21.8008 37.1001 21.8008 37.2001 21.7008 37.2001C21.6008 37.2001 21.6008 37.2001 21.6008 37.3001C21.6008 37.4001 21.0008 37.7001 20.9008 37.7001C20.9008 37.7001 20.7008 37.8001 20.6008 37.9001C20.4008 38.0001 20.3008 38.1001 20.2008 38.1001C20.1008 38.1001 20.1008 38.1001 20.1008 38.2001C20.1008 38.3001 18.6008 39.0001 18.5008 39.0001C18.5008 39.0001 18.4008 39.0001 18.4008 39.1001C18.4008 39.2001 17.9008 39.4001 17.8008 39.4001C17.7008 39.3001 17.8008 39.1001 18.1008 38.7001C18.3008 38.5001 18.5008 38.3001 18.5008 38.2001C18.5008 38.2001 18.5008 38.1001 18.6008 38.1001C18.7008 38.1001 18.8008 37.7001 18.9008 37.4001C19.0008 37.1001 18.4008 36.4001 18.1008 36.4001C18.1008 36.4001 18.0008 36.4001 17.9008 36.3001C17.9008 36.2001 17.7008 36.2001 17.6008 36.2001C17.5008 36.2001 17.4008 36.2001 17.4008 36.1001C17.4008 36.0001 17.2008 36.0001 17.1008 36.0001C17.0008 36.0001 16.9008 36.0001 16.9008 35.9001C16.9008 35.9001 16.9008 35.8001 16.8008 35.8001C16.7008 35.8001 16.7008 36.4001 16.7008 41.1001C16.7008 44.0001 16.7008 46.4001 16.7008 46.4001C16.7008 46.4001 16.6008 46.4001 16.6008 46.5001C16.6008 46.6001 16.6008 46.6001 16.7008 46.5001C16.8008 46.4001 16.8008 46.4001 16.8008 46.3001C16.8008 46.3001 16.8008 46.2001 16.9008 46.2001C16.9008 46.2001 17.0008 46.1001 17.1008 46.1001C17.2008 46.0001 17.2008 46.0001 17.3008 46.0001C17.3008 46.0001 17.5008 45.9001 17.6008 45.8001C17.7008 45.7001 17.8008 45.6001 17.9008 45.6001C17.9008 45.6001 18.0008 45.6001 18.0008 45.5001C18.0008 45.4001 18.4008 45.1001 18.4008 45.1001C18.4008 45.1001 18.5008 45.1001 18.5008 45.0001C18.5008 44.9001 18.7008 44.7001 18.8008 44.7001C18.8008 44.7001 19.0008 44.6001 19.1008 44.5001C19.2008 44.4001 19.4008 44.3001 19.4008 44.3001C19.4008 44.3001 19.5008 44.3001 19.5008 44.2001C19.5008 44.1001 19.5008 44.1001 19.6008 44.1001C19.7008 44.1001 19.9008 43.9001 19.9008 43.8001C19.9008 43.8001 19.9008 43.7001 20.0008 43.7001C20.1008 43.7001 20.4008 43.4001 20.4008 43.3001C20.4008 43.3001 20.4008 43.2001 20.5008 43.2001C20.6008 43.2001 20.6008 43.2001 20.6008 43.1001C20.6008 43.1001 20.6008 43.0001 20.7008 43.0001C20.8008 43.0001 20.8008 43.0001 20.8008 42.9001C20.8008 42.8001 20.9008 42.8001 20.9008 42.8001C21.0008 42.8001 21.7008 42.1001 21.7008 42.0001C21.7008 42.0001 21.7008 41.9001 21.8008 41.9001C21.8008 41.9001 22.1008 41.6001 22.4008 41.3001C22.7008 41.0001 23.0008 40.7001 23.0008 40.7001C23.0008 40.7001 23.1008 40.7001 23.1008 40.6001C23.1008 40.5001 23.4008 40.2001 23.8008 39.8001C24.2008 39.4001 24.5008 39.0001 24.5008 38.9001C24.5008 38.8001 24.5008 38.8001 24.6008 38.8001C24.7008 38.8001 25.4008 38.1001 25.4008 38.1001C25.4008 38.1001 25.4008 38.0001 25.5008 38.0001C25.7008 37.8001 25.8008 37.7001 25.8008 37.7001C25.8008 37.7001 25.9008 37.6001 26.0008 37.5001C26.1008 37.4001 26.2008 37.3001 26.2008 37.2001C26.2008 37.2001 26.3008 37.1001 26.3008 37.0001C26.5008 36.8001 26.6008 36.5001 26.6008 36.3001C26.6008 36.3001 26.6008 36.2001 26.7008 36.2001C26.8008 36.2001 26.8008 36.1001 26.8008 36.0001C26.8008 35.9001 26.8008 35.9001 26.9008 35.9001C26.9008 35.9001 27.0008 35.8001 27.0008 35.7001C27.0008 35.6001 27.0008 35.5001 27.1008 35.5001C27.1008 35.5001 27.2008 35.4001 27.2008 35.2001C27.2008 35.0001 27.2008 34.8001 27.3008 34.8001C27.0008 34.4001 27.0008 34.3001 27.0008 34.0001C27.0008 33.7001 27.0008 33.5001 27.1008 33.5001C27.1008 33.5001 27.2008 33.2001 27.2008 32.8001C27.2008 32.3001 27.2008 32.1001 27.3008 32.0001C27.5008 31.8001 27.5008 30.0001 27.3008 30.0001C27.2008 30.0001 27.1008 30.0001 27.1008 30.0001ZM16.2008 46.4001C16.1008 46.5001 16.1008 46.6001 16.1008 46.6001C16.2008 46.6001 16.2008 46.5001 16.2008 46.4001C16.3008 46.3001 16.4008 46.3001 16.2008 46.4001ZM15.1008 47.4001C15.0008 47.5001 14.9008 47.7001 15.1008 47.6001C15.2008 47.6001 15.3008 47.3001 15.3008 47.3001C15.3008 47.2001 15.2008 47.3001 15.1008 47.4001Z" fill="white"/>
<path d="M15.4002 16.2002C15.4002 16.2002 15.4002 18.5002 15.4002 21.3002C15.4002 26.9002 15.4002 26.4002 15.9002 26.6002C16.0002 26.7002 16.2002 26.7002 16.3002 26.8002C16.7002 27.0002 16.7002 27.0002 16.7002 26.9002C16.7002 26.8002 16.7002 26.8002 16.6002 26.8002C16.5002 26.8002 16.5002 16.6002 16.6002 16.5002C16.7002 16.4002 16.7002 16.4002 16.6002 16.5002C16.5002 16.5002 16.5002 16.5002 16.5002 16.4002C16.5002 16.3002 16.4002 16.3002 16.3002 16.3002C16.2002 16.3002 16.1002 16.3002 16.0002 16.2002C15.9002 16.2002 15.5002 16.1002 15.4002 16.2002ZM23.3002 21.5002C23.1002 21.7002 22.9002 21.8002 22.9002 21.9002L22.8002 22.0002C22.8002 22.0002 22.7002 22.0002 22.7002 22.1002C22.7002 22.1002 22.6002 22.2002 22.4002 22.3002C22.3002 22.4002 22.1002 22.6002 22.0002 22.7002C21.9002 22.8002 21.7002 22.9002 21.6002 23.0002C21.4002 23.2002 20.0002 24.5002 19.8002 24.8002C19.7002 24.9002 19.5002 25.1002 19.4002 25.3002C19.3002 25.4002 19.1002 25.6002 19.0002 25.8002C18.9002 26.0002 18.7002 26.2002 18.6002 26.3002C18.5002 26.4002 18.3002 26.6002 18.2002 26.8002C18.1002 27.0002 17.9002 27.2002 17.9002 27.2002C17.8002 27.3002 17.8002 27.3002 17.8002 27.4002C17.8002 27.5002 17.5002 27.4002 17.2002 27.3002C17.1002 27.3002 17.0002 27.2002 16.9002 27.2002C16.8002 27.2002 16.8002 27.2002 17.0002 27.3002C17.2002 27.4002 17.3002 27.4002 17.4002 27.5002C17.6002 27.6002 17.8002 27.6002 18.1002 27.1002C18.3002 26.9002 18.5002 26.6002 18.5002 26.5002C18.6002 26.4002 18.8002 26.2002 19.0002 25.9002C20.4002 24.2002 22.2002 22.5002 23.5002 21.7002L23.9002 21.4002L24.0002 21.7002C24.1002 21.8002 24.2002 22.1002 24.2002 22.2002C24.3002 22.5002 24.3002 22.5002 24.3002 22.3002C24.3002 22.2002 24.3002 22.1002 24.2002 22.1002C24.2002 22.1002 24.1002 22.0002 24.1002 21.9002C24.1002 21.8002 23.8002 21.3002 23.7002 21.3002C23.7002 21.2002 23.5002 21.4002 23.3002 21.5002ZM27.1002 21.4002C27.0002 21.4002 26.5002 21.8002 26.0002 22.1002C25.5002 22.5002 25.0002 22.8002 25.0002 22.8002C25.0002 22.8002 24.9002 22.9002 24.8002 22.9002C24.6002 23.1002 24.5002 23.0002 24.4002 22.7002C24.4002 22.5002 24.2002 22.3002 24.2002 22.5002C24.2002 22.6002 24.2002 22.6002 24.3002 22.6002C24.3002 22.6002 24.4002 22.7002 24.4002 22.9002C24.4002 23.1002 24.6002 23.2002 24.8002 23.0002C24.9002 22.9002 25.0002 22.9002 25.0002 22.9002C25.0002 22.9002 25.3002 22.7002 25.5002 22.5002C25.7002 22.3002 26.0002 22.1002 26.1002 22.1002C26.1002 22.1002 26.2002 22.1002 26.2002 22.0002C26.2002 21.9002 27.1002 21.4002 27.3002 21.3002C27.4002 21.2002 27.5002 21.2002 27.3002 21.2002C27.3002 21.3002 27.2002 21.4002 27.1002 21.4002ZM27.0002 30.1002C26.9002 30.2002 26.8002 30.3002 26.7002 30.4002C26.2002 30.8002 25.7002 31.1002 24.9002 31.5002C24.7002 31.6002 24.5002 31.7002 24.6002 31.7002C24.6002 31.7002 25.2002 31.5002 25.5002 31.3002C25.6002 31.3002 25.8002 31.1002 26.0002 31.0002C26.2002 30.9002 26.4002 30.7002 26.4002 30.7002C26.4002 30.7002 26.6002 30.5002 26.8002 30.4002C27.0002 30.3002 27.1002 30.1002 27.2002 30.1002L27.3002 30.0002C27.4002 30.0002 27.4002 30.0002 27.3002 30.0002C27.2002 29.9002 27.1002 30.0002 27.0002 30.1002ZM24.3002 31.7002C24.3002 31.7002 24.0002 31.8002 23.7002 31.9002C23.4002 32.0002 23.2002 32.1002 23.3002 32.1002H23.5002C23.6002 32.1002 23.8002 32.0002 24.0002 31.9002C24.3002 31.8002 24.6002 31.6002 24.5002 31.6002C24.4002 31.7002 24.3002 31.7002 24.3002 31.7002ZM22.8002 32.2002C22.7002 32.2002 22.4002 32.3002 22.2002 32.4002C21.8002 32.5002 21.8002 32.5002 22.1002 32.5002C22.2002 32.5002 22.4002 32.5002 22.4002 32.4002C22.4002 32.4002 22.5002 32.3002 22.6002 32.3002C22.7002 32.3002 22.9002 32.3002 23.0002 32.2002C23.2002 32.2002 23.1002 32.1002 22.8002 32.2002ZM21.3002 32.6002C21.2002 32.7002 21.2002 32.7002 21.4002 33.0002C21.5002 33.2002 21.8002 33.6002 21.9002 33.9002C22.1002 34.2002 22.2002 34.5002 22.2002 34.4002C22.2002 34.4002 22.2002 34.2002 22.1002 34.2002C22.1002 34.1002 22.0002 34.0002 22.0002 33.9002C21.9002 33.7002 21.6002 33.1002 21.5002 33.0002C21.4002 32.9002 21.4002 32.9002 21.4002 32.8002C21.4002 32.8002 21.4002 32.7002 21.3002 32.7002C21.2002 32.8002 21.2002 32.7002 21.3002 32.6002C21.8002 32.5002 21.8002 32.5002 21.6002 32.5002C21.5002 32.5002 21.3002 32.6002 21.3002 32.6002ZM22.2002 34.7002C22.2002 34.8002 22.3002 35.0002 22.4002 35.2002C22.5002 35.5002 22.5002 35.5002 22.5002 35.4002C22.5002 35.3002 22.5002 35.2002 22.4002 35.2002C22.4002 35.2002 22.3002 35.1002 22.3002 35.0002C22.4002 34.9002 22.4002 34.8002 22.2002 34.7002C22.2002 34.6002 22.2002 34.6002 22.2002 34.7002ZM15.4002 41.1002C15.4002 45.0002 15.4002 47.0002 15.3002 47.0002C15.3002 47.0002 15.3002 47.0002 15.4002 47.1002C15.5002 47.2002 15.6002 47.1002 15.9002 46.8002C16.1002 46.6002 16.3002 46.4002 16.4002 46.4002C16.4002 46.4002 16.5002 46.4002 16.5002 46.3002C16.5002 46.2002 16.5002 46.2002 16.6002 46.2002C16.6002 46.2002 16.6002 43.8002 16.6002 40.9002C16.6002 36.2002 16.6002 35.6002 16.7002 35.6002C16.8002 35.6002 16.8002 35.6002 16.8002 35.7002C16.8002 35.7002 16.9002 35.8002 17.0002 35.8002C17.1002 35.8002 17.3002 35.8002 17.3002 35.9002C17.3002 35.9002 17.5002 36.0002 17.5002 35.9002C17.6002 35.9002 17.6002 35.9002 17.3002 35.8002C17.1002 35.7002 16.9002 35.7002 16.8002 35.6002C16.7002 35.6002 16.6002 35.5002 16.4002 35.5002C16.3002 35.5002 16.1002 35.4002 15.9002 35.4002C15.7002 35.4002 15.5002 35.3002 15.4002 35.3002H15.2002L15.4002 41.1002ZM22.6002 35.8002C22.7002 36.3002 21.8002 37.0002 19.2002 38.3002C17.8002 39.0002 17.6002 39.0002 18.1002 38.5002C18.4002 38.1002 18.8002 37.5002 18.7002 37.4002C18.7002 37.2002 18.5002 37.6002 18.5002 37.8002C18.5002 37.9002 18.5002 37.9002 18.4002 37.9002C18.4002 37.9002 18.3002 37.9002 18.3002 38.0002C18.3002 38.0002 18.1002 38.3002 17.9002 38.5002C17.6002 38.9002 17.5002 39.1002 17.6002 39.2002C17.7002 39.2002 18.1002 39.0002 18.2002 38.9002L18.3002 38.8002C18.4002 38.8002 19.9002 38.1002 19.9002 38.0002L20.0002 37.9002C20.1002 37.9002 20.2002 37.8002 20.4002 37.7002C20.6002 37.6002 20.7002 37.5002 20.7002 37.5002C20.8002 37.5002 21.3002 37.1002 21.4002 37.1002L21.5002 37.0002C21.6002 37.0002 21.6002 37.0002 21.6002 36.9002L21.7002 36.8002C22.2002 36.6002 22.9002 35.5002 22.5002 35.5002C22.6002 35.6002 22.6002 35.7002 22.6002 35.8002ZM17.8002 36.0002C17.8002 36.1002 17.9002 36.1002 18.0002 36.1002C18.1002 36.1002 18.6002 36.5002 18.7002 36.8002C18.8002 36.9002 18.8002 36.9002 18.8002 36.8002C18.8002 36.6002 18.4002 36.2002 18.1002 36.0002C17.7002 35.9002 17.7002 35.9002 17.8002 36.0002Z" fill="white"/>
<path d="M31.2 26.6C31.2 30.4 31.2 31 31.1 31C31 31 31 31.5 31 35V39H33.3H35.6V38.6C35.6 38.3 35.6 38.2 35.7 38.1C35.8 38.1 35.8 37.7 35.8 35.3V32.5H36.5C36.9 32.5 37.2 32.5 37.2 32.6C37.2 32.6 38.5 32.7001 41 32.7001H44.8V32.5C44.8 32.4 44.8 32.2001 44.9 32.2001C45 32.1001 45 31.5 45 27.3V22.5H39.5C34.7 22.5 34 22.5 34 22.4C34 22.3 33.7 22.3 32.5 22.3H31.1V26.6M74.8 26C74.8 28.2 74.8 29.5 74.7 29.5C74.7 29.5 74.6 31.2 74.6 34.3V39.1H76.1C77.4 39.1 77.6 39.1001 77.6 39.2001C77.6 39.3001 77.8 39.3 78.3 39.3H78.9V38.7001C78.9 38.3001 78.9 38.1 79 38.1C79 38.1 79.1 37.3001 79.1 35.9001C79.1 34.0001 79.1 33.7001 79.2 33.7001C79.3 33.7001 79.3 33.7 79.3 33.8C79.3 33.9 79.3 33.9001 79.4 33.9001C79.5 33.9001 79.5 34 79.5 34C79.5 34.1 79.5 34.1 79.6 34.1C79.7 34.1 79.7 34.1001 79.7 34.2001C79.7 34.3001 79.7 34.3 79.8 34.3L79.9 34.4001C79.9 34.6001 80.1 34.8 80.2 34.8C80.2 34.8 80.3 34.8001 80.3 34.9001C80.3 35.0001 80.3 35 80.4 35L80.5 35.1C80.5 35.2 80.5 35.2001 80.6 35.2001C80.7 35.2001 80.7 35.2 80.7 35.3C80.7 35.4 80.7 35.4001 80.8 35.4001L80.9 35.5C80.9 35.5 81 35.7 81.1 35.8C81.2 35.9 81.3 36.1001 81.3 36.2001C81.3 36.3001 81.3 36.3 81.4 36.3C81.5 36.3 81.5 36.3001 81.5 36.4001C81.5 36.5001 81.5 36.5 81.6 36.5L81.7 36.6C81.7 36.7 81.8 36.8001 81.9 36.9001C82 37.0001 82.1 37.2 82.1 37.3C82.1 37.4 82.1 37.4001 82.2 37.4001C82.3 37.4001 82.5 37.6001 82.5 37.7001C82.5 37.8001 82.6 37.9 82.7 38.1C82.8 38.2 82.9 38.4001 82.9 38.4001C82.9 38.4001 83 38.6001 83.1 38.7001L83.3 38.9001H85.7H88.1V38.7001C88.1 38.5001 88.1 38.5001 88 38.4001C87.9 38.4001 87.9 38.3001 87.9 38.2001C87.9 38.1001 87.9 38.1 87.8 38.1C87.7 38.1 87.7 38.1 87.7 38C87.7 37.9 87.7 37.9001 87.6 37.9001C87.5 37.9001 87.5 37.8 87.5 37.8C87.5 37.8 87.4 37.6 87.4 37.5C87.3 37.4 87.3 37.3 87.3 37.3C87.3 37.3 87.2 37.2 87.1 37.1C87 37 86.9 36.9 86.9 36.8C86.9 36.7 86.8 36.6 86.7 36.6C86.6 36.5 86.5 36.4001 86.5 36.4001C86.5 36.4001 86.5 36.3 86.4 36.3L86.3 36.2001C86.3 36.1001 86.2 36.0001 86.1 35.9001C86 35.8001 85.9 35.7 85.9 35.6C85.9 35.5 85.9 35.4001 85.8 35.4001C85.7 35.4001 85.5 35.2 85.5 35.1C85.5 35 85.3 34.8 85.2 34.8C85.2 34.8 85.1 34.7 85.1 34.6C85.1 34.5 85 34.3001 84.9 34.2001C84.8 34.1001 84.7 33.9001 84.7 33.9001C84.7 33.8001 84.5 33.6 84.4 33.6L84.3 33.5C84.3 33.3 84.1 33.2001 84 33.2001C84 33.2001 83.9 33.1 83.9 33C83.9 32.9 83.9 32.8 83.8 32.8C83.8 32.8 83.7 32.8001 83.7 32.7001C83.7 32.6001 83.7 32.6 83.6 32.6C83.6 32.6 83.5 32.6 83.5 32.5C83.5 32.4 83.5 32.4001 83.4 32.4001C83.3 32.4001 83.3 32.2001 83.4 32.2001C83.5 32.2001 83.7 32 83.7 32C83.7 31.9 83.9 31.8 83.9 31.8C84 31.8 84.1 31.6 84.1 31.5C84.1 31.5 84.1 31.4 84.2 31.4C84.3 31.4 84.5 31.2001 84.5 31.2001C84.5 31.1001 84.7 31 84.7 31C84.8 31 84.9 30.8001 84.9 30.7001C84.9 30.7001 84.9 30.6 85 30.6C85.1 30.6 85.3 30.4 85.3 30.4C85.3 30.3 85.5 30.2001 85.5 30.2001C85.6 30.2001 85.7 30 85.7 29.9C85.7 29.9 85.7 29.8 85.8 29.8C85.9 29.8 86.1 29.6 86.1 29.6C86.1 29.5 86.3 29.4 86.3 29.4C86.4 29.4 86.5 29.2 86.5 29.1C86.5 29.1 86.5 29 86.6 29C86.7 29 86.9 28.8 86.9 28.8C86.9 28.7 87.1 28.6 87.1 28.6C87.2 28.6 87.3 28.4 87.3 28.3C87.3 28.3 87.3 28.2001 87.4 28.2001C87.5 28.2001 87.7 28 87.7 27.9C87.7 27.9 87.7 27.8 87.8 27.8L87.9 27.7001C87.9 27.6001 87.9 27.6 85.1 27.6H82.3L82 27.9C81.8 28.1 81.7 28.2001 81.6 28.2001C81.6 28.2001 81.5 28.2 81.5 28.3C81.5 28.4 80.8 29.1 80.7 29.1C80.7 29.1 80.6 29.1001 80.6 29.2001C80.6 29.3001 80.4 29.5 80.4 29.5C80.3 29.5 80.2 29.7001 80.2 29.7001C80.2 29.8001 80 29.9 79.9 29.9C79.9 29.9 79.8 29.9 79.8 30C79.8 30.1 79.6 30.3 79.6 30.3C79.5 30.3 79.4 30.5 79.4 30.5C79.4 30.6 79.2 30.7001 79.1 30.7001C79.1 30.7001 79 30.7 79 30.8C79 30.9 78.8 31.1 78.7 31.1C78.6 31.1 78.6 30.1 78.6 27.8C78.6 24.9 78.6 24.5 78.7 24.5C78.8 24.5 78.8 24.4 78.8 23.6V22.7001H76.5H74.2V26M89.9 27.3V32H95H100.1V34.5V37H96C93.3 37 91.9 37.0001 91.9 36.9001C91.9 36.9001 91.5 36.8 90.8 36.8H89.7V38.1V39.4001H96.6C101.1 39.4001 103.5 39.4 103.5 39.5C103.5 39.5 103.8 39.6 104.2 39.6H104.9V35C104.9 32.1 104.9 30.5 105 30.5C105 30.5 105.1 30.3 105.1 30.1V29.7001H100H94.9V27.4V25.1H99.9C103.2 25.1 104.9 25.1 104.9 25C104.9 25 104.9 24.9 105 24.9C105.1 24.9 105.1 24.8001 105.1 24.7001C105.1 24.6001 105.1 24.5 105.2 24.5C105.2 24.5 105.3 24.4 105.3 24.3C105.3 24.2 105.3 24 105.4 24C105.5 24 105.5 23.9 105.5 23.8C105.5 23.7 105.5 23.7001 105.6 23.7001C105.6 23.7001 105.7 23.6 105.7 23.5C105.7 23.4 105.7 23.3 105.8 23.3C105.8 23.3 105.9 23.2 105.9 23.1V22.9H101.1C96.9 22.9 96.3 22.9 96.3 22.8C96.3 22.7 95.9 22.7001 93.3 22.7001H90.4V27.3M106.8 28.2001C106.8 33.0001 106.8 33.7001 106.7 33.7001C106.6 33.7001 106.6 34.1 106.6 36.5V39.3H107.6C108.2 39.3 108.6 39.3001 108.6 39.4001C108.6 39.4001 109.1 39.5 109.9 39.5H111.2V34.8V30H113H114.8V34.7001V39.4001H117.1H119.4V33.5V27.6H115.4H111.4V25.2001V22.8H109.1H106.8V28.2001ZM120.9 24.7001V26.6H123.1H125.3V25C125.3 23.5 125.3 23.3 125.4 23.3C125.5 23.3 125.5 23.2 125.5 23.1V22.9H123.2H120.9V24.7001ZM141.1 25.4C141.1 27.5 141.1 27.8 141 27.9C140.9 27.9 140.9 28.7 140.9 33.8V39.7001H143.2H145.5V36.5C145.5 33.7 145.5 33.3 145.6 33.3C145.7 33.3 145.7 32.6 145.7 28.1V23H143.4H141.1V25.4ZM155.3 24.6C155.3 25.6 155.3 26.2001 155.2 26.2001C155.2 26.2001 155.1 26.5 155.1 27V27.8H151H146.9V31.7001C146.9 35.1001 146.9 35.6 146.8 35.6C146.7 35.6 146.7 35.9 146.7 37.6V39.6H153H159.3V37.2001C159.3 35.1001 159.3 34.8 159.4 34.8C159.5 34.8 159.5 34.1 159.5 28.9V23H157.3H155.1V24.6M40.3 27.6V30.2001H38H35.7V27.6V25H38H40.3V27.6ZM46.4 30.8C46.4 33.9 46.4 34.4 46.3 34.5C46.2 34.6 46.2 34.9 46.2 36.8V39H49.3C51.3 39 52.4 39 52.4 39.1C52.4 39.1 53.5 39.2001 55.4 39.2001H58.4V39C58.4 38.9 58.4 38.8 58.5 38.8C58.6 38.8 58.6 38.7001 58.6 38.7001C58.6 38.6001 58.6 38.6 58.7 38.6C58.7 38.6 58.8 38.5001 58.8 38.4001C58.8 38.3001 58.8 38.2001 58.9 38.2001C58.9 38.2001 59 38.1 59 38C59 37.9 59 37.8 59.1 37.8C59.2 37.8 59.2 37.7 59.2 37.6C59.2 37.5 59.2 37.4001 59.3 37.4001C59.4 37.4001 59.4 37.3 59.4 37.1V36.8H55H50.8V35.8V34.8H54.9H59V31V27.3H55.5C53.2 27.3 52 27.3001 51.9 27.2001C51.9 27.2001 50.9 27.1 49.2 27.1H46.5L46.4 30.8ZM60.8 31.9C60.8 36 60.8 36.5 60.7 36.6C60.6 36.6 60.6 36.8001 60.6 37.9001V39.1H66.5H72.4V38.9001C72.4 38.7001 72.4 38.7001 72.5 38.7001C72.6 38.7001 72.6 38.6 72.6 38.5C72.6 38.4 72.6 38.3 72.7 38.3C72.7 38.3 72.8 38.2 72.8 38.1C72.8 38 72.8 37.9001 72.9 37.9001C73 37.9001 73 37.8001 73 37.7001C73 37.6001 73 37.6 73.1 37.6C73.1 37.6 73.2 37.5001 73.2 37.4001C73.2 37.3001 73.2 37.2001 73.3 37.2001L73.4 37.1C73.4 37 73.4 37 69.3 37H65.2V33.5C65.2 30.3 65.2 30 65.3 29.9C65.4 29.8 66.1 29.8 69 29.8C72.2 29.8 72.6 29.8001 72.6 29.7001C72.6 29.6001 72.6 29.6 72.7 29.6C72.7 29.6 72.8 29.5 72.8 29.4C72.8 29.2 72.8 29.2001 72.9 29.2001C73 29.2001 73 29.1 73 29C73 28.9 73 28.8 73.1 28.8C73.1 28.8 73.2 28.7 73.2 28.6C73.2 28.5 73.2 28.4 73.3 28.4C73.3 28.4 73.4 28.2 73.4 28V27.6H67.2H61V31.9M120.9 28C120.9 28.2 120.9 28.4 120.8 28.4C120.7 28.4 120.7 29.1 120.7 34V39.5H122.9H125.1V38.2001C125.1 37.4001 125.1 36.9001 125.2 36.9001C125.2 36.9001 125.3 35.3001 125.3 32.2001V27.5H123H120.8L120.9 28ZM126.6 27.7001C126.6 27.7001 126.6 30.4 126.6 33.6V39.5H132.7H138.8V39.3C138.8 39.2 138.8 39.1 138.9 39.1C138.9 39.1 139 39.0001 139 38.9001C139 38.8001 139.1 38.7001 139.1 38.7001C139.1 38.7001 139.2 38.6 139.2 38.5C139.2 38.4 139.2 38.3 139.3 38.3C139.3 38.3 139.4 38.2 139.4 38.1C139.4 38 139.4 37.9001 139.5 37.9001C139.6 37.9001 139.6 37.8 139.6 37.8C139.6 37.7 139.6 37.6 139.7 37.6C139.8 37.6 139.8 37.5001 139.8 37.4001C139.8 37.3001 139.7 37.3 136.4 37.3C133.4 37.3 133 37.3001 133 37.2001C133 37.1001 132.9 37.1 132.1 37.1H131V36.1V35.1H133.9C135.8 35.1 136.8 35.1001 136.8 35.2001C136.8 35.2001 137.2 35.3 138 35.3H139.2V31.6C139.2 28.3001 139.2 27.9 139.1 27.9C139 27.9 139 27.9 139 27.8C138.9 27.6 126.7 27.6001 126.6 27.7001ZM54.4 31V32.3H52.6H50.8V31V29.7001H52.6H54.4V31ZM134.7 30.8C134.7 31.3 134.7 31.4 134.6 31.4C134.5 31.4 134.5 31.5 134.5 32.1V32.8H132.8H131.1V31.5V30.2001H132.9H134.7V30.8M155.2 33.7001V37.3H153.3H151.4V33.9001C151.4 31.0001 151.4 30.5 151.5 30.5C151.6 30.5 151.6 30.4 151.6 30.3C151.6 30.2 151.6 30.2001 153.4 30.2001H155.2V33.7001Z" fill="white"/>
<path d="M114.3 6.6999H110.3L109.7 8.3999H108.7L111.6 0.399902H112.9L115.9 8.3999H115L114.3 6.6999ZM114.1 5.9999L112.3 1.0999L110.6 5.9999H114.1Z" fill="white"/>
<path d="M121.3 2.7998V8.3998H120.5L120.6 7.6998C120.3 8.2998 119.7 8.4998 118.8 8.4998C117.5 8.4998 116.8 7.7998 116.8 6.4998V2.7998H117.6V6.4998C117.6 6.9998 117.7 7.2998 117.9 7.4998C118.1 7.6998 118.4 7.7998 118.9 7.7998C119.5 7.7998 120 7.69981 120.2 7.39981C120.4 7.09981 120.6 6.6998 120.6 5.9998V2.7998H121.3Z" fill="white"/>
<path d="M127.501 0.399902V8.3999H126.701V7.6999C126.401 8.1999 125.801 8.4999 124.901 8.4999C124.001 8.4999 123.501 8.2999 123.101 7.8999C122.701 7.4999 122.601 6.6999 122.601 5.5999C122.601 4.4999 122.801 3.7999 123.101 3.3999C123.401 2.9999 124.001 2.7999 124.801 2.7999C125.801 2.7999 126.401 3.0999 126.601 3.5999V0.399902H127.501ZM125.001 3.3999C124.401 3.3999 124.001 3.4999 123.801 3.7999C123.601 4.0999 123.501 4.5999 123.501 5.4999C123.501 6.3999 123.601 7.0999 123.801 7.2999C124.001 7.4999 124.401 7.6999 125.001 7.6999C125.701 7.6999 126.101 7.5999 126.301 7.2999C126.501 6.9999 126.601 6.3999 126.601 5.3999C126.601 4.5999 126.501 4.0999 126.301 3.7999C126.101 3.4999 125.601 3.3999 125.001 3.3999Z" fill="white"/>
<path d="M129.7 0.399902V1.2999H128.9V0.399902H129.7ZM129.7 2.7999V8.3999H128.9V2.7999H129.7Z" fill="white"/>
<path d="M134.1 2.8V3.5H132V6.9C132 7.5 132.3 7.8 132.8 7.8C133.3 7.8 133.6 7.5 133.6 7V6.7V6.4H134.4V6.8C134.4 7.9 133.9 8.5 132.8 8.5C131.7 8.5 131.2 8 131.2 7.1V6.9V3.5H130.4V2.8H131.2V1.5H132V2.8H134.1Z" fill="white"/>
<path d="M139 6.69985H139.8V6.89985C139.8 7.49985 139.6 7.89985 139.3 8.09985C139 8.29985 138.3 8.39985 137.4 8.39985C136.4 8.39985 135.7 8.19985 135.4 7.79985C135.1 7.39985 134.9 6.59985 134.9 5.39985C134.9 4.29985 135.1 3.49985 135.4 3.19985C135.7 2.89985 136.4 2.59985 137.3 2.59985C138.3 2.59985 139 2.79985 139.3 3.09985C139.6 3.39985 139.8 4.09985 139.8 5.19985V5.59985H135.8C135.8 6.49985 135.9 6.99985 136.1 7.29985C136.3 7.59985 136.7 7.69985 137.4 7.69985C138.1 7.69985 138.5 7.59985 138.7 7.49985C138.9 7.39985 139 7.09985 139 6.79985V6.69985V6.69985ZM139 5.09985V4.79985C139 4.19985 138.9 3.79985 138.7 3.59985C138.5 3.39985 138.1 3.29985 137.4 3.29985C136.7 3.29985 136.3 3.39985 136.1 3.59985C135.9 3.79985 135.8 4.29985 135.8 4.99985H139V5.09985Z" fill="white"/>
<path d="M145.8 0.399902V8.3999H145V7.6999C144.7 8.1999 144.1 8.4999 143.2 8.4999C142.3 8.4999 141.8 8.2999 141.4 7.8999C141 7.4999 140.9 6.6999 140.9 5.5999C140.9 4.4999 141.1 3.7999 141.4 3.3999C141.7 2.9999 142.3 2.7999 143.1 2.7999C144.1 2.7999 144.7 3.0999 144.9 3.5999V0.399902H145.8ZM143.3 3.3999C142.7 3.3999 142.3 3.4999 142.1 3.7999C141.9 4.0999 141.8 4.5999 141.8 5.4999C141.8 6.3999 141.9 7.0999 142.1 7.2999C142.3 7.4999 142.7 7.6999 143.3 7.6999C144 7.6999 144.4 7.5999 144.6 7.2999C144.8 6.9999 144.9 6.3999 144.9 5.3999C144.9 4.5999 144.8 4.0999 144.6 3.7999C144.4 3.4999 144 3.3999 143.3 3.3999Z" fill="white"/>
<path d="M150.2 8.3999V0.399902H151V3.4999C151.2 2.9999 151.8 2.6999 152.8 2.6999C153.6 2.6999 154.2 2.8999 154.5 3.2999C154.8 3.6999 155 4.4999 155 5.5999C155 6.6999 154.8 7.3999 154.5 7.7999C154.2 8.1999 153.6 8.3999 152.7 8.3999C151.8 8.3999 151.2 8.0999 150.9 7.5999V8.2999H150.2V8.3999ZM152.7 3.3999C152.1 3.3999 151.6 3.4999 151.4 3.7999C151.2 4.0999 151.1 4.5999 151.1 5.3999C151.1 6.3999 151.2 7.0999 151.4 7.2999C151.6 7.4999 152.1 7.6999 152.8 7.6999C153.4 7.6999 153.8 7.5999 154 7.2999C154.2 6.9999 154.3 6.3999 154.3 5.5999C154.3 4.6999 154.2 4.0999 154 3.7999C153.8 3.4999 153.3 3.3999 152.7 3.3999Z" fill="white"/>
<path d="M160.3 2.79995L158.7 8.69995C158.5 9.49995 158.2 10.1 158 10.4C157.8 10.7 157.3 10.9 156.8 10.9C156.7 10.9 156.6 10.9 156.4 10.9V10.2C156.5 10.2 156.6 10.2 156.7 10.2C157.1 10.2 157.5 9.89995 157.7 9.09995L157.9 8.49995C157.9 8.49995 157.9 8.39995 158 8.29995H157.7L155.7 2.69995H156.6L157.5 5.19995L157.9 6.39995L158.1 6.99995L158.3 7.59995L158.5 6.99995L158.6 6.39995L158.9 5.19995L159.5 2.69995H160.3V2.79995Z" fill="white"/>
</svg>
