<svg width="1440" height="915" viewBox="0 0 1440 915" fill="none" xmlns="http://www.w3.org/2000/svg">
<path d="M388.479 541.526C393.488 561.307 407.505 577.835 428.613 590.777C449.722 603.721 477.906 613.068 511.203 618.486C577.796 629.322 664.785 624.433 756.38 601.238C847.975 578.043 926.807 540.94 980.217 499.716C1006.92 479.103 1027.26 457.469 1039.66 436.039C1052.07 414.61 1056.53 393.403 1051.52 373.622C1046.51 353.84 1032.49 337.313 1011.39 324.37C990.277 311.427 962.094 302.08 928.797 296.662C862.204 285.826 775.214 290.715 683.619 313.91C592.024 337.105 513.192 374.207 459.782 415.432C433.077 436.044 412.739 457.679 400.335 479.109C387.931 500.538 383.469 521.745 388.479 541.526Z" stroke="url(#paint0_linear_404_771)" stroke-width="0.576665"/>
<path d="M238.196 579.583C245.485 608.366 265.88 632.405 296.567 651.221C327.256 670.039 368.223 683.624 416.611 691.498C513.388 707.245 639.796 700.139 772.891 666.435C905.985 632.731 1020.54 578.817 1098.16 518.907C1136.97 488.952 1166.53 457.507 1184.56 426.351C1202.6 395.196 1209.09 364.348 1201.8 335.566C1194.52 306.783 1174.12 282.744 1143.43 263.927C1112.74 245.11 1071.78 231.525 1023.39 223.651C926.612 207.904 800.204 215.01 667.11 248.714C534.015 282.418 419.46 336.332 341.843 396.242C303.033 426.197 273.47 457.642 255.436 488.798C237.403 519.953 230.908 550.8 238.196 579.583Z" stroke="url(#paint1_linear_404_771)" stroke-width="0.576665"/>
<path d="M55.3303 625.891C65.3929 665.627 93.5469 698.805 135.891 724.77C178.237 750.735 234.758 769.476 301.511 780.338C435.015 802.061 609.388 792.258 792.98 745.767C976.572 699.275 1134.59 624.905 1241.67 542.259C1295.21 500.935 1336 457.552 1360.88 414.561C1385.76 371.573 1394.73 328.994 1384.67 289.258C1374.61 249.521 1346.45 216.344 1304.11 190.379C1261.76 164.413 1205.24 145.672 1138.49 134.81C1004.98 113.087 830.612 122.89 647.02 169.382C463.428 215.873 305.406 290.244 198.331 372.89C144.794 414.213 104.005 457.597 79.1208 500.587C54.2378 543.576 45.2678 586.155 55.3303 625.891Z" stroke="url(#paint2_linear_404_771)" stroke-width="0.576665"/>
<defs>
<linearGradient id="paint0_linear_404_771" x1="1028.56" y1="362.166" x2="454.167" y2="600.461" gradientUnits="userSpaceOnUse">
<stop stop-color="#484848"/>
<stop offset="0.491388" stop-color="#484848" stop-opacity="0.36"/>
<stop offset="1" stop-color="#484848"/>
</linearGradient>
<linearGradient id="paint1_linear_404_771" x1="1168.32" y1="318.953" x2="333.763" y2="665.179" gradientUnits="userSpaceOnUse">
<stop stop-color="#484848"/>
<stop offset="0.491388" stop-color="#484848" stop-opacity="0.36"/>
<stop offset="1" stop-color="#484848"/>
</linearGradient>
<linearGradient id="paint2_linear_404_771" x1="1338.37" y1="266.37" x2="187.254" y2="743.928" gradientUnits="userSpaceOnUse">
<stop stop-color="#484848"/>
<stop offset="0.491388" stop-color="#484848" stop-opacity="0.36"/>
<stop offset="1" stop-color="#484848"/>
</linearGradient>
</defs>
</svg>
