<svg width="219" height="202" viewBox="0 0 219 202" fill="none" xmlns="http://www.w3.org/2000/svg">
<path d="M121.322 88.2475L124.857 104.863L117.751 102.645L110.028 100.236L106.493 83.6209L121.322 88.2475ZM105.379 83.8988L108.909 100.488L96.572 112.126L93.042 95.5374L105.379 83.8988ZM112.159 117.615L97.3302 112.988L109.687 101.331L117.409 103.741L124.516 105.958L112.159 117.615Z" stroke="#55FF79" stroke-width="1.1473"/>
<path d="M82.8537 125.912L74.5831 90.004L101.936 64.7583L136.463 75.5307L144.291 111.753L117.385 136.686L82.8537 125.912Z" stroke="#55FF79" stroke-width="1.1473"/>
<path d="M70.1091 137.499L58.8712 84.8761L98.039 47.9796L147.786 63.5005L158.815 116.058L119.856 153.02L70.1091 137.499Z" stroke="#55FF79" stroke-width="1.1473"/>
<path d="M82.873 125.793L70.5447 137.207" stroke="#55FF79" stroke-width="1.1473"/>
<path d="M101.899 64.9419L98.1463 48.0836" stroke="#55FF79" stroke-width="1.1473"/>
<path d="M144.024 111.443L158.37 115.919" stroke="#55FF79" stroke-width="1.1473"/>
<path d="M175.871 121.379L193.613 126.915" stroke="#55FF79" stroke-width="1.1473"/>
<path d="M94.5811 32.0657L90.5829 14.1042" stroke="#55FF79" stroke-width="1.1473"/>
<path d="M58.2183 148.62L44.7158 161.121" stroke="#55FF79" stroke-width="1.1473"/>
<path d="M58.0455 148.838L43.1014 79.9547L94.5642 31.7901L160.955 52.5037L175.899 121.387L124.436 169.552L58.0455 148.838Z" stroke="#55FF79" stroke-width="1.1473"/>
<path d="M44.573 160.997L24.7055 74.2148L90.3963 14.1264L174.81 40.4631L194.296 127.127L128.986 187.334L44.573 160.997Z" stroke="#55FF79" stroke-width="1.1473"/>
</svg>
