<svg width="213" height="203" viewBox="0 0 213 203" fill="none" xmlns="http://www.w3.org/2000/svg">
<path d="M172.853 40.4935C176.948 51.0522 172.138 64.0838 160.693 76.6899C149.274 89.267 131.371 101.269 109.683 109.68C87.994 118.092 66.6805 121.3 49.7675 119.711C32.8155 118.119 20.4773 111.738 16.3822 101.179C12.2871 90.6203 17.0963 77.5886 28.5415 64.9825C39.9604 52.4055 57.8635 40.4039 79.5521 31.9922C101.241 23.5805 122.554 20.3723 139.467 21.9611C156.419 23.5536 168.757 29.9348 172.853 40.4935Z" stroke="url(#paint0_linear_381_84)" stroke-width="1.17361"/>
<path d="M174.55 44.8702C178.645 55.4289 173.836 68.4605 162.39 81.0666C150.972 93.6437 133.069 105.645 111.38 114.057C89.6913 122.469 68.3778 125.677 51.4648 124.088C34.5128 122.496 22.1745 116.114 18.0794 105.556C13.9844 94.997 18.7936 81.9653 30.2388 69.3592C41.6577 56.7822 59.5607 44.7806 81.2493 36.3689C102.938 27.9572 124.251 24.749 141.164 26.3378C158.116 27.9304 170.455 34.3115 174.55 44.8702Z" stroke="url(#paint1_linear_381_84)" stroke-width="1.17361"/>
<path d="M176.248 49.2472C180.343 59.8059 175.533 72.8375 164.088 85.4436C152.669 98.0206 134.766 110.022 113.078 118.434C91.389 126.846 70.0755 130.054 53.1626 128.465C36.2105 126.872 23.8723 120.491 19.7772 109.933C15.6821 99.3739 20.4913 86.3423 31.9366 73.7362C43.3554 61.1591 61.2585 49.1576 82.9471 40.7458C104.636 32.3341 125.949 29.1259 142.862 30.7148C159.814 32.3073 172.152 38.6885 176.248 49.2472Z" stroke="url(#paint2_linear_381_84)" stroke-width="1.17361"/>
<path d="M177.945 53.6239C182.04 64.1826 177.231 77.2142 165.785 89.8203C154.367 102.397 136.464 114.399 114.775 122.811C93.0863 131.222 71.7728 134.431 54.8598 132.842C37.9078 131.249 25.5695 124.868 21.4745 114.309C17.3794 103.751 22.1886 90.719 33.6338 78.1129C45.0527 65.5358 62.9558 53.5343 84.6444 45.1226C106.333 36.7108 127.646 33.5026 144.559 35.0915C161.511 36.684 173.85 43.0652 177.945 53.6239Z" stroke="url(#paint3_linear_381_84)" stroke-width="1.17361"/>
<path d="M179.643 58.0006C183.738 68.5593 178.928 81.5909 167.483 94.197C156.064 106.774 138.161 118.776 116.473 127.187C94.7841 135.599 73.4705 138.807 56.5576 137.218C39.6056 135.626 27.2673 129.245 23.1722 118.686C19.0771 108.127 23.8863 95.0957 35.3316 82.4896C46.7504 69.9125 64.6535 57.911 86.3421 49.4993C108.031 41.0876 129.344 37.8794 146.257 39.4682C163.209 41.0607 175.547 47.4419 179.643 58.0006Z" stroke="url(#paint4_linear_381_84)" stroke-width="1.17361"/>
<path d="M181.34 62.3775C185.435 72.9362 180.626 85.9679 169.18 98.574C157.762 111.151 139.859 123.153 118.17 131.564C96.4813 139.976 75.1678 143.184 58.2549 141.595C41.3028 140.003 28.9646 133.622 24.8695 123.063C20.7744 112.504 25.5836 99.4727 37.0288 86.8666C48.4477 74.2895 66.3508 62.2879 88.0394 53.8762C109.728 45.4645 131.042 42.2563 147.954 43.8452C164.906 45.4377 177.245 51.8188 181.34 62.3775Z" stroke="url(#paint5_linear_381_84)" stroke-width="1.17361"/>
<path d="M183.038 66.7542C187.133 77.3129 182.323 90.3446 170.878 102.951C159.459 115.528 141.556 127.529 119.868 135.941C98.1791 144.353 76.8656 147.561 59.9526 145.972C43.0006 144.38 30.6623 137.998 26.5672 127.44C22.4721 116.881 27.2814 103.849 38.7266 91.2433C50.1454 78.6662 68.0485 66.6646 89.7371 58.2529C111.426 49.8412 132.739 46.633 149.652 48.2219C166.604 49.8144 178.943 56.1955 183.038 66.7542Z" stroke="url(#paint6_linear_381_84)" stroke-width="1.17361"/>
<path d="M184.735 71.1309C188.83 81.6896 184.021 94.7213 172.576 107.327C161.157 119.904 143.254 131.906 121.565 140.318C99.8763 148.729 78.5628 151.938 61.6499 150.349C44.6978 148.756 32.3596 142.375 28.2645 131.816C24.1694 121.258 28.9786 108.226 40.4239 95.62C51.8427 83.0429 69.7458 71.0413 91.4344 62.6296C113.123 54.2179 134.437 51.0097 151.349 52.5986C168.302 54.1911 180.64 60.5722 184.735 71.1309Z" stroke="url(#paint7_linear_381_84)" stroke-width="1.17361"/>
<path d="M186.433 75.5079C190.528 86.0666 185.718 99.0982 174.273 111.704C162.854 124.281 144.951 136.283 123.263 144.695C101.574 153.106 80.2606 156.315 63.3476 154.726C46.3956 153.133 34.0573 146.752 29.9623 136.193C25.8672 125.635 30.6764 112.603 42.1216 99.9969C53.5405 87.4199 71.4436 75.4183 93.1322 67.0066C114.821 58.5949 136.134 55.3867 153.047 56.9755C169.999 58.568 182.338 64.9492 186.433 75.5079Z" stroke="url(#paint8_linear_381_84)" stroke-width="1.17361"/>
<path d="M188.13 79.8846C192.225 90.4433 187.416 103.475 175.971 116.081C164.552 128.658 146.649 140.66 124.96 149.071C103.271 157.483 81.9578 160.691 65.0449 159.102C48.0929 157.51 35.7546 151.129 31.6595 140.57C27.5644 130.011 32.3736 116.98 43.8189 104.374C55.2377 91.7966 73.1408 79.795 94.8294 71.3833C116.518 62.9716 137.832 59.7634 154.745 61.3522C171.697 62.9448 184.035 69.3259 188.13 79.8846Z" stroke="url(#paint9_linear_381_84)" stroke-width="1.17361"/>
<path d="M189.828 84.2614C193.923 94.8201 189.114 107.852 177.668 120.458C166.249 133.035 148.346 145.036 126.658 153.448C104.969 161.86 83.6556 165.068 66.7426 163.479C49.7906 161.887 37.4524 155.506 33.3573 144.947C29.2622 134.388 34.0714 121.357 45.5166 108.75C56.9355 96.1734 74.8386 84.1718 96.5272 75.7601C118.216 67.3484 139.529 64.1402 156.442 65.7291C173.394 67.3216 185.733 73.7027 189.828 84.2614Z" stroke="url(#paint10_linear_381_84)" stroke-width="1.17361"/>
<path d="M191.525 88.6381C195.62 99.1968 190.811 112.228 179.366 124.835C167.947 137.412 150.044 149.413 128.355 157.825C106.666 166.237 85.3529 169.445 68.4399 167.856C51.4879 166.263 39.1496 159.882 35.0545 149.324C30.9595 138.765 35.7687 125.733 47.2139 113.127C58.6327 100.55 76.5358 88.5485 98.2244 80.1368C119.913 71.7251 141.227 68.5169 158.14 70.1058C175.092 71.6983 187.43 78.0794 191.525 88.6381Z" stroke="url(#paint11_linear_381_84)" stroke-width="1.17361"/>
<path d="M193.223 93.015C197.318 103.574 192.509 116.605 181.063 129.211C169.644 141.788 151.741 153.79 130.053 162.202C108.364 170.613 87.0506 173.822 70.1377 172.233C53.1856 170.64 40.8474 164.259 36.7523 153.7C32.6572 143.142 37.4664 130.11 48.9116 117.504C60.3305 104.927 78.2336 92.9254 99.9222 84.5137C121.611 76.102 142.924 72.8938 159.837 74.4826C176.789 76.0751 189.128 82.4563 193.223 93.015Z" stroke="url(#paint12_linear_381_84)" stroke-width="1.17361"/>
<path d="M194.92 97.3918C199.015 107.951 194.206 120.982 182.761 133.588C171.342 146.165 153.439 158.167 131.75 166.579C110.061 174.99 88.7479 178.198 71.8349 176.61C54.8829 175.017 42.5446 168.636 38.4496 158.077C34.3545 147.519 39.1637 134.487 50.6089 121.881C62.0278 109.304 79.9309 97.3022 101.619 88.8905C123.308 80.4788 144.622 77.2706 161.535 78.8594C178.487 80.452 190.825 86.8331 194.92 97.3918Z" stroke="url(#paint13_linear_381_84)" stroke-width="1.17361"/>
<path d="M196.618 101.769C200.713 112.327 195.904 125.359 184.458 137.965C173.039 150.542 155.136 162.544 133.448 170.955C111.759 179.367 90.4456 182.575 73.5327 180.986C56.5807 179.394 44.2424 173.013 40.1473 162.454C36.0522 151.895 40.8614 138.864 52.3067 126.258C63.7255 113.68 81.6286 101.679 103.317 93.2672C125.006 84.8555 146.319 81.6473 163.232 83.2361C180.184 84.8287 192.523 91.2098 196.618 101.769Z" stroke="url(#paint14_linear_381_84)" stroke-width="1.17361"/>
<defs>
<linearGradient id="paint0_linear_381_84" x1="79.3399" y1="31.4451" x2="109.895" y2="110.227" gradientUnits="userSpaceOnUse">
<stop stop-color="#55FF79"/>
<stop offset="1" stop-color="#807D7D" stop-opacity="0.54"/>
</linearGradient>
<linearGradient id="paint1_linear_381_84" x1="81.0372" y1="35.8218" x2="111.592" y2="114.604" gradientUnits="userSpaceOnUse">
<stop stop-color="#55FF79"/>
<stop offset="1" stop-color="#807D7D" stop-opacity="0.54"/>
</linearGradient>
<linearGradient id="paint2_linear_381_84" x1="82.7349" y1="40.1987" x2="113.29" y2="118.981" gradientUnits="userSpaceOnUse">
<stop stop-color="#55FF79"/>
<stop offset="1" stop-color="#807D7D" stop-opacity="0.54"/>
</linearGradient>
<linearGradient id="paint3_linear_381_84" x1="84.4322" y1="44.5755" x2="114.987" y2="123.358" gradientUnits="userSpaceOnUse">
<stop stop-color="#55FF79"/>
<stop offset="1" stop-color="#807D7D" stop-opacity="0.54"/>
</linearGradient>
<linearGradient id="paint4_linear_381_84" x1="86.1299" y1="48.9522" x2="116.685" y2="127.734" gradientUnits="userSpaceOnUse">
<stop stop-color="#55FF79"/>
<stop offset="1" stop-color="#807D7D" stop-opacity="0.54"/>
</linearGradient>
<linearGradient id="paint5_linear_381_84" x1="87.8272" y1="53.3291" x2="118.382" y2="132.111" gradientUnits="userSpaceOnUse">
<stop stop-color="#55FF79"/>
<stop offset="1" stop-color="#807D7D" stop-opacity="0.54"/>
</linearGradient>
<linearGradient id="paint6_linear_381_84" x1="89.525" y1="57.7058" x2="120.08" y2="136.488" gradientUnits="userSpaceOnUse">
<stop stop-color="#55FF79"/>
<stop offset="1" stop-color="#807D7D" stop-opacity="0.54"/>
</linearGradient>
<linearGradient id="paint7_linear_381_84" x1="91.2222" y1="62.0825" x2="121.777" y2="140.865" gradientUnits="userSpaceOnUse">
<stop stop-color="#55FF79"/>
<stop offset="1" stop-color="#807D7D" stop-opacity="0.54"/>
</linearGradient>
<linearGradient id="paint8_linear_381_84" x1="92.92" y1="66.4595" x2="123.475" y2="145.242" gradientUnits="userSpaceOnUse">
<stop stop-color="#55FF79"/>
<stop offset="1" stop-color="#807D7D" stop-opacity="0.54"/>
</linearGradient>
<linearGradient id="paint9_linear_381_84" x1="94.6172" y1="70.8362" x2="125.172" y2="149.618" gradientUnits="userSpaceOnUse">
<stop stop-color="#55FF79"/>
<stop offset="1" stop-color="#807D7D" stop-opacity="0.54"/>
</linearGradient>
<linearGradient id="paint10_linear_381_84" x1="96.315" y1="75.213" x2="126.87" y2="153.995" gradientUnits="userSpaceOnUse">
<stop stop-color="#55FF79"/>
<stop offset="1" stop-color="#807D7D" stop-opacity="0.54"/>
</linearGradient>
<linearGradient id="paint11_linear_381_84" x1="98.0123" y1="79.5897" x2="128.567" y2="158.372" gradientUnits="userSpaceOnUse">
<stop stop-color="#55FF79"/>
<stop offset="1" stop-color="#807D7D" stop-opacity="0.54"/>
</linearGradient>
<linearGradient id="paint12_linear_381_84" x1="99.71" y1="83.9666" x2="130.265" y2="162.749" gradientUnits="userSpaceOnUse">
<stop stop-color="#55FF79"/>
<stop offset="1" stop-color="#807D7D" stop-opacity="0.54"/>
</linearGradient>
<linearGradient id="paint13_linear_381_84" x1="101.407" y1="88.3434" x2="131.962" y2="167.126" gradientUnits="userSpaceOnUse">
<stop stop-color="#55FF79"/>
<stop offset="1" stop-color="#807D7D" stop-opacity="0.54"/>
</linearGradient>
<linearGradient id="paint14_linear_381_84" x1="103.105" y1="92.7201" x2="133.66" y2="171.502" gradientUnits="userSpaceOnUse">
<stop stop-color="#55FF79"/>
<stop offset="1" stop-color="#807D7D" stop-opacity="0.54"/>
</linearGradient>
</defs>
</svg>
