<svg id="logo" width="1200" height="120" viewBox="0 0 298 28" xmlns="http://www.w3.org/2000/svg" xmlns:xlink="http://www.w3.org/1999/xlink">

	<style>
		path {
			fill: #000;
		}
	</style>

		<path id="a" d="M23.5 6.5V0H0v6.5h.9c.4-1.7 2.4-5.1 4-5.4.9-.1 2.2-.1 3-.1h1.8v21.4c0 .8-.3 1.5-1.2 1.9-.5.2-2.4.4-3.1.5v.8h12.4v-.8c-.7 0-2.6-.5-3.1-.6-.9-.4-1.2-1.1-1.2-1.9V1h1.8c1 0 2.1 0 3 .1 1.6.2 3.6 3.7 4 5.4h1.2z"/>

		<path id="b" transform="translate(93.3 7.7)" d="M21.5 0h-9.1v.8c.8.1 2.5.5 3.2.9.6.3.9 1.6.9 3.5v7.3c0 1.6-1 4.5-5.2 4.5s-4.6-2.7-4.6-4.5v-10c0-.5.2-1 .9-1.2.5-.1 1.7-.4 2.3-.4V.1H0v.8c.5 0 1.8.3 2.2.5.6.3.9.7.9 1.2v10.6c0 2.7 2.7 5.3 7.6 5.3 2.7 0 7.1-1.5 7.1-5.8v-10c0-.5.2-1 .8-1.2.4-.1 1.4-.4 1.9-.4h1.2c.5 0 1.3.3 1.8.5.6.3.8.7.8 1.2v12.8c0 .5-.3 1-.9 1.2-.4.1-2 .3-2.5.3v.8h10.4v-.8c-.6 0-2.3-.4-2.6-.5-.6-.2-.9-.6-.9-1.2V9.2h2.1c1.3 0 2.1.5 2.4.8.3.4.8 1.9.9 2.7h.9V4.9h-.9c-.1 1-.5 2.2-.9 2.6-.4.3-1 .8-2.4.8h-2.1V.9H31c.9 0 1.8.1 2.4.2 1.2.1 2.6 2.7 2.9 3.8h.9V.1H21.5V0z"/>

		<path id="c" transform="translate(21.3 7.7)" d="M23.2.8c.6 0 1.5.3 2 .5.6.3.9.7.9 1.2v13c0 .6-.2 1-.9 1.2-.4.1-1.9.3-2.5.4v.8h17.1l.5-5.9h-.9c-.3.8-1.4 3.6-2.3 4.4-.6.6-2.6.6-4.4.6-2.6 0-3.1-.3-3.1-2.3V9.1h2.1c1.5 0 2 .5 2.3.8.3.3.8 1.9.9 2.7h.9V4.8h-.9c-.1.8-.4 2.2-.9 2.6-.3.3-.8.7-2.3.7h-2.1V.8h3.1c.9 0 1.7.1 2.4.2 1.2.1 2.6 2.5 2.9 3.6h.9V0H12.3v.8c.6 0 1.9.3 2.3.5.5.2.8.7.8 1.2V8H6.7V2.4c0-.5.2-1 .9-1.2.5-.1 1.7-.4 2.3-.4V0H0v.8c.6 0 1.8.4 2.3.5.6.2.9.7.9 1.2v13c0 .5-.3 1-.9 1.2-.4.1-1.8.3-2.3.3v.8h9.9V17c-.6-.1-2-.4-2.3-.5-.6-.2-.9-.6-.9-1.2V8.9h8.7v6.5c0 .5-.2 1-.8 1.2-.3.1-1.7.3-2.3.3v.8h9.8v-.8c-.5 0-2-.3-2.3-.5-.6-.2-.9-.6-.9-1.2v-13c0-.5.2-1 .9-1.2.5-.1 1.5-.4 2-.4h.7c.4.2.7.2.7.2z"/>

		<path id="d" transform="translate(282.9 7.3)" d="M13.7 13.2c0-2.7-1.4-4-3.9-5-1.3-.5-2.6-.7-4-1.4-1.5-.7-2.5-1.6-2.5-3.2C3.3 1.7 5.2.9 6 .9c3.8 0 5.4 2.9 6.3 5.7h.8L12.8.2h-1l-1 1.2C9.8.6 8.2 0 6.7 0 3.4 0 .6 2.2.6 5c0 2.3 1 4 3.3 5 1.6.7 2.6.8 4.2 1.4C9.8 12 11 13 11 14.5c0 1.9-1.2 3.3-3.6 3.3-3.7 0-5.5-3.1-6.6-6H0l.2 6.7h1l1-1.2c.9.6 2.6 1.4 4.9 1.4 3.8.1 6.6-2.2 6.6-5.5z"/>

		<path id="e" transform="translate(254 7.7)" d="M29.6.8V0h-8.3v.8c1.3.1 3.4.5 3.4 1.3 0 .5-.1 1-.5 2.3-.6 2.1-1.7 4.7-3.2 8.6-1.9-5.6-3.4-9.7-3.7-10.7-.1-.2-.1-.5-.1-.6 0-.5 1.7-.8 2.8-.9V0h-9.6v.8c.6 0 1.8.3 2.3.6C13.6 2 14 2.8 14 4l-3.6 9.2C8.5 7.5 7.2 3.5 6.8 2.4c-.1-.1-.1-.5-.1-.6 0-.5 1.7-.8 2.7-.9V.1H0v.8c.6 0 1.7.3 2.1.5.6.3.9.7 1 1.2C3.9 5 6 11.4 8.2 18.2h1.4l5-12.8c1.1 3.3 2.6 7.6 4.3 12.8h1.3c2-5.4 4.4-11.8 5.7-14.9.3-.8.7-1.4 1.4-1.8.6-.3 1.7-.6 2.3-.7z"/>

		<path id="f" transform="translate(237 7.7)" d="M17.6 12h-.9c-.3.8-1.4 3.6-2.3 4.4-.6.6-2.5.6-4.4.6-2.6 0-3.1-.3-3.1-2.3V9.1H9c1.5 0 2 .5 2.3.8.3.3.8 1.9.9 2.7h.9V4.8h-.9c-.1.8-.4 2.2-.9 2.6-.3.3-.8.7-2.3.7H6.9V.8H10c.9 0 1.7.1 2.4.2 1.2.1 2.6 2.5 2.9 3.6h.9V0H0v.8c.6 0 2 .3 2.5.5.6.3.9.7.9 1.2v13c0 .6-.2 1-.9 1.2-.5.1-1.9.3-2.5.4v.8h17.1l.5-5.9z"/>

		<path id="g" transform="translate(209)" d="M29.5.8V0H18.3v.8c.9 0 3.1.7 3.8 1.1.8.5 1.3 2.4 1.3 5.1v12.7L7.7 0H0v.8c1 0 3.1.9 4 1.7.7.6 1.2 1.9 1.2 3v13.2c0 2.9-.3 4.5-1.2 5.1-.4.3-2.8 1-3.5 1v.8h11.2v-.8c-.7 0-3.2-.7-3.9-1.2-.8-.7-1.3-2.3-1.3-5.1V4.7l16.9 21.2h1.4V6.8c0-2.5.2-4.4 1.2-5 .6-.4 2.8-.9 3.5-1z"/>

		<path id="h" transform="translate(131.3 7.8)" d="M16.3 4.8V0H0v.8c.6 0 2 .3 2.5.5.7.2.9.7.9 1.2v13c0 .5-.3 1-.9 1.2-.4.1-1.9.3-2.5.3v.8h10.4V17c-.6 0-2.3-.4-2.6-.5-.6-.2-.9-.6-.9-1.2V9.1H9c1.3 0 2.1.5 2.4.8.3.4.8 1.9.9 2.7h.9V4.8h-.9c-.1 1-.5 2.2-.9 2.6-.4.3-1 .8-2.4.8H6.9V.8h3.2c.9 0 1.8.1 2.4.2 1.2.1 2.6 2.7 2.8 3.8h1z"/>

		<path id="i" transform="translate(144.9 7.4)" fill-rule="evenodd" d="M12.2 11H6.7l2.7-6.6 2.8 6.6zm7.5 7.2h16.5l.6-6.3h-.9c-.4 1.3-1.9 4-2.6 4.7-.6.6-2.1.8-3.6.8-2.6 0-3.1-.4-3.1-2.3V2.8c0-.5.3-1 .9-1.2.8-.3 2-.4 2.5-.5V.3H19.8v.8c.6 0 1.9.4 2.3.6.6.2.9.7.9 1.2v12.9c0 .5-.2 1-.9 1.2-1.5.4-2.4.2-3-.2-.5-.3-.8-.7-1-1.1-1-2.4-3.7-9-6.5-15.7h-1.5C8 5 5.8 10.4 3.8 14.9c-.4.9-.9 1.6-1.5 1.9-.4.2-1.7.5-2.3.6v.8h8.5v-.8c-1-.1-3.4-.5-3.4-1.3 0-.4.1-.9.3-1.4.3-.8.6-1.5 1-2.7h6.4l1.6 3.9c.1.2.1.3.1.5 0 .6-2.1.9-3.1 1v.8h9.7-1.4z"/>

		<path id="j" transform="translate(144.9 7.4)" d="M12.2 11H6.7l2.7-6.6 2.8 6.6zm7.5 7.2h16.5l.6-6.3h-.9c-.4 1.3-1.9 4-2.6 4.7-.6.6-2.1.8-3.6.8-2.6 0-3.1-.4-3.1-2.3V2.8c0-.5.3-1 .9-1.2.8-.3 2-.4 2.5-.5V.3H19.8v.8c.6 0 1.9.4 2.3.6.6.2.9.7.9 1.2v12.9c0 .5-.2 1-.9 1.2-1.5.4-2.4.2-3-.2-.5-.3-.8-.7-1-1.1-1-2.4-3.7-9-6.5-15.7h-1.5C8 5 5.8 10.4 3.8 14.9c-.4.9-.9 1.6-1.5 1.9-.4.2-1.7.5-2.3.6v.8h8.5v-.8c-1-.1-3.4-.5-3.4-1.3 0-.4.1-.9.3-1.4.3-.8.6-1.5 1-2.7h6.4l1.6 3.9c.1.2.1.3.1.5 0 .6-2.1.9-3.1 1v.8h9.7-1.4z"/>

		<path id="k" transform="translate(71.4 .1)" fill-rule="evenodd" d="M21.7 18.7c0-4.9-5.2-6.5-7.8-6.8v-.3c3.6-1 6.5-2.3 6.5-6.5 0-4-4.6-5.1-7.3-5.1H.2v.8c.7 0 1.8.3 2.6.6.9.4 1.2 1 1.2 1.9v19.2c0 .8-.3 1.5-1.2 1.8-.5.2-2.1.5-2.8.5v.8h13c3.7-.1 8.7-2.1 8.7-6.9zM15.9 5.8c0 3.2-1.5 5.7-5.6 5.7H8V1c.9 0 2.4-.1 3.1-.1 2.3 0 4.8 1.2 4.8 4.9zM17.1 18c0 3-1.2 6.5-5.6 6.5-2.2 0-3.3-.6-3.5-2.3v-9.6c.7 0 2.5-.1 3.2-.1 3.8 0 5.9 2.5 5.9 5.5z"/>

		<path id="l" transform="translate(71.4 .1)" d="M21.7 18.7c0-4.9-5.2-6.5-7.8-6.8v-.3c3.6-1 6.5-2.3 6.5-6.5 0-4-4.6-5.1-7.3-5.1H.2v.8c.7 0 1.8.3 2.6.6.9.4 1.2 1 1.2 1.9v19.2c0 .8-.3 1.5-1.2 1.8-.5.2-2.1.5-2.8.5v.8h13c3.7-.1 8.7-2.1 8.7-6.9zM15.9 5.8c0 3.2-1.5 5.7-5.6 5.7H8V1c.9 0 2.4-.1 3.1-.1 2.3 0 4.8 1.2 4.8 4.9zM17.1 18c0 3-1.2 6.5-5.6 6.5-2.2 0-3.3-.6-3.5-2.3v-9.6c.7 0 2.5-.1 3.2-.1 3.8 0 5.9 2.5 5.9 5.5z"/>

		<path id="m" transform="translate(182 7.3)" fill-rule="evenodd" d="M19.2 9.3c0-2.6-1-5-2.7-6.6C14.4.7 12.2 0 9.6 0 6.9 0 4.7.9 2.8 2.7.9 4.5 0 6.7 0 9.6c0 2.9 1.2 5.1 3 6.7 2 1.6 3.9 2.5 6.5 2.5 2.9 0 5.1-1 6.8-2.5 2-1.9 2.9-4.3 2.9-7zm-4.1 0c0 4.8-1.7 8.5-5.6 8.5C5.7 17.8 4 14 4 9.4 4 4 6.1.9 9.5.9c4.2 0 5.6 4.3 5.6 8.4z"/>

		<path id="n" transform="translate(182 7.3)" d="M19.2 9.3c0-2.6-1-5-2.7-6.6C14.4.7 12.2 0 9.6 0 6.9 0 4.7.9 2.8 2.7.9 4.5 0 6.7 0 9.6c0 2.9 1.2 5.1 3 6.7 2 1.6 3.9 2.5 6.5 2.5 2.9 0 5.1-1 6.8-2.5 2-1.9 2.9-4.3 2.9-7zm-4.1 0c0 4.8-1.7 8.5-5.6 8.5C5.7 17.8 4 14 4 9.4 4 4 6.1.9 9.5.9c4.2 0 5.6 4.3 5.6 8.4z"/>

		<path id="o" transform="translate(.6 .4)" fill-rule="evenodd" d="M8.6 1.6h-.3c-.8 0-2.1 0-3 .1-1.6.2-3.6 3.7-4 5.4H0v-.2h1.1c.4-1.6 2.4-5.1 4-5.4.9-.1 2.2-.1 3-.1h.5v.2zM18.1 25h.2v1.2H5.4V26h12.7v-1zm5.7-18.8h-.2V0h.2v6.2z"/>

		<path id="p" transform="translate(.6 .4)" d="M8.6 1.6h-.3c-.8 0-2.1 0-3 .1-1.6.2-3.6 3.7-4 5.4H0v-.2h1.1c.4-1.6 2.4-5.1 4-5.4.9-.1 2.2-.1 3-.1h.5v.2zM18.1 25h.2v1.2H5.4V26h12.7v-1zm5.7-18.8h-.2V0h.2v6.2z"/>

		<path id="q" transform="translate(21.8 8.3)" fill-rule="evenodd" d="M40.6 12h.2l-.5 6.3H22.4v-.2h17.7l.5-6.1zm-7.1-1.9c-.3-.3-.9-.7-2.2-.7H30v6c0 .2-.2 0-.2-.2v-6h1.3c1.5.1 2 .5 2.4.9zM36 4.8h.2V13h-1.3v-.2h1.2v-8H36zm0-2.6c-.4-.4-.8-.7-1.2-.8-.7-.1-.7-.1-1.6-.1h-3.1v5.6h-.2V1.1H33c.9 0 .9.1 1.6.1.4.1.9.5 1.4 1zM39.1 0h.2v5H38l-.1-.2H39V0h.1zM15 2c-.1-.1-.3-.2-.4-.3-.5-.2-1.7-.5-2.3-.5V1c.6.1 1.7.3 2.2.5.2.1.4.3.5.5zm-4.9-2h.2v1.2c-.6 0-1.8.3-2.3.4-.7.2-.9.7-.9 1.2v4.1h-.2V2.6c0-.5.2-1 .9-1.2.5-.2 1.7-.4 2.3-.4V0zM2.8 2c-.1-.1-.3-.2-.5-.3-.5-.2-1.8-.5-2.3-.5V1c.6.1 1.7.4 2.2.5.2.1.4.3.6.5zm7.3 15.1h.2v1.2H0v-.2h10.1v-1zm4.2-7.6H7.1v6s-.2 0-.2-.2v-6h7.3v.2h.1zm7.2 8.8h-9.3v-.2h9.3v.2z"/>

		<path id="r" transform="translate(21.8 8.3)" d="M40.6 12h.2l-.5 6.3H22.4v-.2h17.7l.5-6.1zm-7.1-1.9c-.3-.3-.9-.7-2.2-.7H30v6c0 .2-.2 0-.2-.2v-6h1.3c1.5.1 2 .5 2.4.9zM36 4.8h.2V13h-1.3v-.2h1.2v-8H36zm0-2.6c-.4-.4-.8-.7-1.2-.8-.7-.1-.7-.1-1.6-.1h-3.1v5.6h-.2V1.1H33c.9 0 .9.1 1.6.1.4.1.9.5 1.4 1zM39.1 0h.2v5H38l-.1-.2H39V0h.1zM15 2c-.1-.1-.3-.2-.4-.3-.5-.2-1.7-.5-2.3-.5V1c.6.1 1.7.3 2.2.5.2.1.4.3.5.5zm-4.9-2h.2v1.2c-.6 0-1.8.3-2.3.4-.7.2-.9.7-.9 1.2v4.1h-.2V2.6c0-.5.2-1 .9-1.2.5-.2 1.7-.4 2.3-.4V0zM2.8 2c-.1-.1-.3-.2-.5-.3-.5-.2-1.8-.5-2.3-.5V1c.6.1 1.7.4 2.2.5.2.1.4.3.6.5zm7.3 15.1h.2v1.2H0v-.2h10.1v-1zm4.2-7.6H7.1v6s-.2 0-.2-.2v-6h7.3v.2h.1zm7.2 8.8h-9.3v-.2h9.3v.2z"/>

		<path id="s" transform="translate(40.9 9.3)" fill-rule="evenodd" d="M4.5.2H3.1c-.5 0-1.6.3-2 .4-.7.2-.9.7-.9 1.2v12.7c0 .1-.2-.1-.2-.2V1.6C0 1.1.2.6.9.4c.5-.2 1.5-.4 2-.4h1.4c.6 0 1.5.3 2 .5.3.1.5.3.6.5-.1-.1-.3-.2-.5-.3C6 .5 5.1.2 4.5.2z"/>

		<path id="t" transform="translate(14.5 1.8)" fill-rule="evenodd" d="M0 19.4V0h1.8c1 0 1.4 0 2.3.1.6.1 1.2.6 1.7 1.2-.5-.6-1.1-1-1.6-1C3.3.2 3 .2 1.9.2H.1v19.3c0 1 0 1.5.8 2.4-.9-.8-.9-1.4-.9-2.5z"/>

		<path id="u" transform="translate(93.7 8.3)" fill-rule="evenodd" d="M16.1 2.1L16 2c-.7-.4-2.4-.8-3.2-.9V.9c.8.1 2.4.5 3 .8.1.2.2.3.3.4zM10.2 0h.2v1.2c-.6 0-1.8.3-2.3.4-.6.2-.9.7-.9 1.2V12c0 1 .1 2.3.9 3.2-.9-1-1.1-2.3-1.1-3.4V2.6c0-.5.2-1 .9-1.2.5-.2 1.7-.4 2.3-.4V0zM2.7 2c-.1-.1-.3-.2-.5-.3-.5-.2-1.7-.5-2.2-.5V1c.6.1 1.6.3 2.1.5.3.2.5.3.6.5zm21.7.2c-.1-.1-.2-.2-.4-.3-.5-.2-1.3-.5-1.8-.5H21c-.5 0-1.4.3-1.9.4-.6.2-.8.7-.8 1.2v10c0 4.3-4.4 5.8-7.1 5.8-3 0-5.2-1-6.4-2.4 1.2 1.3 3.4 2.2 6.3 2.2 2.7 0 7.1-1.5 7.1-5.8v-10c0-.5.2-1 .8-1.2.4-.2 1.4-.4 1.9-.4h1.2c.5 0 1.3.3 1.8.5.2.2.4.3.5.5zm7.2 14.9h.2v1.2H21v-.2h10.6v-1zm.4-6.8c-.4-.3-1.2-.8-2.4-.8h-1.4v5.6c0 .3-.2.2-.2-.2V9.3h1.4c1.3 0 2.1.5 2.4.8l.2.2zm2.5-5h.2v7.8h-.9v-.2h.8V5.3h-.1zm-.3-3.2c-.4-.4-.7-.6-1.1-.7-.7-.1-1.5-.1-2.4-.1h-2.4v5.6h-.2V1.1h2.4c.9 0 1.8.1 2.4.1.5.1.9.4 1.3.9zM37.4.6h.2V5h-1.3v-.2h1.2V.6h-.1z"/>

		<path id="v" transform="translate(93.7 8.3)" d="M16.1 2.1L16 2c-.7-.4-2.4-.8-3.2-.9V.9c.8.1 2.4.5 3 .8.1.2.2.3.3.4zM10.2 0h.2v1.2c-.6 0-1.8.3-2.3.4-.6.2-.9.7-.9 1.2V12c0 1 .1 2.3.9 3.2-.9-1-1.1-2.3-1.1-3.4V2.6c0-.5.2-1 .9-1.2.5-.2 1.7-.4 2.3-.4V0zM2.7 2c-.1-.1-.3-.2-.5-.3-.5-.2-1.7-.5-2.2-.5V1c.6.1 1.6.3 2.1.5.3.2.5.3.6.5zm21.7.2c-.1-.1-.2-.2-.4-.3-.5-.2-1.3-.5-1.8-.5H21c-.5 0-1.4.3-1.9.4-.6.2-.8.7-.8 1.2v10c0 4.3-4.4 5.8-7.1 5.8-3 0-5.2-1-6.4-2.4 1.2 1.3 3.4 2.2 6.3 2.2 2.7 0 7.1-1.5 7.1-5.8v-10c0-.5.2-1 .8-1.2.4-.2 1.4-.4 1.9-.4h1.2c.5 0 1.3.3 1.8.5.2.2.4.3.5.5zm7.2 14.9h.2v1.2H21v-.2h10.6v-1zm.4-6.8c-.4-.3-1.2-.8-2.4-.8h-1.4v5.6c0 .3-.2.2-.2-.2V9.3h1.4c1.3 0 2.1.5 2.4.8l.2.2zm2.5-5h.2v7.8h-.9v-.2h.8V5.3h-.1zm-.3-3.2c-.4-.4-.7-.6-1.1-.7-.7-.1-1.5-.1-2.4-.1h-2.4v5.6h-.2V1.1h2.4c.9 0 1.8.1 2.4.1.5.1.9.4 1.3.9zM37.4.6h.2V5h-1.3v-.2h1.2V.6h-.1z"/>

		<path id="w" transform="translate(131.8 8.3)" fill-rule="evenodd" d="M3.3 2c-.1-.1-.3-.2-.5-.3-.5-.2-2-.5-2.5-.5V1c.6.1 1.9.3 2.3.5.4.1.6.3.7.5zm7.3 15.1h.2v1.2H0v-.2h10.6v-1zm.4-6.8c-.4-.3-1.2-.8-2.4-.8H7.2v5.7c0 .3-.2 0-.2-.2V9.3h1.4c1.3 0 2.1.5 2.4.8.1.2.2.2.2.2zM13.5 5h.2v8.2h-1.3V13h1.2V5h-.1zm-.3-2.9c-.4-.4-.7-.6-1.1-.7-.7-.1-1.5-.1-2.4-.1H7.3v5.6h-.2V1.1h2.4c.9 0 1.8.1 2.4.1.5.1.9.4 1.3.9zm3.4 3.1h-1.3V5h1.2V0h.2v5.2h-.1z"/>

		<path id="x" transform="translate(131.8 8.3)" d="M3.3 2c-.1-.1-.3-.2-.5-.3-.5-.2-2-.5-2.5-.5V1c.6.1 1.9.3 2.3.5.4.1.6.3.7.5zm7.3 15.1h.2v1.2H0v-.2h10.6v-1zm.4-6.8c-.4-.3-1.2-.8-2.4-.8H7.2v5.7c0 .3-.2 0-.2-.2V9.3h1.4c1.3 0 2.1.5 2.4.8.1.2.2.2.2.2zM13.5 5h.2v8.2h-1.3V13h1.2V5h-.1zm-.3-2.9c-.4-.4-.7-.6-1.1-.7-.7-.1-1.5-.1-2.4-.1H7.3v5.6h-.2V1.1h2.4c.9 0 1.8.1 2.4.1.5.1.9.4 1.3.9zm3.4 3.1h-1.3V5h1.2V0h.2v5.2h-.1z"/>

		<path id="y" transform="translate(145.3 8.3)" fill-rule="evenodd" d="M9.9 4.5l-2 5h-.2l2.1-5.3.1.3zM30.2 0h.2v1.2c-.6 0-1.8.2-2.6.5-.6.2-.8.6-.8 1.2v12.2c0 .8-.2.7-.2-.2V2.6c0-.5.3-1 .8-1.2.8-.3 2-.4 2.5-.5V0h.1zm-7.8 2c-.1-.1-.3-.2-.5-.3-.4-.2-1.7-.5-2.3-.6V.9c.6.1 1.8.4 2.2.5.3.3.5.4.6.6zM8.7 17.1h.2v1.2H0v-.2h8.7v-1zm3.4-5H6.8c-.4 1.2-.4 1-.7 1.8-.2.6-.3 1.1-.3 1.4 0 .1 0 .2.1.2-.1-.1-.2-.3-.2-.4 0-.4.1-.9.3-1.4.3-.8.2-.6.7-1.8h5.4v.2zm8 6.2h-8.8v-.2h25.2l.5-5.2h.2l-.5 5.4H20.1z"/>

		<path id="z" transform="translate(145.3 8.3)" d="M9.9 4.5l-2 5h-.2l2.1-5.3.1.3zM30.2 0h.2v1.2c-.6 0-1.8.2-2.6.5-.6.2-.8.6-.8 1.2v12.2c0 .8-.2.7-.2-.2V2.6c0-.5.3-1 .8-1.2.8-.3 2-.4 2.5-.5V0h.1zm-7.8 2c-.1-.1-.3-.2-.5-.3-.4-.2-1.7-.5-2.3-.6V.9c.6.1 1.8.4 2.2.5.3.3.5.4.6.6zM8.7 17.1h.2v1.2H0v-.2h8.7v-1zm3.4-5H6.8c-.4 1.2-.4 1-.7 1.8-.2.6-.3 1.1-.3 1.4 0 .1 0 .2.1.2-.1-.1-.2-.3-.2-.4 0-.4.1-.9.3-1.4.3-.8.2-.6.7-1.8h5.4v.2zm8 6.2h-8.8v-.2h25.2l.5-5.2h.2l-.5 5.4H20.1z"/>

		<path id="A" transform="translate(72 1.8)" fill-rule="evenodd" d="M3.2 1.2C3 1 2.8.9 2.6.8 1.8.5.6.2 0 .2V0c.7.1 1.7.3 2.5.6.3.2.6.4.7.6zM22 18c0 4.8-5.1 6.8-8.6 6.8H0v-.2h13.3c3.6 0 8.6-2 8.6-6.8 0-1.6-.6-2.9-1.4-3.9.9 1 1.5 2.4 1.5 4.1zM15 1.5C14.1.5 12.7.2 11.4.2c-.6 0-2.2 0-3.1.1V9h-.2V.1c.9 0 2.4-.1 3.1-.1 1.4 0 2.8.4 3.8 1.5z"/>

		<path id="B" transform="translate(72 1.8)" d="M3.2 1.2C3 1 2.8.9 2.6.8 1.8.5.6.2 0 .2V0c.7.1 1.7.3 2.5.6.3.2.6.4.7.6zM22 18c0 4.8-5.1 6.8-8.6 6.8H0v-.2h13.3c3.6 0 8.6-2 8.6-6.8 0-1.6-.6-2.9-1.4-3.9.9 1 1.5 2.4 1.5 4.1zM15 1.5C14.1.5 12.7.2 11.4.2c-.6 0-2.2 0-3.1.1V9h-.2V.1c.9 0 2.4-.1 3.1-.1 1.4 0 2.8.4 3.8 1.5z"/>

		<path id="C" transform="translate(185.584 10.8)" fill-rule="evenodd" d="M16.516 6.7c0 2.8-.9 5.2-3 7.1-1.7 1.5-3.9 2.5-6.8 2.5-2.6 0-4.6-.7-6.5-2.3l-.2-.2c2 1.6 4 2.3 6.5 2.3 2.9 0 5.1-1 6.8-2.5 2.1-1.9 3-4.3 3-7.1 0-2.3-.7-4.9-2.1-6.5 1.6 1.6 2.3 4.3 2.3 6.7z"/>

		<path id="D" transform="translate(87.2 3.1)" fill-rule="evenodd" d="M4.3 0c.7.7 1.2 1.7 1.2 3 0 4.2-3 5.2-5.1 5.9L0 8.8C2.3 8 5.3 7 5.3 2.8c0-1.1-.4-2.1-1-2.8z"/>

		<path id="E" transform="translate(80.2 13.3)" fill-rule="evenodd" d="M.1 5.4V8c0 1 .1 1.4.9 2.4-.9-1-1-1.5-1-2.5V.1C.7.1 1.7 0 2.4 0c2.1 0 3.7.7 4.7 1.9C6.1.8 4.6.2 2.6.2 1.9.2.9.2.2.3L.1 5.4z"/>

		<path id="F" transform="translate(186.8 9.1)" fill-rule="evenodd" d="M8.5 1.5C7.7.7 6.7.2 5.3.2 2.1.2.2 3.1.2 8.1c0 2.6.6 4.9 1.8 6.3C.6 13 0 10.6 0 7.9 0 2.9 1.9 0 5.1 0c1.5 0 2.6.6 3.4 1.5z"/>

		<path id="G" transform="translate(283.6 8.2)" fill-rule="evenodd" d="M9.6 2.4C8.6 1.4 7.8 1 6 1c-.8 0-2.3.4-2.3 2.4 0 .8.3 1.4.7 1.9-.5-.6-.9-1.2-.9-2.1C3.5 1.3 5 .8 5.8.8c1.9 0 2.8.4 3.8 1.6zM12.8 0h.2l.3 6.7h-1.2l-.1-.2h1.1L12.8 0zM9.6 12.6c-.5-.5-1.2-.9-2.1-1.2-1.6-.6-2-.5-3.6-1.2-.9-.4-1.6-.9-2.1-1.4.5.5 1.1.9 1.9 1.3 1.6.7 2 .7 3.6 1.2 1 .2 1.8.7 2.3 1.3zm-8.5-.8c.6 1.4 1.3 2.8 2.3 3.9-1.1-1.1-1.8-2.5-2.3-3.9zm12.8 1.4c0 3.3-2.8 5.6-6.6 5.6-2.3 0-4-.8-4.9-1.4l-1 1.2H0v-.2h1.3l1-1.2c.9.6 2.6 1.4 4.9 1.4 3.8 0 6.6-2.4 6.6-5.6 0-1.4-.4-2.4-1-3.2.7.9 1.1 2 1.1 3.4z"/>

		<path id="H" transform="translate(283.6 8.2)" d="M9.6 2.4C8.6 1.4 7.8 1 6 1c-.8 0-2.3.4-2.3 2.4 0 .8.3 1.4.7 1.9-.5-.6-.9-1.2-.9-2.1C3.5 1.3 5 .8 5.8.8c1.9 0 2.8.4 3.8 1.6zM12.8 0h.2l.3 6.7h-1.2l-.1-.2h1.1L12.8 0zM9.6 12.6c-.5-.5-1.2-.9-2.1-1.2-1.6-.6-2-.5-3.6-1.2-.9-.4-1.6-.9-2.1-1.4.5.5 1.1.9 1.9 1.3 1.6.7 2 .7 3.6 1.2 1 .2 1.8.7 2.3 1.3zm-8.5-.8c.6 1.4 1.3 2.8 2.3 3.9-1.1-1.1-1.8-2.5-2.3-3.9zm12.8 1.4c0 3.3-2.8 5.6-6.6 5.6-2.3 0-4-.8-4.9-1.4l-1 1.2H0v-.2h1.3l1-1.2c.9.6 2.6 1.4 4.9 1.4 3.8 0 6.6-2.4 6.6-5.6 0-1.4-.4-2.4-1-3.2.7.9 1.1 2 1.1 3.4z"/>

		<path id="I" transform="translate(254.9 8.7)" fill-rule="evenodd" d="M24.4 1.6c-.6-.5-2.1-.8-3.2-.9V.5c1.2.2 2.8.6 3.2 1.1zM19.8 0h.2v.8c-1 0-2.6.3-2.6.8 0 .2 0 .1.1.6.3 1 .9 2.7 2.8 8.2l-.1.2c-1.9-5.6-2.6-7.5-2.9-8.5 0-.1-.1-.3-.1-.4v-.2c.1-.5 1.5-.7 2.6-.8V0zm-6.6 1.8c-.2-.2-.3-.3-.6-.4-.4-.3-1.7-.5-2.2-.6V.6c.6.1 1.7.3 2.1.5.3.2.5.4.7.7zM2.7 1.7c-.1-.1-.3-.3-.6-.4C1.6 1 .6.8 0 .8V.6c.6.1 1.6.3 2 .5.3.2.6.4.7.6zM14 6.8L9.6 18H7.8l-.1-.2h1.7l4.4-11.4.2.4zm15.4-6c-.6 0-1.5.3-2 .6-.7.3-1.1 1-1.4 1.8-1.3 3.1-3.7 9.6-5.7 14.9h-1.7l-.1-.2h1.6c2-5.4 4.4-11.8 5.7-14.9.3-.8.7-1.4 1.4-1.8.5-.3 1.4-.6 2-.6V0h.2v.8z"/>

		<path id="J" transform="translate(254.9 8.7)" d="M24.4 1.6c-.6-.5-2.1-.8-3.2-.9V.5c1.2.2 2.8.6 3.2 1.1zM19.8 0h.2v.8c-1 0-2.6.3-2.6.8 0 .2 0 .1.1.6.3 1 .9 2.7 2.8 8.2l-.1.2c-1.9-5.6-2.6-7.5-2.9-8.5 0-.1-.1-.3-.1-.4v-.2c.1-.5 1.5-.7 2.6-.8V0zm-6.6 1.8c-.2-.2-.3-.3-.6-.4-.4-.3-1.7-.5-2.2-.6V.6c.6.1 1.7.3 2.1.5.3.2.5.4.7.7zM2.7 1.7c-.1-.1-.3-.3-.6-.4C1.6 1 .6.8 0 .8V.6c.6.1 1.6.3 2 .5.3.2.6.4.7.6zM14 6.8L9.6 18H7.8l-.1-.2h1.7l4.4-11.4.2.4zm15.4-6c-.6 0-1.5.3-2 .6-.7.3-1.1 1-1.4 1.8-1.3 3.1-3.7 9.6-5.7 14.9h-1.7l-.1-.2h1.6c2-5.4 4.4-11.8 5.7-14.9.3-.8.7-1.4 1.4-1.8.5-.3 1.4-.6 2-.6V0h.2v.8z"/>

		<path id="K" transform="translate(237.2 8.7)" fill-rule="evenodd" d="M11 9.7c-.3-.3-.9-.7-2.2-.7H7.5v5.6c0 .8-.2.8-.2-.2V8.8h1.3c1.5.1 2 .5 2.4.9zm2.5-5.3h.2v8.2h-1.3v-.2h1.2v-8h-.1zm0-2.6c-.4-.4-.8-.7-1.2-.8-.7-.1-.7-.1-1.6-.1H7.6v5.6h-.2V.7h3.1c.9 0 .9.1 1.6.1.4.1.9.5 1.4 1zM16.6 0h.2v4.6h-.9l-.1-.2h.8V0zM3 1.6c-.1-.1-.3-.2-.5-.3C2 1.1.6.8 0 .8V.6c.6.1 1.9.3 2.3.5.4.2.6.3.7.5zm15.3 10.2l-.5 6.1H.7v-.2h17l.5-5.9h.1z"/>

		<path id="L" transform="translate(237.2 8.7)" d="M11 9.7c-.3-.3-.9-.7-2.2-.7H7.5v5.6c0 .8-.2.8-.2-.2V8.8h1.3c1.5.1 2 .5 2.4.9zm2.5-5.3h.2v8.2h-1.3v-.2h1.2v-8h-.1zm0-2.6c-.4-.4-.8-.7-1.2-.8-.7-.1-.7-.1-1.6-.1H7.6v5.6h-.2V.7h3.1c.9 0 .9.1 1.6.1.4.1.9.5 1.4 1zM16.6 0h.2v4.6h-.9l-.1-.2h.8V0zM3 1.6c-.1-.1-.3-.2-.5-.3C2 1.1.6.8 0 .8V.6c.6.1 1.9.3 2.3.5.4.2.6.3.7.5zm15.3 10.2l-.5 6.1H.7v-.2h17l.5-5.9h.1z"/>

		<path id="M" transform="translate(209.8 .7)" fill-rule="evenodd" d="M6.9 5.8l.2.2v11.5c0 2.5.4 4.1 1 4.9-.7-.7-1.2-2.3-1.2-5V5.8zm16.9 20.3l-.1-.2h1.4v-19c0-2.5.2-4.4 1.2-5 .6-.4 2.8-.9 3.4-.9V0h.2v1.2c-.7 0-2.9.6-3.5.9-1 .6-1.2 2.5-1.2 5v19.1h-1.4v-.1zM22.4 2.4c-.1-.1-.1-.1-.2-.1-.7-.5-3-1.1-3.8-1.1V1c1 .1 3 .7 3.7 1.1l.3.3zM4.2 3c-.1-.1-.1-.1-.2-.1-.9-.7-3-1.6-4-1.7V1c1.1.1 3 1 3.8 1.6l.4.4zM12 24.6h.2v1.2H.6v-.2h11.5v-1H12z"/>

		<path id="N" transform="translate(209.8 .3)" d="M6.9 6.2l.2.2v11.5c0 2.5.4 4.1 1 4.9-.7-.7-1.2-2.3-1.2-5V6.2zm16.9 20.3l-.1-.2h1.4v-19c0-2.5.2-4.4 1.2-5 .6-.4 2.8-.9 3.4-.9v-1h.2v1.2c-.7 0-2.9.6-3.5.9-1 .6-1.2 2.5-1.2 5v19.1h-1.4v-.1zM22.4 2.8c-.1-.1-.1-.1-.2-.1-.7-.5-3-1.1-3.8-1.1v-.2c1 .1 3 .7 3.7 1.1l.3.3zm-18.2.6c-.1-.1-.1-.1-.2-.1-.9-.7-3-1.6-4-1.7v-.2c1.1.1 3 1 3.8 1.6l.4.4zM12 25h.2v1.2H.6V26h11.5v-1H12zM8.1 0l14 17.7L8.1 0z"/>

		<path id="O" transform="translate(261.6 8.7)" d="M2.5 0h.2v.8c-1 0-2.5.3-2.5.8 0 .2 0 .1.1.6.3 1 .9 2.6 2.8 8.1l-.1.2C1.1 4.9.4 3.1.1 2c0-.1-.1-.3-.1-.4v-.2C.1.9 1.5.7 2.5.6V0z"/>

</svg>
