<?xml version="1.0" encoding="utf-8"?>
<!-- Generator: Adobe Illustrator 19.0.0, SVG Export Plug-In . SVG Version: 6.00 Build 0)  -->
<svg version="1.1" id="layer" xmlns="http://www.w3.org/2000/svg" xmlns:xlink="http://www.w3.org/1999/xlink" x="0px" y="0px"
	 viewBox="-153 -46 652 652" style="enable-background:new -153 -46 652 652;" xml:space="preserve">
<style type="text/css">
	.st0{fill:#0072B4;}
</style>
<path class="st0" d="M433.6,318.8c6.9,0,7.5-6.2,7.5-11l-0.3-53.7c-1.1-2.9-3.3-3.5-5.3-3.5c-1.6,0-2.9-0.1-4.3,1
	c-3.8,3-4.7,7.1-5.6,10.7c-1.3,5.4-2.4,10.6-2.4,13.6v21.7C423.3,300.9,425.1,318.8,433.6,318.8z M408.4,322.9
	c-4.3-8.6-5.8-18.1-6.4-26.6l0.3-11c1.8-18.8,3.3-19.3,6.9-28.2c0.6-1.6,3.2-4.8,4-6.2c4.5-6.6,11.1-9.2,16.8-9.2
	c4.8,0,8.8,2.8,9.7,2.8c1.8,0,1.3-3.8,1.3-4.4l-0.5-14.8c0-1.5-2.5-3.4-3.8-3.7c-1.6-0.4-7.3-0.3-7.3-2.8c0-1.1,1.6-2.1,2.8-2.4
	c8.6-2.4,25.3-6.7,25.9-6.7c0.5,0,1.6,0.8,1.6,1.3v46.3l0.6,51.1c0.1,1,0.1,6.9,2.7,6.9h4.3c0.6,0.4,1.3,2.1,1.3,2.1
	c0,0.5-0.3,2-1.1,2.5c-3.9,2.4-20.2,10.4-21.3,10.4c-3.9,0-2-7.5-4.3-7.5c-1.1,0-5.4,4.8-5.9,5.2c-3.5,2.3-8.1,3.9-12.1,3.9
	c-2.5,0-5.8-1.6-7.8-2.4C413.7,328.7,409.4,325,408.4,322.9z M342,309l0.3-26.6c0-0.3,0-2.1-1-2.1c-1.3,0-6.8,5.1-7.1,5.6
	c-4.7,6.1-9,13.9-9,20.6c0,2.5,2.1,10.2,7.5,10.2C336.1,316.6,340.6,313.3,342,309z M368.7,325.4c4.2,0,5.8-1.6,6.3-6.1l-1.1-91.8
	c-0.1-1.6-1-4.9-3.8-5.8c-1.1-0.3-2.5-0.3-3.9-0.6c-1.1-0.3-1.9-1.3-1.9-1.9c0-3.3,5.4-3.8,8.2-4.3c9.2-1.4,18.4-2.9,19.1-2.9
	c0.5,0,1.1,0,1.6,0.5c0.3,9.6,0.4,16.4,0.6,22.6c0,0.5,0,4.2-0.1,4.5c-0.1,0.4,0,51.5,0.1,52c0.1,0.4,0.1,12.3,0.3,13l-0.3,9.3
	c0,2.4,0.8,9.6,2,10.1c0.8,0.3,1.5,1.3,2.1,1.5c1.1,0.4,5.3,0.8,5.6,2.8c0.1,1.3,0.1,2-2.1,2.3l-53.4,0.3c-0.9-0.4-2-0.1-2.8-1.1
	c-0.8-1.1-1-2.3-1.4-3.4c0-0.1,0.4-5.2-1.3-5.2c-0.6,0-2.4,2.7-3.7,3.8c-1.4,1.3-3.5,2.7-5.3,3.8c-3.2,2-7.3,2.7-10.6,2.7
	c-3.3,0-4.9-0.5-8.3-2.1c-7.1-3.4-8.7-13.1-8.7-18.3c0-16.7,15.9-29.3,34.4-38.5c0.4-0.1,1.5-1.4,1.5-1.9l0.3-15.3
	c0-3.3,0-9.2-5.4-9.2c-3,0-9.1,2.1-10.6,5.6c-0.4,0.9,0.1,2.4,0.1,2.9c0,5.2-2.1,15.4-10.9,15.4c-5.9,0-9.1-3.3-9.1-8.7
	c0-1.9,0.3-3.7,1.4-5.7c0.8-1.4,2.9-3.5,2.9-5.1c0-1.8-1.6-1.8-2-1.8c-1.4,0-4.3,2.5-5.8,3.7c-5.1,3.9-9,16-9,21.6v45.6
	c0,0.6,0.4,2,1,3.2c0.5,1,2,1.8,3,2.1c0.6,0.3,4.3,0.8,4.7,3c0.3,2-1.6,2.8-2.9,2.8h-28.8c-2.4,0.3-3.2-2.7-3.2-2.8
	c0.9-3,3.2-2.4,4.4-3.3c1-0.6,2.1-1,2.7-1.9c0.4-0.8,0.5-2.9,0.8-4l-0.1-61.4c-0.3-0.9,0-2-0.3-2.9c-1.3-3.4-7.5-0.8-7.5-4.3
	c0-1.8,2.4-2.5,3.5-2.8c6.3-1.8,18.8-5.7,19.3-5.7h3.2c0.5,0.5,0.8,1,0.8,1.6l-0.6,6.9c0,0.5,0.3,0.9,0.4,1.3h0.6
	c6.6-7.7,11.4-10.7,17.9-10.7c0.6,0,3,0,4.3,0.3c1.8,0.4,4.5,3.4,6.4,3.4c2.1,0,10.2-5.1,20.3-5.1c4.3,0,9.9,1,14.1,4.7
	c2.9,2.5,3,6.9,3.5,9.9l0.5,64.2C361.8,322.6,363.4,325.4,368.7,325.4z M252.5,272.1c0-0.6,0.3-0.9-0.3-4.5l-0.4-6.7
	c-0.1-0.6-0.4-3.8-1.3-6.8c-0.9-3-2.4-5.8-5.1-5.8c-1.1,0-1.6,0-2.5,1.1c-0.6,0.8-0.9,1.9-1.3,2.8c-2.3,4.9-4.2,11-4.4,15.9
	c-0.3,2.8-0.3,3.8-0.3,4.3c0,3.5,3.2,3,5.6,3l7.3-0.3C251.7,275.4,252.5,272.9,252.5,272.1z M217.9,302.7v-21.5
	c0-0.6,1.1-6.3,1.8-9.6c3.2-15.2,12.4-30.3,27.4-30.3c14.9,0,19.6,15.9,21,28.3c0.4,3.7,0.3,5.3,0.3,5.8c0,2.3,0,9.1-4,9.1h-26.1
	c-1.5,0-1.5,2.1-1.5,2.4c0,0.5,0.3,2.9,0.5,7.1c0.1,1.9,2.7,24.9,13.8,24.9c9.9,0,8.8-13.6,14-13.6c1.4,0,2.3,1.3,2.3,2.1
	c0,1.5-1.9,7.1-2,7.6c-0.5,1.5-1.3,3.5-2.1,5.1c-6.4,10.9-14.5,12.8-22.4,12.8c-12.4,0-20.5-13.3-22-26.5
	C218.4,305.1,217.9,303.2,217.9,302.7z M142.7,220.6c-0.4-0.3-0.8-1.1-0.8-1.8c0-2.1,1.9-3.2,4-3.2h27.3c1.5,0,4,1.8,4,2.9
	c0,2.4-4.3,3.3-5.4,4.9c-0.5,0.9-0.8,2-1,2.9l-0.5,35c0,1.8,0.9,2.3,2.1,2.3h14.9c1.5,0,2-0.9,2-2.4l0.5-33c0-0.6,0.1-3-0.8-4.4
	c-1-1.5-8.1-2.7-8.1-5.3c0-1.1,1.8-2.9,2.7-2.9h33.3c1.9,0,3.3,2.1,3.3,2.9c0,0.6-0.1,1.3-0.5,1.5c-2.1,1.9-4.7,1.3-6.8,2.8
	c-1.8,1.4-2,3-2.3,4.7l-0.5,91.8c0.1,2,1.8,4.3,4,5.1c0.9,0.3,2.1,0.6,3,1c0.5,0.3,1,1.3,1,1.9c0,1.9-2.4,3-4,3h-28.2
	c-1.5,0-3.2-1.4-3.2-2.5c0-0.5,0.3-1.6,0.5-1.9c1.1-1,3.7-1.6,4.8-3.4c1.3-1.9,1-4.4,1.4-6.6l-0.3-42.1c0.5-1.4-0.5-2-1.5-1.6H172
	c-0.5-0.5-2,0.8-1.5,1.8v42.2l1.1,6.3c0.6,1.8,3.2,2.1,4.2,2.7c1.4,0.5,3,1,3,2.5c0,1.3-1.8,2.8-2.7,2.8h-33.6c-0.5,0-2-0.9-2.8-1.6
	c-0.1-0.1-0.4-0.6-0.4-1.3s0.3-1.8,1-2.1c1.6-1,4-1,5.9-2.1c1.8-1.1,2.3-3,2.4-4.5l0.5-91.8C150.2,223,144.4,221.6,142.7,220.6z
	 M-21.7,308.6l0.3-28c-0.3-0.3-0.4-0.5-0.9-0.5c-1.4,0-8.6,7.8-9,8.5c-1.3,1.9-2.9,4-3.7,6.2c-1.9,5.6-2.1,5.8-2.1,10.2
	c0,3,0.6,11,6.9,11C-27,315.9-22.3,312-21.7,308.6z M-37.9,331c-12.1,0-18.3-8.3-18.3-19.2c0-0.5,0-1.6,0.3-4.8
	c1.3-14.3,19.3-26.8,27.3-31.3c0.3-0.1,8.3-3.3,8.3-5.8l-0.5-19.2c-0.3-3.4-2.1-4.7-4.8-4.7c-1.4,0-3.4,0.8-5.2,1.6
	c-4.2,2-3.5,8.3-3.5,11c0,6.3-5.1,11.7-10.7,11.7c-4.3,0-7.5-2.7-7.5-7.2c0-5.2,4.2-10.7,10.4-15.5c8.5-6.7,15.4-8,22.7-8
	c4,0,8,0.4,11.7,2.1c2.5,1.1,6.2,8.2,6.2,10.4v67.1c0,2.1,1.4,5.9,3.5,6.2c0.9,0.1,2.5,0.3,3,0.3c3.4,0,5.9-1.4,6.3-5.6l-0.5-66.3
	c-0.3-1.1-0.8-2.4-1.3-3.7c-1.1-3.2-7.8-1.1-7.8-4.3c0-1.8,1.6-2.1,2.8-2.4c7.7-2,22.9-5.1,23.5-5.1c0.9,0,3.2,0.9,2.7,2.1
	l-0.5,77.9c0.5,6.2,2.5,6.9,5.7,6.9c3.9,0,5.9-1.1,5.9-6.7l-0.6-90.3c-0.1-1.6-0.4-3.2-1.4-4.7c-1.8-2.5-4.9-1.6-6.9-2.5
	c-0.5-0.3-1-0.9-1-1.5c0-1.4,1.6-2.5,3-2.9c7.5-1.8,22.4-4.7,22.9-4.7c0.9,0,2.3,0.1,2.3,1.5c0,0.1,0,0.3,0,0.4v107.1
	c0.1,1.3,3.9,3,5.1,3c2.5,0,3-7.5,10.1-7.5c5.2,0,9.5,3.4,9.5,8.6c0,0.5-0.9,2.9-0.9,3.5c0,0.5,0.5,1.1,1.1,1.1c3.4,0,5.4-8.3,5.4-9
	c0-0.5-6.4-23.5-10.1-35.2c-3.5-11.5-6.1-23.7-10.9-35.2c-1.1-2.8-4.5-2.8-6.2-3.4c-0.5-0.3-1.3-1.3-1.3-1.9c0-1.5,2.1-2.7,3.2-2.7
	h29.6c1.9,0,4.3,0.1,4.3,2.5c0,3.2-7.3,1.3-7.3,6.9c0,0.5,1.3,3.8,1.8,5.9c2.5,10,4.7,20,8.5,29.9h0.6c2.5-3.7,11.5-28.4,11.5-36.4
	c0-4.8-7.5-3.9-7.5-6.9c0-0.9,1.4-2,2.4-1.9l21.6-0.3c1.3,0,5.1,0.1,5.1,2.4c0,0.6,0.1,1.5-1.4,2c-2.8,1-8.2,2.1-9.5,6.8
	c-1,3.8-3,7.8-4.5,11.6c-8,20.7-16.2,41.5-24.2,62.3c-0.6,1.5-1.5,3.3-2.5,4.8c-3.5,5.7-9.3,7.8-13.8,7.8c-6.6,0-10.9-4.9-13.1-9.7
	l-78.8,0.3c-1.6-0.5-3.5-0.3-4.8-1.3c-3-2.4-1.1-8.6-3.3-8.6C-22.3,321-27.6,331-37.9,331z M30.6,224.5c0,7.3-4.8,12-11.4,12
	c-7.5,0-10.7-6.4-10.7-12c0-6.2,4.8-12,11.5-12C27.7,212.4,30.6,219.3,30.6,224.5z M-56.4,274c-1.1,15.2-4,32.3-10.6,43.4
	c-5.3,9-17.4,13.6-25,13.4c-1.4,0-4,0.6-4.5,0.6h-33.1c-1.1,0-1.8-2.3-1.8-2.7c0-3,5.2-3.2,5.9-3.4c2.3-0.5,3.8-3.9,3.8-5.4
	l-0.1-93.7c-0.4-1.1-0.4-2.4-1.5-3.3c-1.8-1.1-5.8-1-5.8-3.4s4.2-3.2,4.4-3.2l37.3,0.5c1.1,0.3,2.5,0.5,3.9,0.8
	c20.3,4,25,30.6,26.9,43.2L-56.4,274z M-78.3,290.7c0.3-7.1,0.6-14.1,0.6-18.4c-0.1-8.2,0.1-10.1-0.9-20c-0.9-9-2.5-28.5-16.7-28.5
	c-1.8,0-5.8-0.1-5.6,2.9l-0.5,93.8c0.5,3.4,3.3,3,5.7,3c0.6,0,3.8,0.1,5.2-0.5c9.7-5.1,10.1-15.7,11-23
	C-78.9,296.9-78.4,293.6-78.3,290.7z"/>
</svg>
