<?xml version="1.0" encoding="utf-8"?>
<!-- Generator: Adobe Illustrator 25.2.1, SVG Export Plug-In . SVG Version: 6.00 Build 0)  -->
<svg version="1.1" id="Layer_1" xmlns="http://www.w3.org/2000/svg" xmlns:xlink="http://www.w3.org/1999/xlink" x="0px" y="0px"
	 viewBox="0 0 221.1 28" style="enable-background:new 0 0 221.1 28;" xml:space="preserve">
<style type="text/css">
	.st0{fill:#326295;}
	.st1{fill:#00A9CE;}
	.st2{fill:#00245D;}
</style>
<g>
	<path class="st0" d="M21.5,2.8c0,0-2.4,0-3.3,3L11.4,28h9.2c0,0,2.4,0,3.3-3l6.8-22.3L21.5,2.8L21.5,2.8z"/>
	<path class="st1" d="M8.6,6.4c0,0-2.1,0-2.8,2.6L0,28h7.9c0,0,2.1,0,2.8-2.6l5.8-19.1L8.6,6.4L8.6,6.4z"/>
	<path class="st2" d="M35.7,0c0,0-2.7,0-3.6,3.3L24.6,28h10.3c0,0,2.7,0,3.6-3.3L46,0L35.7,0L35.7,0z"/>
	<path class="st2" d="M91.6,1.2h-7.4l-3.8,13.9L77.3,1.2h-6.8l-3.1,14.3L63.7,1.2h-7.3l6.8,25.5h7.6l3-13.6l2.7,13.6H84L91.6,1.2
		L91.6,1.2z M110.5,26.8v-5.6H98.5v-3h10v-5.1h-10v-2.7h11.8V4.8H92.1v22.1L110.5,26.8L110.5,26.8z M132.9,15.6
		c0-6.5-4.1-10.4-10.4-10.8c-1.2-0.1-2.4-0.1-3.6-0.1c-2.1,0-4.2,0.1-6.4,0.1v22.1l9.9,0C129.1,26.8,132.9,22.1,132.9,15.6
		L132.9,15.6L132.9,15.6z M126.4,15.5c0,3.4-2.4,6-5.8,6h-1.7v-11h1.2C123.4,10.5,126.4,11.7,126.4,15.5L126.4,15.5L126.4,15.5z
		 M154.4,20.4c0-2.3-1.6-4.8-3.8-5.5c1.9-1,2.8-3,2.8-5c0-2.9-2.4-5.1-5.2-5.1h-13.4v22h13.7C151.7,26.8,154.4,23.6,154.4,20.4
		L154.4,20.4L154.4,20.4z M147.3,11.7c0,1-0.9,1.7-1.9,1.7h-4.3V10c1,0,1.9,0,2.9,0C145.3,10,147.3,9.8,147.3,11.7L147.3,11.7
		L147.3,11.7z M148,19.7c0,1.2-1,2-2.2,2h-4.7v-3.9c1.1,0,2.1-0.1,3.2-0.1C145.9,17.7,148,17.5,148,19.7L148,19.7L148,19.7z
		 M175.1,17.3V4.8h-6.4v13.6c0,2-1.2,3.5-3.2,3.5c-1.9,0-3.5-1.3-3.5-3.3V4.8h-6.4c0,2.8,0,5.6,0,8.4c0,1.5,0,3,0.1,4.5
		c0.2,6.4,3.6,9.4,9.9,9.4C171.8,27.1,175.1,23.7,175.1,17.3L175.1,17.3L175.1,17.3z M195.6,19.9c0-8.2-12.5-6.5-12.5-9.1
		c0-1.2,1.4-1.6,2.4-1.6c1.2,0,2.4,0.7,2.8,1.9h6.2c-0.1-5.4-4.6-6.6-9.1-6.6c-4.4,0-8.5,1.5-8.5,6.6c0,7.6,12.3,6.5,12.3,9.1
		c0,1.6-1.8,2-3.1,2c-1.8,0-2.8-0.8-3.3-2.5h-6.4c0.4,5.5,4.9,7.4,9.8,7.4C190.2,27.1,195.6,24.9,195.6,19.9L195.6,19.9L195.6,19.9z
		 M216,26.8v-22h-6.4v7.5h-6.5V4.8h-6.4v22h6.4v-8.5h6.5v8.5L216,26.8L216,26.8z"/>
</g>
<g>
	<path class="st2" d="M218,4.8c0-1,0.7-1.6,1.6-1.6s1.6,0.7,1.6,1.6s-0.7,1.6-1.6,1.6C218.7,6.4,218,5.8,218,4.8z M220.8,4.8
		c0-0.8-0.5-1.3-1.2-1.3s-1.2,0.6-1.2,1.3c0,0.8,0.5,1.3,1.2,1.3C220.3,6.1,220.8,5.6,220.8,4.8z M219,3.9h0.6
		c0.4,0,0.7,0.1,0.7,0.5c0,0.2-0.1,0.4-0.3,0.5l0.4,0.7h-0.4L219.7,5h-0.3v0.6H219L219,3.9L219,3.9z M219.5,4.8
		c0.2,0,0.4-0.1,0.4-0.3c0-0.2-0.1-0.3-0.3-0.3h-0.2v0.6L219.5,4.8L219.5,4.8z"/>
</g>
</svg>
